#VRML V2.0 utf8
# 3D model generated by easyeda2kicad.py (https://github.com/uPesy/easyeda2kicad.py)

Shape{
    appearance Appearance {
        material  Material 	{
            diffuseColor 0.2235294117647059 0.2235294117647059 0.2235294117647059
            specularColor 0.11372549019607843 0.11372549019607843 0.11372549019607843
            ambientIntensity 0.2
            transparency 0
            shininess 0.5
        }
    }
    geometry IndexedFaceSet {
        ccw TRUE
        solid FALSE
        coord DEF co Coordinate {
            point [
                1.1048 -1.1811 0.4648, 1.1048 -1.1811 0.4119, 1.2333 -1.1811 0.4119, 1.1048 -1.1811 0.6765, 1.1048 -1.1811 0.6374, 1.2333 -1.1811 0.6374, 1.2843 -1.1811 0.811, 1.2944 -1.1811 0.8122, 1.2413 -1.1811 0.8122, -2.0669 -1.1811 0.1969, -0.5917 -1.1811 0.1969, -0.5917 -1.1811 0.4119, 1.3792 -1.1811 0.7957, 1.3792 -1.1811 0.753, 1.4152 -1.1811 0.753, 1.3874 -1.1811 0.4655, 1.3819 -1.1811 0.4648, 1.4152 -1.1811 0.4648, 1.3563 -1.1811 0.4656, 1.3542 -1.1811 0.4664, 1.3542 -1.1811 0.4648, 1.5463 -1.1811 0.584, 1.5463 -1.1811 0.5413, 1.5713 -1.1811 0.5413, 0.9892 -1.1811 0.707, 1.0149 -1.1811 0.6852, 1.1048 -1.1811 0.8122, 0.8841 -1.1811 0.8122, 0.905 -1.1811 0.7976, 0.9386 -1.1811 0.7579, 0.9563 -1.1811 0.7226, 0.961 -1.1811 0.721, 0.776 -1.1811 0.8469, 0.8224 -1.1811 0.8411, 1.1048 -1.1811 3.8386, 0.8693 -1.1811 0.8225, 0.7345 -1.1811 0.8424, -0.5917 -1.1811 3.8386, 0.6904 -1.1811 0.8269, 0.666 -1.1811 0.8122, -0.5917 -1.1811 0.8122, 0.6621 -1.1811 0.8099, 0.4583 -1.1811 0.6765, 0.4668 -1.1811 0.6955, 0.4894 -1.1811 0.7245, 0.5616 -1.1811 0.7655, 0.5986 -1.1811 0.77, 0.6398 -1.1811 0.7908, 0.6095 -1.1811 0.7694, 0.6204 -1.1811 0.7681, 0.4962 -1.1811 0.7309, 0.5265 -1.1811 0.752, 0.5477 -1.1811 0.4713, 0.5135 -1.1811 0.4882, -0.5917 -1.1811 0.4648, 0.4847 -1.1811 0.5129, 0.4628 -1.1811 0.5442, 0.4493 -1.1811 0.5796, 0.4448 -1.1811 0.6163, -0.5917 -1.1811 0.6374, 0.4516 -1.1811 0.6613, -0.5917 -1.1811 0.6765, 0.4472 -1.1811 0.6374, 0.4451 -1.1811 0.6257, 0.5606 -1.1811 0.4674, 0.5618 -1.1811 0.4648, 0.5701 -1.1811 0.447, 0.5842 -1.1811 0.4296, 0.6737 -1.1811 0.4057, 0.6507 -1.1811 0.4028, 1.1048 -1.1811 0.1969, 0.6471 -1.1811 0.4029, 0.6247 -1.1811 0.4064, 0.6115 -1.1811 0.4119, 0.6028 -1.1811 0.4156, 0.7397 -1.1811 0.4648, 0.7396 -1.1811 0.4645, 0.7284 -1.1811 0.4433, 0.7138 -1.1811 0.4269, 0.6949 -1.1811 0.4138, 0.69 -1.1811 0.4119, 1.0459 -1.1811 0.6292, 1.0502 -1.1811 0.5983, 0.8608 -1.1811 0.5208, 0.8673 -1.1811 0.5234, 0.8785 -1.1811 0.5774, 1.0151 -1.1811 0.5082, 0.9893 -1.1811 0.4863, 0.7219 -1.1811 0.5613, 0.849 -1.1811 0.6277, 0.7053 -1.1811 0.5764, 0.6852 -1.1811 0.5872, 0.855 -1.1811 0.5166, 1.0339 -1.1811 0.5344, 0.9909 -1.1811 0.6056, 0.9865 -1.1811 0.6239, 0.9792 -1.1811 0.6374, 0.507 -1.1811 0.6374, 1.0458 -1.1811 0.5644, 0.8747 -1.1811 0.5243, 0.8756 -1.1811 0.5242, 0.8784 -1.1811 0.5236, 0.5125 -1.1811 0.5804, 0.5239 -1.1811 0.5611, 0.572 -1.1811 0.5514, 0.5409 -1.1811 0.5437, 0.5616 -1.1811 0.5309, 0.6071 -1.1811 0.5828, 0.5877 -1.1811 0.5693, 0.5046 -1.1811 0.6182, 0.5057 -1.1811 0.6037, 0.6281 -1.1811 0.5908, 0.6507 -1.1811 0.5936, 0.6623 -1.1811 0.5929, 0.8452 -1.1811 0.4949, 0.8455 -1.1811 0.4986, 0.7456 -1.1811 0.5072, 0.8474 -1.1811 0.5058, 0.851 -1.1811 0.5123, 0.9721 -1.1811 0.5472, 0.9825 -1.1811 0.562, 0.9891 -1.1811 0.5789, 0.9914 -1.1811 0.5974, 0.8674 -1.1811 0.4663, 0.8611 -1.1811 0.4688, 0.855 -1.1811 0.4732, 0.8528 -1.1811 0.4754, 0.8486 -1.1811 0.4814, 0.8461 -1.1811 0.4878, 0.7451 -1.1811 0.4879, 0.7456 -1.1811 0.4977, 0.9603 -1.1811 0.4721, 0.9287 -1.1811 0.4655, 0.8728 -1.1811 0.4655, 0.8804 -1.1811 0.5233, 0.923 -1.1811 0.5233, 0.94 -1.1811 0.5266, 0.9568 -1.1811 0.5343, 0.9708 -1.1811 0.5458, 0.9098 -1.1811 0.6714, 0.5156 -1.1811 0.6623, 0.5074 -1.1811 0.6412, 0.9174 -1.1811 0.6714, 0.9776 -1.1811 0.6402, 0.9667 -1.1811 0.6525, 0.9519 -1.1811 0.6628, 0.9354 -1.1811 0.6691, 0.8893 -1.1811 0.7283, 0.868 -1.1811 0.7539, 0.6498 -1.1811 0.6989, 0.8655 -1.1811 0.7561, 0.8388 -1.1811 0.7746, 0.6643 -1.1811 0.7289, 0.5254 -1.1811 0.6765, 0.643 -1.1811 0.7026, 0.9086 -1.1811 0.6765, 0.904 -1.1811 0.6977, 0.6217 -1.1811 0.7104, 0.5995 -1.1811 0.7131, 0.5897 -1.1811 0.7126, 0.6856 -1.1811 0.7543, 0.8091 -1.1811 0.786, 0.711 -1.1811 0.7729, 0.7769 -1.1811 0.79, 0.742 -1.1811 0.7855, 0.5663 -1.1811 0.7071, 0.5451 -1.1811 0.6958, 0.5287 -1.1811 0.6812, 1.0212 -1.1811 0.6765, 1.0343 -1.1811 0.6582, 1.0426 -1.1811 0.6374, 1.6008 -1.1811 0.4811, 1.6008 -1.1811 0.4659, 1.6134 -1.1811 0.4648, 1.5713 -1.1811 0.4648, 1.594 -1.1811 0.526, 1.5713 -1.1811 0.526, 1.5713 -1.1811 0.4811, 1.5463 -1.1811 0.526, 1.5463 -1.1811 0.4811, 1.594 -1.1811 0.5413, 1.5978 -1.1811 0.584, 1.5713 -1.1811 0.584, 1.5713 -1.1811 0.4659, 1.5291 -1.1811 0.4659, 1.5201 -1.1811 0.4648, 1.5291 -1.1811 0.5994, 1.2535 -1.1811 0.5108, 1.2566 -1.1811 0.5383, 1.25 -1.1811 0.5054, 1.248 -1.1811 0.4992, 1.2935 -1.1811 0.5493, 1.2878 -1.1811 0.5498, 1.2789 -1.1811 0.5226, 1.3465 -1.1811 0.4865, 1.3238 -1.1811 0.5273, 1.3465 -1.1811 0.4693, 1.3238 -1.1811 0.4659, 1.2975 -1.1811 0.4699, 1.2934 -1.1811 0.4673, 1.3071 -1.1811 0.4659, 1.2868 -1.1811 0.4648, 1.2584 -1.1811 0.5153, 1.2651 -1.1811 0.519, 1.2681 -1.1811 0.5456, 1.2785 -1.1811 0.549, 1.2413 -1.1811 0.4119, 1.2678 -1.1811 0.4648, 1.2413 -1.1811 0.4648, 1.2675 -1.1811 0.4648, 1.2611 -1.1811 0.4673, 1.2724 -1.1811 0.5614, 1.2413 -1.1811 0.6374, 1.26 -1.1811 0.5566, 1.2566 -1.1811 0.5546, 1.2554 -1.1811 0.4712, 1.2536 -1.1811 0.473, 1.2501 -1.1811 0.4782, 1.3535 -1.1811 0.4822, 1.3542 -1.1811 0.482, 1.3542 -1.1811 0.5175, 1.3071 -1.1811 0.4807, 1.3067 -1.1811 0.4807, 1.3029 -1.1811 0.4752, 1.2481 -1.1811 0.4838, 1.2473 -1.1811 0.4914, 1.3473 -1.1811 0.529, 1.3222 -1.1811 0.5412, 1.3466 -1.1811 0.5355, 1.3071 -1.1811 0.5265, 1.3065 -1.1811 0.5339, 1.3048 -1.1811 0.5399, 1.3028 -1.1811 0.5433, 1.2894 -1.1811 0.5634, 1.3007 -1.1811 0.5622, 1.3074 -1.1811 0.5599, 1.3472 -1.1811 0.5415, 1.3492 -1.1811 0.5469, 1.3195 -1.1811 0.5484, 1.3523 -1.1811 0.5514, 1.316 -1.1811 0.5536, 1.3128 -1.1811 0.5566, 1.3541 -1.1811 0.5176, 1.3513 -1.1811 0.5204, 1.3492 -1.1811 0.5239, 1.3003 -1.1811 0.546, 1.2974 -1.1811 0.5479, 1.363 -1.1811 0.4648, 1.3542 -1.1811 0.4119, 1.3723 -1.1811 0.4637, 1.4063 -1.1811 0.5592, 1.4063 -1.1811 0.543, 1.3542 -1.1811 0.5531, 1.3542 -1.1811 0.6374, 1.3573 -1.1811 0.5559, 1.363 -1.1811 0.5592, 1.4101 -1.1811 0.4851, 1.408 -1.1811 0.4798, 1.4049 -1.1811 0.4754, 1.3724 -1.1811 0.5623, 1.3837 -1.1811 0.5634, 1.4152 -1.1811 0.6374, 1.3954 -1.1811 0.5624, 1.4053 -1.1811 0.5076, 1.4084 -1.1811 0.503, 1.4102 -1.1811 0.4981, 1.4109 -1.1811 0.4919, 1.4001 -1.1811 0.4713, 1.3962 -1.1811 0.4688, 1.3821 -1.1811 0.5498, 1.3771 -1.1811 0.5495, 1.3638 -1.1811 0.537, 1.3726 -1.1811 0.5483, 1.3689 -1.1811 0.5463, 1.364 -1.1811 0.5348, 1.3646 -1.1811 0.5322, 1.3658 -1.1811 0.5299, 1.3675 -1.1811 0.5282, 1.3734 -1.1811 0.5245, 1.3924 -1.1811 0.5487, 1.3837 -1.1811 0.52, 1.4019 -1.1811 0.5454, 1.3902 -1.1811 0.5173, 1.4013 -1.1811 0.5112, 1.3664 -1.1811 0.5441, 1.3649 -1.1811 0.5419, 1.3641 -1.1811 0.5397, 1.364 -1.1811 0.4784, 1.3719 -1.1811 0.5078, 1.3619 -1.1811 0.5124, 1.374 -1.1811 0.4773, 1.3747 -1.1811 0.4773, 1.3829 -1.1811 0.5032, 1.3833 -1.1811 0.4783, 1.3937 -1.1811 0.4902, 1.3935 -1.1811 0.4923, 1.3876 -1.1811 0.4799, 1.3891 -1.1811 0.4808, 1.391 -1.1811 0.4825, 1.3925 -1.1811 0.4847, 1.3934 -1.1811 0.487, 1.3928 -1.1811 0.4949, 1.3915 -1.1811 0.4971, 1.3894 -1.1811 0.4993, 1.6624 -1.1811 0.7141, 1.6134 -1.1811 0.7141, 1.676 -1.1811 0.6776, 1.6134 -1.1811 0.6765, 1.6951 -1.1811 0.6776, 2.1654 -1.1811 0.6765, 2.1654 -1.1811 0.8122, 1.6442 -1.1811 0.8111, 1.6134 -1.1811 0.8122, 1.6068 -1.1811 0.7141, 1.594 -1.1811 0.6776, 1.5713 -1.1811 0.6765, 1.575 -1.1811 0.6776, 1.5713 -1.1811 0.8122, 1.6134 -1.1811 0.7786, 1.6258 -1.1811 0.8111, 1.5201 -1.1811 0.6765, 1.5183 -1.1811 0.6804, 1.4956 -1.1811 0.6776, 1.497 -1.1811 0.8111, 1.5201 -1.1811 0.8122, 1.4463 -1.1811 0.8122, 1.4463 -1.1811 0.6765, 1.4589 -1.1811 0.6776, 1.4589 -1.1811 0.8111, 1.5639 -1.1811 0.7219, 1.5574 -1.1811 0.7081, 1.5521 -1.1811 0.7888, 1.5604 -1.1811 0.7772, 1.5474 -1.1811 0.6963, 1.5335 -1.1811 0.6863, 1.5201 -1.1811 0.6811, 1.5474 -1.1811 0.7934, 1.5174 -1.1811 0.8088, 1.5201 -1.1811 0.8079, 1.5335 -1.1811 0.803, 1.5653 -1.1811 0.7645, 1.5676 -1.1811 0.7461, 1.5672 -1.1811 0.7376, 1.4152 -1.1811 0.8122, 1.4307 -1.1811 0.8111, 1.4152 -1.1811 0.8111, 1.3792 -1.1811 0.6928, 1.4152 -1.1811 0.6928, 1.3792 -1.1811 0.7377, 1.4152 -1.1811 0.7377, 1.4269 -1.1811 0.7377, 1.4337 -1.1811 0.6928, 1.4269 -1.1811 0.753, 1.4307 -1.1811 0.7957, 1.4152 -1.1811 0.7957, 1.3619 -1.1811 0.6776, 1.3542 -1.1811 0.6765, 1.4152 -1.1811 0.6765, 1.4337 -1.1811 0.6776, 1.4152 -1.1811 0.6776, 1.3619 -1.1811 0.8111, 1.3542 -1.1811 0.8122, -1.6427 -1.1811 0.6374, -1.657 -1.1811 0.6027, -1.691 -1.1811 0.5584, -1.7353 -1.1811 0.5244, -1.787 -1.1811 0.503, -1.8424 -1.1811 0.4957, -1.8977 -1.1811 0.503, -2.1654 -1.1811 0.4648, -1.9494 -1.1811 0.5244, -1.9937 -1.1811 0.5584, -2.0277 -1.1811 0.6027, -2.1654 -1.1811 0.6374, -1.6551 -1.1811 0.8122, -1.6356 -1.1811 0.7652, -1.6283 -1.1811 0.7098, -1.6327 -1.1811 0.6765, -1.6356 -1.1811 0.6544, -2.1654 -1.1811 0.8122, -2.0296 -1.1811 0.8122, -2.0277 -1.1811 0.8168, -2.1654 -1.1811 3.8386, -1.9937 -1.1811 0.8611, -1.9494 -1.1811 0.8951, -1.8977 -1.1811 0.9165, -1.8424 -1.1811 0.9238, -1.787 -1.1811 0.9165, -1.7353 -1.1811 0.8951, -1.691 -1.1811 0.8611, -1.657 -1.1811 0.8168, -2.1654 -1.1811 0.6765, -2.0564 -1.1811 0.7098, -2.0491 -1.1811 0.7652, -2.0421 -1.1811 0.6374, -2.0491 -1.1811 0.6544, -2.052 -1.1811 0.6765, 2.0669 -1.1811 0.0, 2.1654 -1.1811 0.0, 2.0669 -1.1811 0.1969, 2.1654 -1.1811 0.4119, 1.6134 -1.1811 0.1969, -2.1654 -1.1811 0.4119, -2.1654 -1.1811 0.0, -2.0669 -1.1811 0.0, 1.3179 -1.1811 0.8122, 1.3211 -1.1811 0.812, 1.3352 -1.1811 0.8079, 1.3352 -1.1811 0.7899, 1.3352 -1.1811 0.6997, 1.3352 -1.1811 0.6832, 1.333 -1.1811 0.682, 1.3186 -1.1811 0.6773, 1.3101 -1.1811 0.6765, 1.3202 -1.1811 0.7958, 1.3038 -1.1811 0.7978, 1.3337 -1.1811 0.7907, 1.2971 -1.1811 0.7974, 1.2857 -1.1811 0.7949, 1.2753 -1.1811 0.7897, 1.2674 -1.1811 0.783, 1.2665 -1.1811 0.782, 1.2601 -1.1811 0.7727, 1.2556 -1.1811 0.7612, 1.2534 -1.1811 0.7429, 1.2536 -1.1811 0.7364, 1.256 -1.1811 0.7234, 1.307 -1.1811 0.691, 1.3221 -1.1811 0.6938, 1.2779 -1.1811 0.696, 1.2874 -1.1811 0.6923, 1.3008 -1.1811 0.6907, 1.2606 -1.1811 0.7128, 1.2665 -1.1811 0.7048, 1.2692 -1.1811 0.7022, 1.3036 -1.1811 0.8133, 1.2413 -1.1811 3.8386, 1.3542 -1.1811 3.8386, 1.2449 -1.1811 0.781, 1.2546 -1.1811 0.7937, 1.2579 -1.1811 0.7968, 1.2704 -1.1811 0.8056, 1.2413 -1.1811 0.7116, 1.238 -1.1811 0.7201, 1.2333 -1.1811 0.6765, 1.2353 -1.1811 0.7418, 1.2355 -1.1811 0.7488, 1.2333 -1.1811 0.8122, 1.2386 -1.1811 0.7662, 1.2413 -1.1811 0.7726, 1.2632 -1.1811 0.6847, 1.2524 -1.1811 0.6936, 1.2413 -1.1811 0.6765, 1.2514 -1.1811 0.6948, 1.2434 -1.1811 0.7062, 1.2983 -1.1811 0.6754, 1.2902 -1.1811 0.6758, 1.2866 -1.1811 0.6765, 1.2758 -1.1811 0.6787, 1.2867 -1.1811 0.4648, 1.2775 -1.1811 0.4637, 1.4937 -1.1811 0.5612, 1.511 -1.1811 0.5612, 1.5201 -1.1811 0.6374, 1.5978 -1.1811 0.5994, 1.6134 -1.1811 0.6374, 1.5713 -1.1811 0.5994, 1.5713 -1.1811 0.6374, 1.473 -1.1811 0.4648, 1.4632 -1.1811 0.4896, 1.4652 -1.1811 0.4818, 1.4656 -1.1811 0.4818, 1.4463 -1.1811 0.6374, 1.4463 -1.1811 0.538, 1.4677 -1.1811 0.4895, 1.4664 -1.1811 0.485, 1.4463 -1.1811 0.4648, 1.4463 -1.1811 0.4932, 1.4196 -1.1811 0.5612, 1.4383 -1.1811 0.5612, 1.4569 -1.1811 0.4661, 1.4564 -1.1811 0.4648, 1.4496 -1.1811 0.4488, 1.4152 -1.1811 0.4119, 1.423 -1.1811 0.4224, 1.423 -1.1811 0.4373, 1.4432 -1.1811 0.4393, 1.4463 -1.1811 0.4427, 1.4463 -1.1811 0.4428, 1.4264 -1.1811 0.4362, 1.4325 -1.1811 0.4354, 1.4463 -1.1811 0.424, 1.4405 -1.1811 0.4218, 1.4463 -1.1811 0.4119, 1.4338 -1.1811 0.421, 1.4301 -1.1811 0.4212, 1.4368 -1.1811 0.4359, 1.4404 -1.1811 0.4373, 1.4678 -1.1811 0.4515, 1.4602 -1.1811 0.4368, 1.5201 -1.1811 0.4119, 1.4541 -1.1811 0.4295, 1.453 -1.1811 0.4284, 1.4471 -1.1811 0.4243, 1.2299 -1.1811 0.6928, 1.2299 -1.1811 0.6776, 1.1595 -1.1811 0.6776, 1.1767 -1.1811 0.8111, 1.1767 -1.1811 0.6928, 1.1595 -1.1811 0.8111, 1.2333 -1.1811 0.4648, 1.2313 -1.1811 0.4659, 1.1595 -1.1811 0.4659, 1.2313 -1.1811 0.4811, 1.2282 -1.1811 0.584, 1.1767 -1.1811 0.526, 1.1767 -1.1811 0.4811, 1.2244 -1.1811 0.526, 1.2244 -1.1811 0.5413, 1.1767 -1.1811 0.5413, 1.1767 -1.1811 0.584, 1.1595 -1.1811 0.5994, 1.2282 -1.1811 0.5994, 1.2333 -1.1811 3.8386, 1.5713 -1.1811 0.4119, 1.6134 -1.1811 0.4119, 1.4152 -1.1811 3.8386, 1.4463 -1.1811 3.8386, 1.5201 -1.1811 3.8386, 1.5713 -1.1811 3.8386, 1.6134 -1.1811 3.8386, 2.1654 -1.1811 3.8386, 1.626 -1.1811 0.4659, 1.626 -1.1811 0.5994, 1.8622 -1.1811 0.4659, 1.8431 -1.1811 0.4659, 1.6627 -1.1811 0.4659, 2.1654 -1.1811 0.4648, 2.1654 -1.1811 0.6374, 1.8113 -1.1811 0.5994, 1.8295 -1.1811 0.5024, 1.774 -1.1811 0.5024, 1.7611 -1.1811 0.4659, 1.7421 -1.1811 0.4659, 1.7929 -1.1811 0.5994, 1.7245 -1.1811 0.4964, 1.7146 -1.1811 0.4846, 1.7006 -1.1811 0.4746, 1.6854 -1.1811 0.4687, 1.7146 -1.1811 0.5817, 1.7193 -1.1811 0.5771, 1.7275 -1.1811 0.5655, 1.7325 -1.1811 0.5528, 1.6641 -1.1811 0.5994, 1.6845 -1.1811 0.5971, 1.7006 -1.1811 0.5912, 1.7347 -1.1811 0.5344, 1.7343 -1.1811 0.5259, 1.7311 -1.1811 0.5102, 1.5713 -1.1811 0.1969, 1.5201 -1.1811 0.1969, 1.4463 -1.1811 0.1969, 1.4152 -1.1811 0.1969, 1.3542 -1.1811 0.1969, 1.2413 -1.1811 0.1969, 1.2333 -1.1811 0.1969, -1.4016 -0.9646 0.1969, -0.5984 -0.8465 0.1969, -0.5984 -0.9646 0.1969, -0.4016 -0.9646 0.1969, 2.0669 1.1811 0.1969, -1.4016 -0.8465 0.1969, -2.0669 1.1811 0.1969, -1.5984 -0.8465 0.1969, -1.5984 -0.9646 0.1969, 1.4016 -0.9646 0.1969, 1.5984 -0.9646 0.1969, 1.5984 -0.8465 0.1969, 1.4016 -0.8465 0.1969, 0.4016 -0.8465 0.1969, 0.5984 -0.8465 0.1969, 0.5984 -0.9646 0.1969, -0.4016 -0.8465 0.1969, 0.4016 -0.9646 0.1969, -2.2604 -1.1082 0.0, -2.2638 -1.0827 0.0, -2.1654 1.1811 0.0, -2.0669 1.1811 0.0, -2.235 1.1523 0.0, -2.2146 1.1679 0.0, -2.1908 1.1777 0.0, -2.1908 -1.1777 0.0, -2.2146 -1.1679 0.0, -2.2506 -1.1319 0.0, -2.235 -1.1523 0.0, -2.2638 1.0827 0.0, -2.2604 1.1082 0.0, -2.2506 1.1319 0.0, 2.2638 -1.0827 0.0, 2.2638 1.0827 0.0, 2.2638 -1.0827 3.8386, 2.2638 1.0827 3.8386, 2.1654 1.1811 0.0, 2.0669 1.1811 0.0, -2.1654 1.1811 3.8386, 2.1654 1.1811 3.8386, -2.2638 -1.0827 3.8386, -2.2638 1.0827 3.8386, 2.1654 -1.0827 3.937, 2.1654 1.0827 3.937, -2.1654 -1.0827 3.937, -2.1654 1.0827 3.937, 2.2604 1.1082 0.0, 2.1908 1.1777 0.0, 2.2146 1.1679 0.0, 2.235 1.1523 0.0, 2.2506 1.1319 0.0, 2.235 -1.1523 0.0, 2.2146 -1.1679 0.0, 2.2506 -1.1319 0.0, 2.2604 -1.1082 0.0, 2.1908 -1.1777 0.0, 2.1908 -1.1777 0.0
            ]
        }
        coordIndex [
            0,1,2,-1,3,4,5,-1,6,7,8,-1,9,10,11,-1,12,13,14,-1,15,16,17,-1,18,19,20,-1,21,22,23,-1,24,25,26,-1,26,25,3,-1,27,28,26,-1,26,28,29,-1,29,30,26,-1,26,30,31,-1,26,31,24,-1,32,33,34,-1,34,33,35,-1,32,34,36,-1,36,34,37,-1,36,37,38,-1,38,37,39,-1,39,37,40,-1,39,40,41,-1,42,43,40,-1,40,43,44,-1,40,45,41,-1,41,45,46,-1,41,46,47,-1,47,46,48,-1,47,48,49,-1,44,50,40,-1,40,50,51,-1,40,51,45,-1,52,53,54,-1,53,55,54,-1,54,55,56,-1,54,56,57,-1,57,58,59,-1,60,61,62,-1,62,61,59,-1,62,59,63,-1,63,59,58,-1,64,52,65,-1,65,52,54,-1,65,54,66,-1,66,54,67,-1,68,69,70,-1,70,69,71,-1,70,71,10,-1,10,71,72,-1,10,72,11,-1,11,72,73,-1,11,73,54,-1,54,73,74,-1,54,74,67,-1,0,75,1,-1,1,75,76,-1,1,76,77,-1,77,78,1,-1,1,78,79,-1,1,79,80,-1,81,82,4,-1,83,84,85,-1,86,87,0,-1,88,89,90,-1,90,89,91,-1,83,85,92,-1,86,0,93,-1,94,95,89,-1,89,95,96,-1,89,96,97,-1,4,82,0,-1,0,82,98,-1,0,98,93,-1,84,99,85,-1,85,99,100,-1,85,100,101,-1,102,103,104,-1,104,103,105,-1,104,105,106,-1,107,97,108,-1,108,97,109,-1,108,109,104,-1,104,109,110,-1,104,110,102,-1,107,111,97,-1,97,111,112,-1,97,112,89,-1,89,112,113,-1,89,113,91,-1,114,115,116,-1,116,115,117,-1,116,117,85,-1,85,117,118,-1,85,118,92,-1,119,120,85,-1,85,120,121,-1,85,121,89,-1,89,121,122,-1,89,122,94,-1,123,124,75,-1,75,124,125,-1,75,125,126,-1,126,127,75,-1,75,127,128,-1,75,128,129,-1,129,128,114,-1,129,114,130,-1,130,114,116,-1,87,131,0,-1,0,131,132,-1,0,132,75,-1,75,132,133,-1,75,133,123,-1,101,134,85,-1,85,134,135,-1,85,135,136,-1,136,137,85,-1,85,137,138,-1,85,138,119,-1,139,140,141,-1,141,97,139,-1,139,97,96,-1,139,96,142,-1,142,96,143,-1,143,144,142,-1,142,144,145,-1,142,145,146,-1,147,148,149,-1,148,150,149,-1,149,150,151,-1,149,151,152,-1,153,149,154,-1,140,139,153,-1,153,139,155,-1,153,155,149,-1,149,155,156,-1,149,156,147,-1,154,157,153,-1,153,157,158,-1,153,158,159,-1,152,151,160,-1,160,151,161,-1,160,161,162,-1,162,161,163,-1,162,163,164,-1,165,166,159,-1,159,166,167,-1,159,167,153,-1,25,168,3,-1,3,168,169,-1,3,169,4,-1,4,169,170,-1,4,170,81,-1,171,172,173,-1,173,172,174,-1,175,176,177,-1,177,176,178,-1,177,178,179,-1,177,171,175,-1,175,171,173,-1,175,173,180,-1,180,173,181,-1,180,181,23,-1,23,181,182,-1,23,182,21,-1,172,183,174,-1,174,183,184,-1,174,184,185,-1,185,184,186,-1,187,188,189,-1,189,188,190,-1,191,192,193,-1,194,195,196,-1,196,195,197,-1,196,197,19,-1,198,199,200,-1,200,199,201,-1,200,201,197,-1,187,202,188,-1,188,202,203,-1,188,203,204,-1,204,203,193,-1,204,193,205,-1,205,193,192,-1,206,207,208,-1,208,207,209,-1,208,209,210,-1,211,212,213,-1,213,212,214,-1,210,215,208,-1,208,215,216,-1,208,216,217,-1,218,219,220,-1,221,222,200,-1,200,222,223,-1,200,223,198,-1,217,224,208,-1,208,224,225,-1,208,225,212,-1,212,225,190,-1,212,190,214,-1,214,190,188,-1,195,226,227,-1,227,226,228,-1,229,230,193,-1,193,230,231,-1,193,231,232,-1,218,220,194,-1,211,233,212,-1,212,233,234,-1,212,234,235,-1,228,236,227,-1,227,236,237,-1,227,237,238,-1,238,237,239,-1,238,239,240,-1,240,239,241,-1,220,242,194,-1,194,242,243,-1,194,243,195,-1,195,243,244,-1,195,244,226,-1,232,245,193,-1,193,245,246,-1,193,246,191,-1,18,20,247,-1,247,20,248,-1,247,248,249,-1,250,251,17,-1,239,252,253,-1,253,252,254,-1,253,254,255,-1,256,257,17,-1,17,257,258,-1,255,259,253,-1,253,259,260,-1,253,260,261,-1,261,260,262,-1,261,262,250,-1,263,264,251,-1,251,264,265,-1,251,265,17,-1,17,265,266,-1,17,266,256,-1,258,267,17,-1,17,267,268,-1,17,268,15,-1,269,270,271,-1,271,270,272,-1,271,272,273,-1,271,274,269,-1,269,274,275,-1,269,275,276,-1,276,277,269,-1,269,277,278,-1,269,278,279,-1,279,278,280,-1,279,280,281,-1,281,280,282,-1,281,282,251,-1,251,282,283,-1,251,283,263,-1,284,285,273,-1,273,285,286,-1,273,286,271,-1,287,288,219,-1,219,288,289,-1,219,289,220,-1,287,290,288,-1,288,290,291,-1,288,291,292,-1,292,291,293,-1,292,294,295,-1,293,296,292,-1,292,296,297,-1,292,297,298,-1,298,299,292,-1,292,299,300,-1,292,300,294,-1,295,301,292,-1,292,301,302,-1,292,302,303,-1,304,305,306,-1,306,305,307,-1,306,307,308,-1,309,310,311,-1,311,310,312,-1,305,313,307,-1,307,313,314,-1,307,314,315,-1,315,314,316,-1,315,316,317,-1,317,316,318,-1,317,318,312,-1,312,318,319,-1,312,319,311,-1,320,321,322,-1,323,324,325,-1,320,322,326,-1,326,322,327,-1,326,327,325,-1,325,327,328,-1,325,328,323,-1,329,330,315,-1,331,332,317,-1,330,333,315,-1,315,333,334,-1,315,334,320,-1,320,334,335,-1,320,335,321,-1,331,317,336,-1,323,337,324,-1,324,337,338,-1,324,338,317,-1,317,338,339,-1,317,339,336,-1,332,340,317,-1,317,340,341,-1,317,341,315,-1,315,341,342,-1,315,342,329,-1,325,343,344,-1,344,343,345,-1,346,347,348,-1,348,347,349,-1,349,347,350,-1,350,347,351,-1,350,351,352,-1,352,351,353,-1,352,353,14,-1,14,353,354,-1,14,354,12,-1,355,356,357,-1,344,353,325,-1,325,353,351,-1,325,351,326,-1,326,351,358,-1,326,358,357,-1,357,358,359,-1,357,359,355,-1,345,343,360,-1,360,343,361,-1,360,361,355,-1,57,59,54,-1,54,59,362,-1,54,362,363,-1,363,364,54,-1,54,364,365,-1,54,365,366,-1,367,368,369,-1,369,368,370,-1,370,371,369,-1,369,371,372,-1,369,372,373,-1,374,375,40,-1,40,375,61,-1,40,61,42,-1,42,61,60,-1,375,376,61,-1,61,376,377,-1,61,377,59,-1,59,377,378,-1,59,378,362,-1,379,380,381,-1,379,381,382,-1,382,381,383,-1,382,383,384,-1,384,385,382,-1,382,385,386,-1,382,386,37,-1,37,386,387,-1,387,388,37,-1,37,388,389,-1,37,389,40,-1,40,389,390,-1,40,390,374,-1,391,392,379,-1,379,392,393,-1,379,393,380,-1,372,394,373,-1,373,394,395,-1,373,395,391,-1,391,395,396,-1,391,396,392,-1,397,398,399,-1,399,398,400,-1,399,400,401,-1,402,403,404,-1,405,406,361,-1,361,406,407,-1,361,407,408,-1,409,410,356,-1,410,411,356,-1,356,411,412,-1,356,412,413,-1,414,415,409,-1,355,361,356,-1,356,361,408,-1,356,408,409,-1,409,408,416,-1,409,416,414,-1,415,417,409,-1,409,417,418,-1,409,418,419,-1,419,420,409,-1,409,420,421,-1,409,421,422,-1,422,423,409,-1,409,423,424,-1,409,424,425,-1,426,427,425,-1,425,427,428,-1,425,428,409,-1,429,430,431,-1,426,432,427,-1,427,432,433,-1,427,433,431,-1,431,433,434,-1,431,434,429,-1,7,435,436,-1,436,435,405,-1,436,405,437,-1,8,438,439,-1,439,440,8,-1,8,440,441,-1,8,441,6,-1,442,443,444,-1,445,446,447,-1,447,446,448,-1,447,448,8,-1,8,448,449,-1,8,449,438,-1,450,451,452,-1,452,451,453,-1,452,453,454,-1,455,456,212,-1,212,456,457,-1,212,457,452,-1,452,457,458,-1,452,458,450,-1,413,455,253,-1,253,455,212,-1,253,212,239,-1,239,212,235,-1,239,235,241,-1,19,197,20,-1,20,197,201,-1,20,201,248,-1,248,201,459,-1,248,459,206,-1,206,459,460,-1,206,460,207,-1,461,462,463,-1,464,465,466,-1,466,465,467,-1,466,467,186,-1,186,467,463,-1,186,463,185,-1,185,463,462,-1,185,462,468,-1,469,470,471,-1,463,472,461,-1,461,472,473,-1,461,473,474,-1,474,473,469,-1,474,469,475,-1,475,469,471,-1,476,477,17,-1,17,477,478,-1,250,17,261,-1,261,17,478,-1,261,478,472,-1,472,478,479,-1,472,479,473,-1,480,477,481,-1,481,477,476,-1,481,476,482,-1,483,484,485,-1,486,487,476,-1,476,487,488,-1,476,488,482,-1,249,248,16,-1,16,248,483,-1,16,483,17,-1,17,483,485,-1,17,485,476,-1,476,485,489,-1,476,489,490,-1,491,492,493,-1,493,492,494,-1,493,494,483,-1,483,494,495,-1,483,495,484,-1,490,496,476,-1,476,496,497,-1,476,497,486,-1,498,499,500,-1,498,500,468,-1,499,501,500,-1,500,501,502,-1,500,502,493,-1,493,502,503,-1,493,503,491,-1,404,9,402,-1,402,9,11,-1,402,11,369,-1,369,11,54,-1,369,54,367,-1,367,54,366,-1,504,505,444,-1,444,505,506,-1,507,447,26,-1,443,445,444,-1,444,445,447,-1,444,447,504,-1,504,447,507,-1,504,507,508,-1,5,444,3,-1,3,444,506,-1,3,506,26,-1,26,506,509,-1,26,509,507,-1,510,511,512,-1,511,510,513,-1,513,510,5,-1,513,5,514,-1,515,516,517,-1,517,516,513,-1,517,513,518,-1,518,513,514,-1,518,514,519,-1,519,514,520,-1,2,510,0,-1,0,510,512,-1,0,512,4,-1,4,512,521,-1,4,521,5,-1,5,521,522,-1,5,522,514,-1,7,436,8,-1,8,436,523,-1,8,523,447,-1,447,523,34,-1,447,34,26,-1,26,34,35,-1,26,35,27,-1,2,206,510,-1,510,206,208,-1,510,208,5,-1,5,208,212,-1,5,212,444,-1,444,212,452,-1,444,452,442,-1,442,452,454,-1,413,253,356,-1,356,253,261,-1,356,261,357,-1,357,261,472,-1,357,472,326,-1,326,472,463,-1,326,463,320,-1,320,463,467,-1,320,467,315,-1,315,467,465,-1,315,465,307,-1,468,500,185,-1,185,500,524,-1,185,524,174,-1,174,524,525,-1,174,525,173,-1,405,361,437,-1,437,361,343,-1,437,343,526,-1,526,343,325,-1,526,325,527,-1,527,325,324,-1,527,324,528,-1,528,324,317,-1,528,317,529,-1,529,317,312,-1,529,312,530,-1,530,312,310,-1,530,310,531,-1,532,533,465,-1,534,535,173,-1,464,181,465,-1,465,181,173,-1,465,173,532,-1,532,173,536,-1,537,538,539,-1,540,541,535,-1,535,541,542,-1,535,542,173,-1,173,542,543,-1,173,543,536,-1,311,308,309,-1,309,308,307,-1,309,307,538,-1,538,307,465,-1,538,465,539,-1,539,465,544,-1,543,545,546,-1,546,547,543,-1,543,547,548,-1,543,548,536,-1,549,550,544,-1,544,550,551,-1,544,551,552,-1,533,553,465,-1,465,553,554,-1,465,554,544,-1,544,554,555,-1,544,555,549,-1,552,556,544,-1,544,556,557,-1,544,557,543,-1,543,557,558,-1,543,558,545,-1,539,534,537,-1,537,534,173,-1,537,173,400,-1,400,173,525,-1,400,525,401,-1,401,525,524,-1,401,524,559,-1,559,524,500,-1,559,500,560,-1,560,500,493,-1,560,493,561,-1,561,493,483,-1,561,483,562,-1,562,483,248,-1,562,248,563,-1,563,248,206,-1,563,206,564,-1,564,206,2,-1,564,2,565,-1,565,2,1,-1,565,1,70,-1,70,1,80,-1,70,80,68,-1,566,567,568,-1,566,568,9,-1,9,568,569,-1,9,569,399,-1,570,571,572,-1,572,571,573,-1,572,573,9,-1,9,573,574,-1,9,574,566,-1,575,576,399,-1,399,576,577,-1,399,577,570,-1,570,577,578,-1,579,570,580,-1,580,570,578,-1,580,578,581,-1,566,571,567,-1,567,571,570,-1,567,570,582,-1,582,570,579,-1,582,579,569,-1,569,579,583,-1,569,583,399,-1,399,583,581,-1,399,581,575,-1,575,581,578,-1,584,585,403,-1,403,585,404,-1,404,585,586,-1,404,586,587,-1,588,589,590,-1,403,591,584,-1,584,591,592,-1,584,592,593,-1,593,592,594,-1,585,595,586,-1,586,595,596,-1,586,596,590,-1,590,596,597,-1,590,597,588,-1,598,599,600,-1,600,599,601,-1,602,603,570,-1,587,586,572,-1,572,586,604,-1,572,604,570,-1,570,604,605,-1,570,605,602,-1,606,607,585,-1,585,607,595,-1,608,609,610,-1,610,609,611,-1,612,599,613,-1,613,599,602,-1,614,615,613,-1,613,615,616,-1,613,616,612,-1,617,618,619,-1,619,618,620,-1,618,621,620,-1,620,621,398,-1,620,398,598,-1,598,398,397,-1,598,397,599,-1,599,397,603,-1,599,603,602,-1,572,9,587,-1,587,9,404,-1,399,570,397,-1,397,570,603,-1,
        ]
    }
}
Shape{
    appearance Appearance {
        material  Material 	{
            diffuseColor 0.5019607843137255 0.5019607843137255 0.5019607843137255
            specularColor 0.25098039215686274 0.25098039215686274 0.25098039215686274
            ambientIntensity 0.2
            transparency 0
            shininess 0.5
        }
    }
    geometry IndexedFaceSet {
        ccw TRUE
        solid FALSE
        coord DEF co Coordinate {
            point [
                -1.8424 -1.1807 0.4957, -1.8424 -1.1811 0.4957, -1.787 -1.1807 0.503, -1.787 -1.1811 0.503, -1.7353 -1.1807 0.5244, -1.7353 -1.1811 0.5244, -1.691 -1.1807 0.5584, -1.691 -1.1811 0.5584, -1.657 -1.1807 0.6027, -1.657 -1.1811 0.6027, -1.6356 -1.1807 0.6544, -1.6356 -1.1811 0.6544, -1.6283 -1.1807 0.7098, -1.6283 -1.1811 0.7098, -1.6356 -1.1807 0.7652, -1.6356 -1.1811 0.7652, -1.657 -1.1807 0.8168, -1.657 -1.1811 0.8168, -1.691 -1.1807 0.8611, -1.691 -1.1811 0.8611, -1.7353 -1.1807 0.8951, -1.7353 -1.1811 0.8951, -1.787 -1.1807 0.9165, -1.787 -1.1811 0.9165, -1.8424 -1.1807 0.9238, -1.8424 -1.1811 0.9238, -1.8977 -1.1807 0.9165, -1.8977 -1.1811 0.9165, -1.9494 -1.1807 0.8951, -1.9494 -1.1811 0.8951, -1.9937 -1.1807 0.8611, -1.9937 -1.1811 0.8611, -2.0277 -1.1807 0.8168, -2.0277 -1.1811 0.8168, -2.0491 -1.1807 0.7652, -2.0491 -1.1811 0.7652, -2.0564 -1.1807 0.7098, -2.0564 -1.1811 0.7098, -2.0491 -1.1807 0.6544, -2.0491 -1.1811 0.6544, -2.0277 -1.1807 0.6027, -2.0277 -1.1811 0.6027, -1.9937 -1.1807 0.5584, -1.9937 -1.1811 0.5584, -1.9494 -1.1807 0.5244, -1.9494 -1.1811 0.5244, -1.8977 -1.1807 0.503, -1.8977 -1.1811 0.503, -1.8424 -1.1807 0.7098, -1.8424 -1.1807 0.7098
            ]
        }
        coordIndex [
            0,1,2,-1,2,1,3,-1,2,3,4,-1,4,3,5,-1,4,5,6,-1,6,5,7,-1,6,7,8,-1,8,7,9,-1,8,9,10,-1,10,9,11,-1,10,11,12,-1,12,11,13,-1,12,13,14,-1,14,13,15,-1,14,15,16,-1,16,15,17,-1,16,17,18,-1,18,17,19,-1,18,19,20,-1,20,19,21,-1,20,21,22,-1,22,21,23,-1,22,23,24,-1,24,23,25,-1,24,25,26,-1,26,25,27,-1,26,27,28,-1,28,27,29,-1,28,29,30,-1,30,29,31,-1,30,31,32,-1,32,31,33,-1,32,33,34,-1,34,33,35,-1,34,35,36,-1,36,35,37,-1,36,37,38,-1,38,37,39,-1,38,39,40,-1,40,39,41,-1,40,41,42,-1,42,41,43,-1,42,43,44,-1,44,43,45,-1,44,45,46,-1,46,45,47,-1,46,47,0,-1,0,47,1,-1,44,46,48,-1,48,46,0,-1,48,0,2,-1,38,40,48,-1,48,40,42,-1,48,42,44,-1,32,34,48,-1,48,34,36,-1,48,36,38,-1,26,28,48,-1,48,28,30,-1,48,30,32,-1,20,22,48,-1,48,22,24,-1,48,24,26,-1,14,16,48,-1,48,16,18,-1,48,18,20,-1,8,10,48,-1,48,10,12,-1,48,12,14,-1,2,4,48,-1,48,4,6,-1,48,6,8,-1,
        ]
    }
}
Shape{
    appearance Appearance {
        material  Material 	{
            diffuseColor 1.0 1.0 1.0
            specularColor 0.5019607843137255 0.5019607843137255 0.5019607843137255
            ambientIntensity 0.2
            transparency 0
            shininess 0.5
        }
    }
    geometry IndexedFaceSet {
        ccw TRUE
        solid FALSE
        coord DEF co Coordinate {
            point [
                -0.5984 -0.8465 -1.6142, -0.5984 -0.8465 0.1969, -0.4016 -0.8465 -1.6142, -0.4016 -0.8465 0.1969, -0.5984 -0.9646 -1.6142, -0.5984 -0.9646 0.1969, -0.4016 -0.9646 -1.6142, -0.4016 -0.9646 0.1969, 0.5984 -0.8465 -1.6142, 0.5984 -0.8465 0.1969, 0.5984 -0.9646 -1.6142, 0.5984 -0.9646 0.1969, 0.4016 -0.8465 -1.6142, 0.4016 -0.8465 0.1969, 0.4016 -0.9646 -1.6142, 0.4016 -0.9646 0.1969, 1.4016 -0.8465 -1.6142, 1.4016 -0.8465 0.1969, 1.5984 -0.8465 -1.6142, 1.5984 -0.8465 0.1969, 1.4016 -0.9646 -1.6142, 1.4016 -0.9646 0.1969, 1.5984 -0.9646 -1.6142, 1.5984 -0.9646 0.1969, -1.5984 -0.9646 -1.6142, -1.5984 -0.9646 0.1969, -1.5984 -0.8465 -1.6142, -1.5984 -0.8465 0.1969, -1.4016 -0.9646 -1.6142, -1.4016 -0.9646 0.1969, -1.4016 -0.8465 -1.6142, -1.4016 -0.8465 0.1969, -1.4016 -0.8465 0.1969
            ]
        }
        coordIndex [
            0,1,2,-1,2,1,3,-1,4,5,0,-1,0,5,1,-1,6,7,4,-1,4,7,5,-1,2,3,6,-1,6,3,7,-1,0,2,4,-1,4,2,6,-1,8,9,10,-1,10,9,11,-1,12,13,8,-1,8,13,9,-1,14,15,12,-1,12,15,13,-1,10,11,14,-1,14,11,15,-1,8,10,12,-1,12,10,14,-1,16,17,18,-1,18,17,19,-1,20,21,16,-1,16,21,17,-1,22,23,20,-1,20,23,21,-1,18,19,22,-1,22,19,23,-1,16,18,20,-1,20,18,22,-1,24,25,26,-1,26,25,27,-1,28,29,24,-1,24,29,25,-1,30,31,28,-1,28,31,29,-1,26,27,30,-1,30,27,31,-1,24,26,28,-1,28,26,30,-1,
        ]
    }
}
Shape{
    appearance Appearance {
        material  Material 	{
            diffuseColor 0.2235294117647059 0.2235294117647059 0.2235294117647059
            specularColor 0.11372549019607843 0.11372549019607843 0.11372549019607843
            ambientIntensity 0.2
            transparency 0
            shininess 0.5
        }
    }
    geometry IndexedFaceSet {
        ccw TRUE
        solid FALSE
        coord DEF co Coordinate {
            point [
                -2.1654 1.1811 3.8386, -2.1654 1.1811 0.0, -2.1908 1.1777 0.0, -2.1908 1.1777 3.8386, -2.2146 1.1679 0.0, -2.2146 1.1679 3.8386, -2.235 1.1523 0.0, -2.235 1.1523 3.8386, -2.2506 1.1319 0.0, -2.2506 1.1319 3.8386, -2.2604 1.1082 0.0, -2.2604 1.1082 3.8386, -2.2638 1.0827 0.0, -2.2638 1.0827 3.8386, -2.1654 1.0827 3.937, 2.1654 1.0827 3.937, 2.1654 1.1082 3.9337, -2.1654 1.1082 3.9337, 2.1654 1.1319 3.9238, -2.1654 1.1319 3.9238, 2.1654 1.1523 3.9082, -2.1654 1.1523 3.9082, 2.1654 1.1679 3.8878, -2.1654 1.1679 3.8878, 2.1654 1.1777 3.8641, -2.1654 1.1777 3.8641, 2.1654 1.1811 3.8386, 2.2638 1.0827 3.8386, 2.2638 1.0827 0.0, 2.2604 1.1082 0.0, 2.2604 1.1082 3.8386, 2.2506 1.1319 0.0, 2.2506 1.1319 3.8386, 2.235 1.1523 0.0, 2.235 1.1523 3.8386, 2.2146 1.1679 0.0, 2.2146 1.1679 3.8386, 2.1908 1.1777 0.0, 2.1908 1.1777 3.8386, 2.1654 1.1811 0.0, -2.2604 1.0827 3.8641, -2.2572 1.1073 3.8641, -2.208 1.1073 3.9238, -2.1874 1.0954 3.9337, -2.1834 1.1007 3.9337, -2.1719 1.1073 3.9337, -2.19 1.0893 3.9337, -2.2129 1.0954 3.9238, -2.2326 1.1007 3.9082, -2.1908 1.0827 3.9337, -2.2002 1.1175 3.9238, -2.1781 1.1047 3.9337, -2.19 1.1253 3.9238, -2.1781 1.1302 3.9238, -2.2146 1.0827 3.9238, -2.235 1.0827 3.9082, -2.2506 1.0827 3.8878, -2.2256 1.1175 3.9082, -2.2146 1.1319 3.9082, -2.2002 1.143 3.9082, -2.1834 1.1499 3.9082, -2.2477 1.1047 3.8878, -2.2392 1.1253 3.8878, -2.2256 1.143 3.8878, -2.208 1.1565 3.8878, -2.1874 1.165 3.8878, -2.2477 1.1302 3.8641, -2.2326 1.1499 3.8641, -2.2129 1.165 3.8641, -2.19 1.1745 3.8641, 2.19 1.1745 3.8641, 2.19 1.1253 3.9238, 2.1781 1.1047 3.9337, 2.1834 1.1007 3.9337, 2.1908 1.0827 3.9337, 2.19 1.0893 3.9337, 2.1719 1.1073 3.9337, 2.1781 1.1302 3.9238, 2.1834 1.1499 3.9082, 2.2002 1.1175 3.9238, 2.1874 1.0954 3.9337, 2.208 1.1073 3.9238, 2.2129 1.0954 3.9238, 2.2146 1.0827 3.9238, 2.2002 1.143 3.9082, 2.2146 1.1319 3.9082, 2.2256 1.1175 3.9082, 2.2326 1.1007 3.9082, 2.235 1.0827 3.9082, 2.1874 1.165 3.8878, 2.208 1.1565 3.8878, 2.2256 1.143 3.8878, 2.2392 1.1253 3.8878, 2.2477 1.1047 3.8878, 2.2506 1.0827 3.8878, 2.2129 1.165 3.8641, 2.2326 1.1499 3.8641, 2.2477 1.1302 3.8641, 2.2572 1.1073 3.8641, 2.2604 1.0827 3.8641, -2.2638 -1.0827 3.8386, -2.2638 -1.0827 0.0, -2.2604 -1.1082 0.0, -2.2604 -1.1082 3.8386, -2.2506 -1.1319 0.0, -2.2506 -1.1319 3.8386, -2.235 -1.1523 0.0, -2.235 -1.1523 3.8386, -2.2146 -1.1679 0.0, -2.2146 -1.1679 3.8386, -2.1908 -1.1777 0.0, -2.1908 -1.1777 3.8386, -2.1654 -1.1811 0.0, -2.1654 -1.1811 3.8386, -2.1654 -1.0827 3.937, -2.1908 -1.0827 3.9337, -2.2146 -1.0827 3.9238, -2.235 -1.0827 3.9082, -2.2506 -1.0827 3.8878, -2.2604 -1.0827 3.8641, 2.1654 -1.0827 3.937, 2.1908 -1.0827 3.9337, 2.2146 -1.0827 3.9238, 2.235 -1.0827 3.9082, 2.2506 -1.0827 3.8878, 2.2604 -1.0827 3.8641, 2.2638 -1.0827 3.8386, 2.1654 -1.1811 3.8386, 2.1654 -1.1811 0.0, 2.1908 -1.1777 0.0, 2.1908 -1.1777 3.8386, 2.2146 -1.1679 0.0, 2.2146 -1.1679 3.8386, 2.235 -1.1523 0.0, 2.235 -1.1523 3.8386, 2.2506 -1.1319 0.0, 2.2506 -1.1319 3.8386, 2.2604 -1.1082 0.0, 2.2604 -1.1082 3.8386, 2.2638 -1.0827 0.0, -2.1654 -1.1777 3.8641, -2.19 -1.1745 3.8641, -2.19 -1.1253 3.9238, -2.1781 -1.1047 3.9337, -2.1834 -1.1007 3.9337, -2.19 -1.0893 3.9337, -2.1719 -1.1073 3.9337, -2.1781 -1.1302 3.9238, -2.1834 -1.1499 3.9082, -2.1654 -1.1082 3.9337, -2.2002 -1.1175 3.9238, -2.1874 -1.0954 3.9337, -2.208 -1.1073 3.9238, -2.2129 -1.0954 3.9238, -2.1654 -1.1319 3.9238, -2.1654 -1.1523 3.9082, -2.1654 -1.1679 3.8878, -2.2002 -1.143 3.9082, -2.2146 -1.1319 3.9082, -2.2256 -1.1175 3.9082, -2.2326 -1.1007 3.9082, -2.1874 -1.165 3.8878, -2.208 -1.1565 3.8878, -2.2256 -1.143 3.8878, -2.2392 -1.1253 3.8878, -2.2477 -1.1047 3.8878, -2.2129 -1.165 3.8641, -2.2326 -1.1499 3.8641, -2.2477 -1.1302 3.8641, -2.2572 -1.1073 3.8641, 2.2572 -1.1073 3.8641, 2.208 -1.1073 3.9238, 2.1874 -1.0954 3.9337, 2.1834 -1.1007 3.9337, 2.1654 -1.1082 3.9337, 2.1719 -1.1073 3.9337, 2.19 -1.0893 3.9337, 2.2129 -1.0954 3.9238, 2.2326 -1.1007 3.9082, 2.2002 -1.1175 3.9238, 2.1781 -1.1047 3.9337, 2.19 -1.1253 3.9238, 2.1781 -1.1302 3.9238, 2.1654 -1.1319 3.9238, 2.2256 -1.1175 3.9082, 2.2146 -1.1319 3.9082, 2.2002 -1.143 3.9082, 2.1834 -1.1499 3.9082, 2.1654 -1.1523 3.9082, 2.2477 -1.1047 3.8878, 2.2392 -1.1253 3.8878, 2.2256 -1.143 3.8878, 2.208 -1.1565 3.8878, 2.1874 -1.165 3.8878, 2.1654 -1.1679 3.8878, 2.2477 -1.1302 3.8641, 2.2326 -1.1499 3.8641, 2.2129 -1.165 3.8641, 2.19 -1.1745 3.8641, 2.1654 -1.1777 3.8641, 2.1654 -1.1777 3.8641
            ]
        }
        coordIndex [
            0,1,2,-1,0,2,3,-1,3,2,4,-1,3,4,5,-1,5,4,6,-1,5,6,7,-1,7,6,8,-1,7,8,9,-1,9,8,10,-1,9,10,11,-1,11,10,12,-1,11,12,13,-1,14,15,16,-1,14,16,17,-1,17,16,18,-1,17,18,19,-1,19,18,20,-1,19,20,21,-1,21,20,22,-1,21,22,23,-1,23,22,24,-1,23,24,25,-1,25,24,26,-1,25,26,0,-1,27,28,29,-1,27,29,30,-1,30,29,31,-1,30,31,32,-1,32,31,33,-1,32,33,34,-1,34,33,35,-1,34,35,36,-1,36,35,37,-1,36,37,38,-1,38,37,39,-1,38,39,26,-1,13,40,41,-1,42,43,44,-1,14,17,45,-1,44,43,14,-1,46,14,43,-1,46,43,47,-1,47,43,42,-1,47,42,48,-1,49,14,46,-1,50,51,52,-1,52,51,45,-1,52,45,53,-1,53,45,17,-1,53,17,19,-1,49,46,54,-1,54,46,47,-1,54,47,55,-1,55,47,48,-1,55,48,56,-1,57,50,58,-1,58,50,52,-1,58,52,59,-1,59,52,53,-1,59,53,60,-1,60,53,19,-1,60,19,21,-1,61,57,62,-1,62,57,58,-1,62,58,63,-1,63,58,59,-1,63,59,64,-1,64,59,60,-1,64,60,65,-1,65,60,21,-1,65,21,23,-1,40,61,41,-1,41,61,62,-1,41,62,66,-1,66,62,63,-1,66,63,67,-1,67,63,64,-1,67,64,68,-1,68,64,65,-1,68,65,69,-1,69,65,23,-1,69,23,25,-1,13,41,11,-1,11,41,66,-1,11,66,9,-1,9,66,67,-1,9,67,7,-1,7,67,68,-1,7,68,5,-1,5,68,69,-1,5,69,3,-1,3,69,25,-1,3,25,0,-1,51,14,45,-1,40,56,61,-1,61,56,48,-1,61,48,57,-1,57,48,42,-1,57,42,50,-1,50,42,44,-1,50,44,51,-1,51,44,14,-1,26,24,70,-1,71,72,73,-1,15,74,75,-1,73,72,15,-1,76,15,72,-1,76,72,77,-1,77,72,71,-1,77,71,78,-1,16,15,76,-1,79,80,81,-1,81,80,75,-1,81,75,82,-1,82,75,74,-1,82,74,83,-1,16,76,18,-1,18,76,77,-1,18,77,20,-1,20,77,78,-1,20,78,22,-1,84,79,85,-1,85,79,81,-1,85,81,86,-1,86,81,82,-1,86,82,87,-1,87,82,83,-1,87,83,88,-1,89,84,90,-1,90,84,85,-1,90,85,91,-1,91,85,86,-1,91,86,92,-1,92,86,87,-1,92,87,93,-1,93,87,88,-1,93,88,94,-1,24,89,70,-1,70,89,90,-1,70,90,95,-1,95,90,91,-1,95,91,96,-1,96,91,92,-1,96,92,97,-1,97,92,93,-1,97,93,98,-1,98,93,94,-1,98,94,99,-1,26,70,38,-1,38,70,95,-1,38,95,36,-1,36,95,96,-1,36,96,34,-1,34,96,97,-1,34,97,32,-1,32,97,98,-1,32,98,30,-1,30,98,99,-1,30,99,27,-1,80,15,75,-1,24,22,89,-1,89,22,78,-1,89,78,84,-1,84,78,71,-1,84,71,79,-1,79,71,73,-1,79,73,80,-1,80,73,15,-1,100,101,102,-1,100,102,103,-1,103,102,104,-1,103,104,105,-1,105,104,106,-1,105,106,107,-1,107,106,108,-1,107,108,109,-1,109,108,110,-1,109,110,111,-1,111,110,112,-1,111,112,113,-1,114,14,49,-1,114,49,115,-1,115,49,54,-1,115,54,116,-1,116,54,55,-1,116,55,117,-1,117,55,56,-1,117,56,118,-1,118,56,40,-1,118,40,119,-1,119,40,13,-1,119,13,100,-1,15,120,121,-1,15,121,74,-1,74,121,122,-1,74,122,83,-1,83,122,123,-1,83,123,88,-1,88,123,124,-1,88,124,94,-1,94,124,125,-1,94,125,99,-1,99,125,126,-1,99,126,27,-1,127,128,129,-1,127,129,130,-1,130,129,131,-1,130,131,132,-1,132,131,133,-1,132,133,134,-1,134,133,135,-1,134,135,136,-1,136,135,137,-1,136,137,138,-1,138,137,139,-1,138,139,126,-1,113,140,141,-1,142,143,144,-1,114,115,145,-1,144,143,114,-1,146,114,143,-1,146,143,147,-1,147,143,142,-1,147,142,148,-1,149,114,146,-1,150,151,152,-1,152,151,145,-1,152,145,153,-1,153,145,115,-1,153,115,116,-1,149,146,154,-1,154,146,147,-1,154,147,155,-1,155,147,148,-1,155,148,156,-1,157,150,158,-1,158,150,152,-1,158,152,159,-1,159,152,153,-1,159,153,160,-1,160,153,116,-1,160,116,117,-1,161,157,162,-1,162,157,158,-1,162,158,163,-1,163,158,159,-1,163,159,164,-1,164,159,160,-1,164,160,165,-1,165,160,117,-1,165,117,118,-1,140,161,141,-1,141,161,162,-1,141,162,166,-1,166,162,163,-1,166,163,167,-1,167,163,164,-1,167,164,168,-1,168,164,165,-1,168,165,169,-1,169,165,118,-1,169,118,119,-1,113,141,111,-1,111,141,166,-1,111,166,109,-1,109,166,167,-1,109,167,107,-1,107,167,168,-1,107,168,105,-1,105,168,169,-1,105,169,103,-1,103,169,119,-1,103,119,100,-1,151,114,145,-1,140,156,161,-1,161,156,148,-1,161,148,157,-1,157,148,142,-1,157,142,150,-1,150,142,144,-1,150,144,151,-1,151,144,114,-1,126,125,170,-1,171,172,173,-1,120,174,175,-1,173,172,120,-1,176,120,172,-1,176,172,177,-1,177,172,171,-1,177,171,178,-1,121,120,176,-1,179,180,181,-1,181,180,175,-1,181,175,182,-1,182,175,174,-1,182,174,183,-1,121,176,122,-1,122,176,177,-1,122,177,123,-1,123,177,178,-1,123,178,124,-1,184,179,185,-1,185,179,181,-1,185,181,186,-1,186,181,182,-1,186,182,187,-1,187,182,183,-1,187,183,188,-1,189,184,190,-1,190,184,185,-1,190,185,191,-1,191,185,186,-1,191,186,192,-1,192,186,187,-1,192,187,193,-1,193,187,188,-1,193,188,194,-1,125,189,170,-1,170,189,190,-1,170,190,195,-1,195,190,191,-1,195,191,196,-1,196,191,192,-1,196,192,197,-1,197,192,193,-1,197,193,198,-1,198,193,194,-1,198,194,199,-1,126,170,138,-1,138,170,195,-1,138,195,136,-1,136,195,196,-1,136,196,134,-1,134,196,197,-1,134,197,132,-1,132,197,198,-1,132,198,130,-1,130,198,199,-1,130,199,127,-1,180,120,175,-1,125,124,189,-1,189,124,178,-1,189,178,184,-1,184,178,171,-1,184,171,179,-1,179,171,173,-1,179,173,180,-1,180,173,120,-1,120,114,149,-1,120,149,174,-1,174,149,154,-1,174,154,183,-1,183,154,155,-1,183,155,188,-1,188,155,156,-1,188,156,194,-1,194,156,140,-1,194,140,199,-1,199,140,113,-1,199,113,127,-1,
        ]
    }
}
Shape{
    appearance Appearance {
        material  Material 	{
            diffuseColor 1.0 1.0 1.0
            specularColor 0.5019607843137255 0.5019607843137255 0.5019607843137255
            ambientIntensity 0.2
            transparency 0
            shininess 0.5
        }
    }
    geometry IndexedFaceSet {
        ccw TRUE
        solid FALSE
        coord DEF co Coordinate {
            point [
                1.2299 -1.185 0.6928, 1.2299 -1.185 0.6776, 1.2299 -1.1811 0.6928, 1.2299 -1.1811 0.6776, 1.1767 -1.185 0.6928, 1.1767 -1.1811 0.6928, 1.1767 -1.185 0.8111, 1.1767 -1.1811 0.8111, 1.1595 -1.185 0.8111, 1.1595 -1.1811 0.8111, 1.1595 -1.185 0.6776, 1.1595 -1.1811 0.6776, 1.2983 -1.185 0.6754, 1.2983 -1.1811 0.6754, 1.3186 -1.185 0.6773, 1.3101 -1.1811 0.6765, 1.3186 -1.1811 0.6773, 1.333 -1.1811 0.682, 1.333 -1.185 0.682, 1.3352 -1.1811 0.6832, 1.3352 -1.185 0.6832, 1.3352 -1.185 0.6997, 1.3352 -1.1811 0.6997, 1.3221 -1.1811 0.6938, 1.3221 -1.185 0.6938, 1.307 -1.1811 0.691, 1.307 -1.185 0.691, 1.3008 -1.1811 0.6907, 1.3008 -1.185 0.6907, 1.2874 -1.1811 0.6923, 1.2874 -1.185 0.6923, 1.2779 -1.1811 0.696, 1.2779 -1.185 0.696, 1.2692 -1.1811 0.7022, 1.2692 -1.185 0.7022, 1.2665 -1.1811 0.7048, 1.2665 -1.185 0.7048, 1.2606 -1.1811 0.7128, 1.2606 -1.185 0.7128, 1.256 -1.1811 0.7234, 1.256 -1.185 0.7234, 1.2536 -1.1811 0.7364, 1.2536 -1.185 0.7364, 1.2534 -1.1811 0.7429, 1.2534 -1.185 0.7429, 1.2556 -1.1811 0.7612, 1.2556 -1.185 0.7612, 1.2601 -1.1811 0.7727, 1.2601 -1.185 0.7727, 1.2665 -1.1811 0.782, 1.2665 -1.185 0.782, 1.2674 -1.1811 0.783, 1.2674 -1.185 0.783, 1.2753 -1.1811 0.7897, 1.2753 -1.185 0.7897, 1.2857 -1.1811 0.7949, 1.2857 -1.185 0.7949, 1.2971 -1.1811 0.7974, 1.2971 -1.185 0.7974, 1.3038 -1.1811 0.7978, 1.3038 -1.185 0.7978, 1.3202 -1.1811 0.7958, 1.3202 -1.185 0.7958, 1.3337 -1.1811 0.7907, 1.3337 -1.185 0.7907, 1.3352 -1.1811 0.7899, 1.3352 -1.185 0.7899, 1.3352 -1.185 0.8079, 1.3352 -1.1811 0.8079, 1.3036 -1.1811 0.8133, 1.3036 -1.185 0.8133, 1.3179 -1.1811 0.8122, 1.3211 -1.185 0.812, 1.3211 -1.1811 0.812, 1.2944 -1.1811 0.8122, 1.2843 -1.185 0.811, 1.2843 -1.1811 0.811, 1.2704 -1.1811 0.8056, 1.2704 -1.185 0.8056, 1.2579 -1.1811 0.7968, 1.2579 -1.185 0.7968, 1.2546 -1.1811 0.7937, 1.2546 -1.185 0.7937, 1.2449 -1.1811 0.781, 1.2413 -1.1811 0.7726, 1.2386 -1.185 0.7662, 1.2449 -1.185 0.781, 1.2386 -1.1811 0.7662, 1.2355 -1.1811 0.7488, 1.2355 -1.185 0.7488, 1.2353 -1.1811 0.7418, 1.2353 -1.185 0.7418, 1.238 -1.1811 0.7201, 1.2413 -1.1811 0.7116, 1.2434 -1.185 0.7062, 1.238 -1.185 0.7201, 1.2434 -1.1811 0.7062, 1.2514 -1.1811 0.6948, 1.2514 -1.185 0.6948, 1.2524 -1.1811 0.6936, 1.2524 -1.185 0.6936, 1.2758 -1.1811 0.6787, 1.2632 -1.185 0.6847, 1.2632 -1.1811 0.6847, 1.2866 -1.1811 0.6765, 1.2902 -1.185 0.6758, 1.2758 -1.185 0.6787, 1.2902 -1.1811 0.6758, 1.4337 -1.185 0.6928, 1.4337 -1.185 0.6776, 1.4337 -1.1811 0.6928, 1.4337 -1.1811 0.6776, 1.3792 -1.1811 0.6928, 1.3792 -1.185 0.6928, 1.4152 -1.1811 0.6928, 1.3792 -1.185 0.7377, 1.3792 -1.1811 0.7377, 1.4269 -1.185 0.7377, 1.4152 -1.1811 0.7377, 1.4269 -1.1811 0.7377, 1.4269 -1.185 0.753, 1.4269 -1.1811 0.753, 1.3792 -1.1811 0.753, 1.3792 -1.185 0.753, 1.4152 -1.1811 0.753, 1.3792 -1.185 0.7957, 1.3792 -1.1811 0.7957, 1.4307 -1.1811 0.7957, 1.4307 -1.185 0.7957, 1.4152 -1.1811 0.7957, 1.4307 -1.185 0.8111, 1.4307 -1.1811 0.8111, 1.3619 -1.1811 0.8111, 1.3619 -1.185 0.8111, 1.4152 -1.1811 0.8111, 1.3619 -1.185 0.6776, 1.3619 -1.1811 0.6776, 1.4152 -1.1811 0.6776, 1.5474 -1.185 0.6963, 1.5337 -1.185 0.7053, 1.5335 -1.185 0.6863, 1.5251 -1.185 0.6993, 1.5183 -1.185 0.6804, 1.514 -1.185 0.6951, 1.4956 -1.185 0.6776, 1.4955 -1.185 0.6928, 1.4589 -1.185 0.6776, 1.4761 -1.185 0.6928, 1.4589 -1.185 0.8111, 1.4761 -1.185 0.7957, 1.497 -1.185 0.8111, 1.4963 -1.185 0.7957, 1.4982 -1.185 0.7957, 1.5174 -1.185 0.8088, 1.5151 -1.185 0.7934, 1.5335 -1.185 0.803, 1.5264 -1.185 0.789, 1.5474 -1.185 0.7934, 1.5348 -1.185 0.7832, 1.5521 -1.185 0.7888, 1.5385 -1.185 0.7795, 1.5604 -1.185 0.7772, 1.5437 -1.185 0.7721, 1.5653 -1.185 0.7645, 1.5475 -1.185 0.7623, 1.5676 -1.185 0.7461, 1.5495 -1.185 0.7456, 1.5672 -1.185 0.7376, 1.5489 -1.185 0.736, 1.5639 -1.185 0.7219, 1.5461 -1.185 0.724, 1.5574 -1.185 0.7081, 1.5414 -1.185 0.7143, 1.5352 -1.185 0.7068, 1.4956 -1.1811 0.6776, 1.4589 -1.1811 0.6776, 1.5474 -1.1811 0.6963, 1.5183 -1.1811 0.6804, 1.5201 -1.1811 0.6811, 1.5335 -1.1811 0.6863, 1.5574 -1.1811 0.7081, 1.5639 -1.1811 0.7219, 1.5672 -1.1811 0.7376, 1.5676 -1.1811 0.7461, 1.5653 -1.1811 0.7645, 1.5604 -1.1811 0.7772, 1.5521 -1.1811 0.7888, 1.5474 -1.1811 0.7934, 1.5335 -1.1811 0.803, 1.5201 -1.1811 0.8079, 1.5174 -1.1811 0.8088, 1.497 -1.1811 0.8111, 1.4589 -1.1811 0.8111, 1.4963 -1.1811 0.7957, 1.4761 -1.1811 0.7957, 1.4761 -1.1811 0.6928, 1.4955 -1.1811 0.6928, 1.5352 -1.1811 0.7068, 1.5337 -1.1811 0.7053, 1.5251 -1.1811 0.6993, 1.514 -1.1811 0.6951, 1.5495 -1.1811 0.7456, 1.5489 -1.1811 0.736, 1.5461 -1.1811 0.724, 1.5414 -1.1811 0.7143, 1.5348 -1.1811 0.7832, 1.5385 -1.1811 0.7795, 1.5437 -1.1811 0.7721, 1.5475 -1.1811 0.7623, 1.4982 -1.1811 0.7957, 1.5151 -1.1811 0.7934, 1.5264 -1.1811 0.789, 1.5264 -1.1811 0.789
            ]
        }
        coordIndex [
            0,1,2,-1,2,1,3,-1,4,0,5,-1,5,0,2,-1,6,4,7,-1,7,4,5,-1,8,6,9,-1,9,6,7,-1,10,8,11,-1,11,8,9,-1,1,10,3,-1,3,10,11,-1,6,8,4,-1,4,8,10,-1,4,10,0,-1,0,10,1,-1,12,13,14,-1,14,13,15,-1,15,16,14,-1,14,16,17,-1,14,17,18,-1,18,17,19,-1,18,19,20,-1,21,20,22,-1,22,20,19,-1,21,22,23,-1,21,23,24,-1,24,23,25,-1,24,25,26,-1,26,25,27,-1,26,27,28,-1,28,27,29,-1,28,29,30,-1,30,29,31,-1,30,31,32,-1,32,31,33,-1,32,33,34,-1,34,33,35,-1,34,35,36,-1,36,35,37,-1,36,37,38,-1,38,37,39,-1,38,39,40,-1,40,39,41,-1,40,41,42,-1,42,41,43,-1,42,43,44,-1,44,43,45,-1,44,45,46,-1,46,45,47,-1,46,47,48,-1,48,47,49,-1,48,49,50,-1,50,49,51,-1,50,51,52,-1,52,51,53,-1,52,53,54,-1,54,53,55,-1,54,55,56,-1,56,55,57,-1,56,57,58,-1,58,57,59,-1,58,59,60,-1,60,59,61,-1,60,61,62,-1,62,61,63,-1,62,63,64,-1,64,63,65,-1,64,65,66,-1,67,66,68,-1,68,66,65,-1,69,70,71,-1,71,70,72,-1,71,72,73,-1,73,72,67,-1,73,67,68,-1,70,69,74,-1,70,74,75,-1,74,76,75,-1,75,76,77,-1,75,77,78,-1,78,77,79,-1,78,79,80,-1,80,79,81,-1,80,81,82,-1,82,81,83,-1,84,85,83,-1,83,85,86,-1,83,86,82,-1,84,87,85,-1,85,87,88,-1,85,88,89,-1,89,88,90,-1,89,90,91,-1,91,90,92,-1,93,94,92,-1,92,94,95,-1,92,95,91,-1,93,96,94,-1,94,96,97,-1,94,97,98,-1,98,97,99,-1,98,99,100,-1,101,102,103,-1,103,102,100,-1,103,100,99,-1,104,105,101,-1,101,105,106,-1,101,106,102,-1,104,107,105,-1,105,107,13,-1,105,13,12,-1,54,56,75,-1,46,48,86,-1,86,48,82,-1,75,56,70,-1,56,58,70,-1,70,58,60,-1,70,60,72,-1,72,60,62,-1,72,62,67,-1,67,62,64,-1,67,64,66,-1,20,21,18,-1,18,21,24,-1,18,24,14,-1,14,24,26,-1,14,26,12,-1,12,26,28,-1,12,28,105,-1,105,28,30,-1,105,30,106,-1,106,30,32,-1,106,32,102,-1,102,32,34,-1,102,34,100,-1,100,34,36,-1,100,36,98,-1,98,36,38,-1,98,38,94,-1,91,44,89,-1,89,44,46,-1,89,46,85,-1,85,46,86,-1,48,50,82,-1,82,50,52,-1,82,52,80,-1,80,52,54,-1,80,54,78,-1,78,54,75,-1,94,38,95,-1,95,38,40,-1,95,40,91,-1,91,40,42,-1,91,42,44,-1,108,109,110,-1,110,109,111,-1,112,113,114,-1,114,113,108,-1,114,108,110,-1,115,113,116,-1,116,113,112,-1,115,116,117,-1,117,116,118,-1,117,118,119,-1,120,117,121,-1,121,117,119,-1,122,123,124,-1,124,123,120,-1,124,120,121,-1,125,123,126,-1,126,123,122,-1,127,128,129,-1,129,128,125,-1,129,125,126,-1,130,128,131,-1,131,128,127,-1,132,133,134,-1,134,133,130,-1,134,130,131,-1,135,133,136,-1,136,133,132,-1,111,109,137,-1,137,109,135,-1,137,135,136,-1,135,109,108,-1,108,113,135,-1,135,113,115,-1,135,115,133,-1,128,130,125,-1,125,130,133,-1,125,133,123,-1,123,133,115,-1,123,115,120,-1,120,115,117,-1,138,139,140,-1,140,139,141,-1,140,141,142,-1,142,141,143,-1,142,143,144,-1,144,143,145,-1,144,145,146,-1,146,145,147,-1,146,147,148,-1,148,147,149,-1,148,149,150,-1,149,151,150,-1,150,151,152,-1,150,152,153,-1,153,152,154,-1,153,154,155,-1,155,154,156,-1,155,156,157,-1,157,156,158,-1,157,158,159,-1,159,158,160,-1,159,160,161,-1,161,160,162,-1,161,162,163,-1,163,162,164,-1,163,164,165,-1,165,164,166,-1,165,166,167,-1,167,166,168,-1,167,168,169,-1,169,168,170,-1,169,170,171,-1,171,170,172,-1,171,172,138,-1,138,172,173,-1,138,173,139,-1,144,146,174,-1,174,146,175,-1,176,138,140,-1,144,174,177,-1,144,177,142,-1,142,177,178,-1,142,178,140,-1,140,178,179,-1,140,179,176,-1,138,176,180,-1,138,180,171,-1,171,180,181,-1,171,181,169,-1,169,181,182,-1,169,182,167,-1,167,182,183,-1,167,183,165,-1,165,183,184,-1,165,184,163,-1,163,184,185,-1,163,185,161,-1,161,185,186,-1,161,186,159,-1,159,186,187,-1,159,187,157,-1,157,187,188,-1,189,153,188,-1,188,153,155,-1,188,155,157,-1,189,190,153,-1,153,190,191,-1,153,191,150,-1,148,150,192,-1,192,150,191,-1,146,148,175,-1,175,148,192,-1,151,149,193,-1,193,149,194,-1,149,147,194,-1,194,147,195,-1,147,145,195,-1,195,145,196,-1,173,197,198,-1,173,198,139,-1,139,198,199,-1,139,199,141,-1,141,199,200,-1,141,200,143,-1,143,200,196,-1,143,196,145,-1,166,201,202,-1,166,202,168,-1,168,202,203,-1,168,203,170,-1,170,203,204,-1,170,204,172,-1,172,204,197,-1,172,197,173,-1,158,205,206,-1,158,206,160,-1,160,206,207,-1,160,207,162,-1,162,207,208,-1,162,208,164,-1,164,208,201,-1,164,201,166,-1,151,193,209,-1,151,209,152,-1,152,209,210,-1,152,210,154,-1,154,210,211,-1,154,211,156,-1,156,211,205,-1,156,205,158,-1,
        ]
    }
}
Shape{
    appearance Appearance {
        material  Material 	{
            diffuseColor 0.2235294117647059 0.2235294117647059 0.2235294117647059
            specularColor 0.11372549019607843 0.11372549019607843 0.11372549019607843
            ambientIntensity 0.2
            transparency 0
            shininess 0.5
        }
    }
    geometry IndexedFaceSet {
        ccw TRUE
        solid FALSE
        coord DEF co Coordinate {
            point [
                1.4761 -1.1811 0.7957, 1.4761 -1.1811 0.6928, 1.4963 -1.1811 0.7957, 1.4955 -1.1811 0.6928, 1.4982 -1.1811 0.7957, 1.514 -1.1811 0.6951, 1.5251 -1.1811 0.6993, 1.5337 -1.1811 0.7053, 1.5352 -1.1811 0.7068, 1.5414 -1.1811 0.7143, 1.5495 -1.1811 0.7456, 1.5348 -1.1811 0.7832, 1.5489 -1.1811 0.736, 1.5264 -1.1811 0.789, 1.5461 -1.1811 0.724, 1.5151 -1.1811 0.7934, 1.5475 -1.1811 0.7623, 1.5437 -1.1811 0.7721, 1.5385 -1.1811 0.7795, 1.5385 -1.1811 0.7795
            ]
        }
        coordIndex [
            0,1,2,-1,2,1,3,-1,2,3,4,-1,4,3,5,-1,4,5,6,-1,6,7,4,-1,4,7,8,-1,4,8,9,-1,10,11,12,-1,12,11,13,-1,9,14,4,-1,4,14,12,-1,4,12,15,-1,15,12,13,-1,16,17,10,-1,10,17,18,-1,10,18,11,-1,
        ]
    }
}
Shape{
    appearance Appearance {
        material  Material 	{
            diffuseColor 1.0 1.0 1.0
            specularColor 0.5019607843137255 0.5019607843137255 0.5019607843137255
            ambientIntensity 0.2
            transparency 0
            shininess 0.5
        }
    }
    geometry IndexedFaceSet {
        ccw TRUE
        solid FALSE
        coord DEF co Coordinate {
            point [
                1.6123 -1.185 0.7292, 1.6068 -1.185 0.7141, 1.6571 -1.185 0.7292, 1.6624 -1.185 0.7141, 1.6322 -1.185 0.7847, 1.6258 -1.185 0.8111, 1.575 -1.185 0.6776, 1.594 -1.185 0.6776, 1.6334 -1.185 0.7887, 1.6344 -1.185 0.794, 1.6442 -1.185 0.8111, 1.6348 -1.185 0.794, 1.6359 -1.185 0.7884, 1.6369 -1.185 0.7847, 1.6951 -1.185 0.6776, 1.676 -1.185 0.6776, 1.6442 -1.1811 0.8111, 1.6951 -1.1811 0.6776, 1.6258 -1.1811 0.8111, 1.575 -1.1811 0.6776, 1.6134 -1.1811 0.7786, 1.594 -1.1811 0.6776, 1.6068 -1.1811 0.7141, 1.6624 -1.1811 0.7141, 1.6134 -1.1811 0.7141, 1.676 -1.1811 0.6776, 1.6123 -1.1811 0.7292, 1.6571 -1.1811 0.7292, 1.6369 -1.1811 0.7847, 1.6348 -1.1811 0.794, 1.6359 -1.1811 0.7884, 1.6344 -1.1811 0.794, 1.6322 -1.1811 0.7847, 1.6334 -1.1811 0.7887, 1.6334 -1.1811 0.7887
            ]
        }
        coordIndex [
            0,1,2,-1,2,1,3,-1,4,5,0,-1,0,5,6,-1,0,6,1,-1,1,6,7,-1,4,8,5,-1,5,8,9,-1,5,9,10,-1,10,9,11,-1,10,11,12,-1,12,13,10,-1,10,13,2,-1,10,2,14,-1,14,2,3,-1,14,3,15,-1,10,14,16,-1,16,14,17,-1,5,10,18,-1,18,10,16,-1,19,6,20,-1,20,6,5,-1,20,5,18,-1,7,6,21,-1,21,6,19,-1,1,7,22,-1,22,7,21,-1,23,3,24,-1,24,3,1,-1,24,1,22,-1,15,3,25,-1,25,3,23,-1,14,15,17,-1,17,15,25,-1,0,2,26,-1,26,2,27,-1,2,13,27,-1,27,13,28,-1,11,29,30,-1,11,30,12,-1,12,30,28,-1,12,28,13,-1,11,9,29,-1,29,9,31,-1,4,32,33,-1,4,33,8,-1,8,33,31,-1,8,31,9,-1,4,0,32,-1,32,0,26,-1,
        ]
    }
}
Shape{
    appearance Appearance {
        material  Material 	{
            diffuseColor 0.2235294117647059 0.2235294117647059 0.2235294117647059
            specularColor 0.11372549019607843 0.11372549019607843 0.11372549019607843
            ambientIntensity 0.2
            transparency 0
            shininess 0.5
        }
    }
    geometry IndexedFaceSet {
        ccw TRUE
        solid FALSE
        coord DEF co Coordinate {
            point [
                1.6348 -1.1811 0.794, 1.6344 -1.1811 0.794, 1.6359 -1.1811 0.7884, 1.6334 -1.1811 0.7887, 1.6369 -1.1811 0.7847, 1.6322 -1.1811 0.7847, 1.6571 -1.1811 0.7292, 1.6123 -1.1811 0.7292, 1.6123 -1.1811 0.7292
            ]
        }
        coordIndex [
            0,1,2,-1,2,1,3,-1,2,3,4,-1,4,3,5,-1,4,5,6,-1,6,5,7,-1,
        ]
    }
}
Shape{
    appearance Appearance {
        material  Material 	{
            diffuseColor 1.0 1.0 1.0
            specularColor 0.5019607843137255 0.5019607843137255 0.5019607843137255
            ambientIntensity 0.2
            transparency 0
            shininess 0.5
        }
    }
    geometry IndexedFaceSet {
        ccw TRUE
        solid FALSE
        coord DEF co Coordinate {
            point [
                1.2313 -1.185 0.4811, 1.2313 -1.185 0.4659, 1.2313 -1.1811 0.4811, 1.2313 -1.1811 0.4659, 1.1767 -1.185 0.4811, 1.1767 -1.1811 0.4811, 1.1767 -1.185 0.526, 1.1767 -1.1811 0.526, 1.2244 -1.185 0.526, 1.2244 -1.1811 0.526, 1.2244 -1.185 0.5413, 1.2244 -1.1811 0.5413, 1.1767 -1.185 0.5413, 1.1767 -1.1811 0.5413, 1.1767 -1.185 0.584, 1.1767 -1.1811 0.584, 1.2282 -1.185 0.584, 1.2282 -1.1811 0.584, 1.2282 -1.185 0.5994, 1.2282 -1.1811 0.5994, 1.1595 -1.185 0.5994, 1.1595 -1.1811 0.5994, 1.1595 -1.185 0.4659, 1.1595 -1.1811 0.4659, 1.2702 -1.185 0.5062, 1.2738 -1.185 0.508, 1.2651 -1.185 0.519, 1.3067 -1.185 0.4807, 1.3071 -1.185 0.4807, 1.306 -1.185 0.496, 1.2789 -1.185 0.5226, 1.2848 -1.185 0.5108, 1.3071 -1.185 0.5265, 1.3071 -1.185 0.5035, 1.3238 -1.185 0.5273, 1.3071 -1.185 0.5046, 1.3071 -1.185 0.5138, 1.3071 -1.185 0.4659, 1.3238 -1.185 0.4659, 1.3007 -1.185 0.5622, 1.2974 -1.185 0.5479, 1.3074 -1.185 0.5599, 1.3003 -1.185 0.546, 1.3065 -1.185 0.5339, 1.3222 -1.185 0.5412, 1.3048 -1.185 0.5399, 1.3195 -1.185 0.5484, 1.3028 -1.185 0.5433, 1.316 -1.185 0.5536, 1.3128 -1.185 0.5566, 1.2566 -1.185 0.5546, 1.2566 -1.185 0.5383, 1.26 -1.185 0.5566, 1.2681 -1.185 0.5456, 1.2724 -1.185 0.5614, 1.2785 -1.185 0.549, 1.2894 -1.185 0.5634, 1.2878 -1.185 0.5498, 1.2935 -1.185 0.5493, 1.3036 -1.185 0.4901, 1.3 -1.185 0.4852, 1.3029 -1.185 0.4752, 1.2979 -1.185 0.4831, 1.2975 -1.185 0.4699, 1.2931 -1.185 0.4799, 1.2934 -1.185 0.4673, 1.2881 -1.185 0.4781, 1.2867 -1.185 0.4648, 1.2818 -1.185 0.4774, 1.2775 -1.185 0.4637, 1.2762 -1.185 0.478, 1.2675 -1.185 0.4648, 1.2724 -1.185 0.4794, 1.2611 -1.185 0.4673, 1.2691 -1.185 0.4817, 1.2554 -1.185 0.4712, 1.2676 -1.185 0.4831, 1.2686 -1.185 0.5049, 1.2584 -1.185 0.5153, 1.2666 -1.185 0.5024, 1.2535 -1.185 0.5108, 1.2652 -1.185 0.4993, 1.25 -1.185 0.5054, 1.2643 -1.185 0.4955, 1.248 -1.185 0.4992, 1.2642 -1.185 0.4928, 1.2473 -1.185 0.4914, 1.2646 -1.185 0.489, 1.2481 -1.185 0.4838, 1.2657 -1.185 0.4859, 1.2501 -1.185 0.4782, 1.2536 -1.185 0.473, 1.2894 -1.1811 0.5634, 1.2724 -1.1811 0.5614, 1.26 -1.1811 0.5566, 1.2566 -1.1811 0.5546, 1.2566 -1.1811 0.5383, 1.2681 -1.1811 0.5456, 1.2785 -1.1811 0.549, 1.2878 -1.1811 0.5498, 1.2935 -1.1811 0.5493, 1.2974 -1.1811 0.5479, 1.3003 -1.1811 0.546, 1.3028 -1.1811 0.5433, 1.3048 -1.1811 0.5399, 1.3065 -1.1811 0.5339, 1.3071 -1.1811 0.5265, 1.2789 -1.1811 0.5226, 1.2651 -1.1811 0.519, 1.2584 -1.1811 0.5153, 1.2535 -1.1811 0.5108, 1.25 -1.1811 0.5054, 1.248 -1.1811 0.4992, 1.2473 -1.1811 0.4914, 1.2481 -1.1811 0.4838, 1.2501 -1.1811 0.4782, 1.2536 -1.1811 0.473, 1.2554 -1.1811 0.4712, 1.2775 -1.1811 0.4637, 1.2678 -1.1811 0.4648, 1.2675 -1.1811 0.4648, 1.2611 -1.1811 0.4673, 1.2867 -1.1811 0.4648, 1.2868 -1.1811 0.4648, 1.2934 -1.1811 0.4673, 1.2975 -1.1811 0.4699, 1.3029 -1.1811 0.4752, 1.3067 -1.1811 0.4807, 1.3071 -1.1811 0.4807, 1.3071 -1.1811 0.4659, 1.3238 -1.1811 0.4659, 1.3238 -1.1811 0.5273, 1.3222 -1.1811 0.5412, 1.3195 -1.1811 0.5484, 1.316 -1.1811 0.5536, 1.3128 -1.1811 0.5566, 1.3074 -1.1811 0.5599, 1.3007 -1.1811 0.5622, 1.2686 -1.1811 0.5049, 1.2702 -1.1811 0.5062, 1.2738 -1.1811 0.508, 1.2848 -1.1811 0.5108, 1.2642 -1.1811 0.4928, 1.2643 -1.1811 0.4955, 1.2652 -1.1811 0.4993, 1.2666 -1.1811 0.5024, 1.2691 -1.1811 0.4817, 1.2676 -1.1811 0.4831, 1.2657 -1.1811 0.4859, 1.2646 -1.1811 0.489, 1.2818 -1.1811 0.4774, 1.2762 -1.1811 0.478, 1.2724 -1.1811 0.4794, 1.3 -1.1811 0.4852, 1.2979 -1.1811 0.4831, 1.2931 -1.1811 0.4799, 1.2881 -1.1811 0.4781, 1.3071 -1.1811 0.5046, 1.3071 -1.1811 0.5035, 1.306 -1.1811 0.496, 1.3036 -1.1811 0.4901, 1.3071 -1.1811 0.5138, 1.3071 -1.1811 0.5138
            ]
        }
        coordIndex [
            0,1,2,-1,2,1,3,-1,4,0,5,-1,5,0,2,-1,6,4,7,-1,7,4,5,-1,8,6,9,-1,9,6,7,-1,10,8,11,-1,11,8,9,-1,12,10,13,-1,13,10,11,-1,14,12,15,-1,15,12,13,-1,16,14,17,-1,17,14,15,-1,18,16,19,-1,19,16,17,-1,20,18,21,-1,21,18,19,-1,22,20,23,-1,23,20,21,-1,1,22,3,-1,3,22,23,-1,22,1,0,-1,0,4,22,-1,22,4,6,-1,22,6,20,-1,16,18,14,-1,14,18,20,-1,14,20,12,-1,12,20,6,-1,12,6,10,-1,10,6,8,-1,24,25,26,-1,27,28,29,-1,26,25,30,-1,30,25,31,-1,30,31,32,-1,33,34,35,-1,35,34,36,-1,37,38,28,-1,28,38,34,-1,28,34,29,-1,29,34,33,-1,39,40,41,-1,41,40,42,-1,31,36,32,-1,32,36,34,-1,32,34,43,-1,43,34,44,-1,43,44,45,-1,45,44,46,-1,45,46,47,-1,47,46,48,-1,47,48,42,-1,42,48,49,-1,42,49,41,-1,50,51,52,-1,52,51,53,-1,52,53,54,-1,54,53,55,-1,54,55,56,-1,56,55,57,-1,56,57,39,-1,39,57,58,-1,39,58,40,-1,29,59,27,-1,27,59,60,-1,27,60,61,-1,61,60,62,-1,61,62,63,-1,63,62,64,-1,63,64,65,-1,65,64,66,-1,65,66,67,-1,67,66,68,-1,67,68,69,-1,69,68,70,-1,69,70,71,-1,71,70,72,-1,71,72,73,-1,73,72,74,-1,73,74,75,-1,75,74,76,-1,24,26,77,-1,77,26,78,-1,77,78,79,-1,79,78,80,-1,79,80,81,-1,81,80,82,-1,81,82,83,-1,83,82,84,-1,83,84,85,-1,85,84,86,-1,85,86,87,-1,87,86,88,-1,87,88,89,-1,89,88,90,-1,89,90,76,-1,76,90,91,-1,76,91,75,-1,56,92,93,-1,56,93,54,-1,54,93,94,-1,54,94,52,-1,52,94,95,-1,52,95,50,-1,51,50,96,-1,96,50,95,-1,51,96,97,-1,51,97,53,-1,53,97,98,-1,53,98,55,-1,55,98,99,-1,55,99,57,-1,57,99,100,-1,57,100,58,-1,58,100,101,-1,58,101,40,-1,40,101,102,-1,40,102,42,-1,42,102,103,-1,42,103,47,-1,47,103,104,-1,47,104,45,-1,45,104,105,-1,45,105,43,-1,43,105,106,-1,43,106,32,-1,30,32,107,-1,107,32,106,-1,30,107,108,-1,30,108,26,-1,26,108,109,-1,26,109,78,-1,78,109,110,-1,78,110,80,-1,80,110,111,-1,80,111,82,-1,82,111,112,-1,82,112,84,-1,84,112,113,-1,84,113,86,-1,86,113,114,-1,86,114,88,-1,88,114,115,-1,88,115,90,-1,90,115,116,-1,90,116,91,-1,91,116,117,-1,91,117,75,-1,118,69,119,-1,119,69,71,-1,119,71,120,-1,120,71,73,-1,120,73,121,-1,121,73,75,-1,121,75,117,-1,69,118,122,-1,69,122,67,-1,67,122,123,-1,67,123,65,-1,123,124,65,-1,65,124,125,-1,65,125,63,-1,63,125,126,-1,63,126,61,-1,61,126,127,-1,61,127,27,-1,28,27,128,-1,128,27,127,-1,37,28,129,-1,129,28,128,-1,38,37,130,-1,130,37,129,-1,34,38,131,-1,131,38,130,-1,34,131,132,-1,34,132,44,-1,44,132,133,-1,44,133,46,-1,46,133,134,-1,46,134,48,-1,48,134,135,-1,48,135,49,-1,49,135,136,-1,49,136,41,-1,41,136,137,-1,41,137,39,-1,39,137,92,-1,39,92,56,-1,77,138,139,-1,77,139,24,-1,24,139,140,-1,24,140,25,-1,25,140,141,-1,25,141,31,-1,85,142,143,-1,85,143,83,-1,83,143,144,-1,83,144,81,-1,81,144,145,-1,81,145,79,-1,79,145,138,-1,79,138,77,-1,74,146,147,-1,74,147,76,-1,76,147,148,-1,76,148,89,-1,89,148,149,-1,89,149,87,-1,87,149,142,-1,87,142,85,-1,68,150,151,-1,68,151,70,-1,70,151,152,-1,70,152,72,-1,72,152,146,-1,72,146,74,-1,60,153,154,-1,60,154,62,-1,62,154,155,-1,62,155,64,-1,64,155,156,-1,64,156,66,-1,66,156,150,-1,66,150,68,-1,35,157,158,-1,35,158,33,-1,33,158,159,-1,33,159,29,-1,29,159,160,-1,29,160,59,-1,59,160,153,-1,59,153,60,-1,35,36,157,-1,157,36,161,-1,36,31,161,-1,161,31,141,-1,
        ]
    }
}
Shape{
    appearance Appearance {
        material  Material 	{
            diffuseColor 0.2235294117647059 0.2235294117647059 0.2235294117647059
            specularColor 0.11372549019607843 0.11372549019607843 0.11372549019607843
            ambientIntensity 0.2
            transparency 0
            shininess 0.5
        }
    }
    geometry IndexedFaceSet {
        ccw TRUE
        solid FALSE
        coord DEF co Coordinate {
            point [
                1.3071 -1.1811 0.5035, 1.3071 -1.1811 0.5046, 1.2686 -1.1811 0.5049, 1.3071 -1.1811 0.5138, 1.2848 -1.1811 0.5108, 1.2738 -1.1811 0.508, 1.2702 -1.1811 0.5062, 1.306 -1.1811 0.496, 1.2666 -1.1811 0.5024, 1.3036 -1.1811 0.4901, 1.2676 -1.1811 0.4831, 1.2691 -1.1811 0.4817, 1.2979 -1.1811 0.4831, 1.2657 -1.1811 0.4859, 1.2931 -1.1811 0.4799, 1.2881 -1.1811 0.4781, 1.2818 -1.1811 0.4774, 1.2652 -1.1811 0.4993, 1.2643 -1.1811 0.4955, 1.3 -1.1811 0.4852, 1.2642 -1.1811 0.4928, 1.2646 -1.1811 0.489, 1.2724 -1.1811 0.4794, 1.2762 -1.1811 0.478, 1.2762 -1.1811 0.478
            ]
        }
        coordIndex [
            0,1,2,-1,1,3,4,-1,4,5,1,-1,1,5,6,-1,1,6,2,-1,0,2,7,-1,7,2,8,-1,7,8,9,-1,10,11,12,-1,10,12,13,-1,14,12,15,-1,15,12,16,-1,8,17,9,-1,9,17,18,-1,9,18,19,-1,19,18,20,-1,19,20,12,-1,12,20,21,-1,12,21,13,-1,11,22,12,-1,12,22,23,-1,12,23,16,-1,
        ]
    }
}
Shape{
    appearance Appearance {
        material  Material 	{
            diffuseColor 1.0 1.0 1.0
            specularColor 0.5019607843137255 0.5019607843137255 0.5019607843137255
            ambientIntensity 0.2
            transparency 0
            shininess 0.5
        }
    }
    geometry IndexedFaceSet {
        ccw TRUE
        solid FALSE
        coord DEF co Coordinate {
            point [
                1.3465 -1.1811 0.4865, 1.3465 -1.185 0.4865, 1.3535 -1.185 0.4822, 1.374 -1.185 0.4773, 1.374 -1.1811 0.4773, 1.364 -1.1811 0.4784, 1.364 -1.185 0.4784, 1.3542 -1.1811 0.482, 1.3535 -1.1811 0.4822, 1.3465 -1.185 0.4693, 1.3465 -1.1811 0.4693, 1.3542 -1.1811 0.4664, 1.3563 -1.185 0.4656, 1.3723 -1.1811 0.4637, 1.3723 -1.185 0.4637, 1.363 -1.1811 0.4648, 1.3563 -1.1811 0.4656, 1.3874 -1.185 0.4655, 1.3819 -1.1811 0.4648, 1.3874 -1.1811 0.4655, 1.3962 -1.1811 0.4688, 1.3962 -1.185 0.4688, 1.4001 -1.1811 0.4713, 1.4001 -1.185 0.4713, 1.4049 -1.1811 0.4754, 1.4049 -1.185 0.4754, 1.408 -1.1811 0.4798, 1.408 -1.185 0.4798, 1.4101 -1.1811 0.4851, 1.4101 -1.185 0.4851, 1.4109 -1.1811 0.4919, 1.4109 -1.185 0.4919, 1.4102 -1.1811 0.4981, 1.4102 -1.185 0.4981, 1.4084 -1.1811 0.503, 1.4084 -1.185 0.503, 1.4053 -1.1811 0.5076, 1.4053 -1.185 0.5076, 1.4013 -1.1811 0.5112, 1.4013 -1.185 0.5112, 1.3902 -1.1811 0.5173, 1.3902 -1.185 0.5173, 1.3837 -1.1811 0.52, 1.3837 -1.185 0.52, 1.3734 -1.1811 0.5245, 1.3734 -1.185 0.5245, 1.3675 -1.1811 0.5282, 1.3675 -1.185 0.5282, 1.3658 -1.1811 0.5299, 1.3658 -1.185 0.5299, 1.3646 -1.1811 0.5322, 1.3646 -1.185 0.5322, 1.364 -1.1811 0.5348, 1.364 -1.185 0.5348, 1.3638 -1.1811 0.537, 1.3638 -1.185 0.537, 1.3641 -1.1811 0.5397, 1.3641 -1.185 0.5397, 1.3649 -1.1811 0.5419, 1.3649 -1.185 0.5419, 1.3664 -1.1811 0.5441, 1.3664 -1.185 0.5441, 1.3689 -1.1811 0.5463, 1.3689 -1.185 0.5463, 1.3726 -1.1811 0.5483, 1.3726 -1.185 0.5483, 1.3771 -1.1811 0.5495, 1.3771 -1.185 0.5495, 1.3821 -1.1811 0.5498, 1.3821 -1.185 0.5498, 1.3924 -1.1811 0.5487, 1.3924 -1.185 0.5487, 1.4019 -1.1811 0.5454, 1.4019 -1.185 0.5454, 1.4063 -1.1811 0.543, 1.4063 -1.185 0.543, 1.4063 -1.185 0.5592, 1.4063 -1.1811 0.5592, 1.3954 -1.1811 0.5624, 1.3954 -1.185 0.5624, 1.3837 -1.1811 0.5634, 1.3837 -1.185 0.5634, 1.3724 -1.1811 0.5623, 1.3724 -1.185 0.5623, 1.363 -1.1811 0.5592, 1.363 -1.185 0.5592, 1.3573 -1.1811 0.5559, 1.3573 -1.185 0.5559, 1.3523 -1.185 0.5514, 1.3542 -1.1811 0.5531, 1.3523 -1.1811 0.5514, 1.3492 -1.1811 0.5469, 1.3492 -1.185 0.5469, 1.3472 -1.1811 0.5415, 1.3472 -1.185 0.5415, 1.3466 -1.1811 0.5355, 1.3466 -1.185 0.5355, 1.3473 -1.1811 0.529, 1.3473 -1.185 0.529, 1.3492 -1.1811 0.5239, 1.3492 -1.185 0.5239, 1.3513 -1.1811 0.5204, 1.3513 -1.185 0.5204, 1.3719 -1.1811 0.5078, 1.3719 -1.185 0.5078, 1.3619 -1.185 0.5124, 1.3541 -1.1811 0.5176, 1.3541 -1.185 0.5176, 1.3542 -1.1811 0.5175, 1.3619 -1.1811 0.5124, 1.3829 -1.1811 0.5032, 1.3829 -1.185 0.5032, 1.3894 -1.1811 0.4993, 1.3894 -1.185 0.4993, 1.3915 -1.1811 0.4971, 1.3915 -1.185 0.4971, 1.3928 -1.1811 0.4949, 1.3928 -1.185 0.4949, 1.3935 -1.1811 0.4923, 1.3935 -1.185 0.4923, 1.3937 -1.1811 0.4902, 1.3937 -1.185 0.4902, 1.3934 -1.1811 0.487, 1.3934 -1.185 0.487, 1.3925 -1.1811 0.4847, 1.3925 -1.185 0.4847, 1.391 -1.1811 0.4825, 1.391 -1.185 0.4825, 1.3891 -1.1811 0.4808, 1.3891 -1.185 0.4808, 1.3876 -1.1811 0.4799, 1.3876 -1.185 0.4799, 1.3833 -1.1811 0.4783, 1.3833 -1.185 0.4783, 1.3747 -1.1811 0.4773, 1.3747 -1.185 0.4773, 1.4937 -1.185 0.5612, 1.511 -1.185 0.5612, 1.4937 -1.1811 0.5612, 1.511 -1.1811 0.5612, 1.4677 -1.185 0.4895, 1.4677 -1.1811 0.4895, 1.4664 -1.1811 0.485, 1.4664 -1.185 0.485, 1.4656 -1.1811 0.4818, 1.4656 -1.185 0.4818, 1.4652 -1.185 0.4818, 1.4652 -1.1811 0.4818, 1.4632 -1.185 0.4896, 1.4632 -1.1811 0.4896, 1.4383 -1.1811 0.5612, 1.4383 -1.185 0.5612, 1.4463 -1.1811 0.538, 1.4196 -1.185 0.5612, 1.4196 -1.1811 0.5612, 1.4569 -1.1811 0.4661, 1.4569 -1.185 0.4661, 1.4463 -1.1811 0.4932, 1.4496 -1.1811 0.4488, 1.4496 -1.185 0.4488, 1.4564 -1.1811 0.4648, 1.4463 -1.1811 0.4428, 1.4463 -1.185 0.4427, 1.4463 -1.1811 0.4427, 1.4432 -1.1811 0.4393, 1.4432 -1.185 0.4393, 1.4404 -1.1811 0.4373, 1.4404 -1.185 0.4373, 1.4368 -1.1811 0.4359, 1.4368 -1.185 0.4359, 1.4325 -1.1811 0.4354, 1.4325 -1.185 0.4354, 1.4264 -1.1811 0.4362, 1.4264 -1.185 0.4362, 1.423 -1.1811 0.4373, 1.423 -1.185 0.4373, 1.423 -1.185 0.4224, 1.423 -1.1811 0.4224, 1.4301 -1.1811 0.4212, 1.4301 -1.185 0.4212, 1.4338 -1.1811 0.421, 1.4338 -1.185 0.421, 1.4405 -1.1811 0.4218, 1.4405 -1.185 0.4218, 1.4463 -1.1811 0.424, 1.4471 -1.185 0.4243, 1.4471 -1.1811 0.4243, 1.453 -1.1811 0.4284, 1.453 -1.185 0.4284, 1.4541 -1.1811 0.4295, 1.4541 -1.185 0.4295, 1.4602 -1.1811 0.4368, 1.4602 -1.185 0.4368, 1.4678 -1.1811 0.4515, 1.4678 -1.185 0.4515, 1.473 -1.1811 0.4648, 1.6008 -1.185 0.4811, 1.6008 -1.185 0.4659, 1.6008 -1.1811 0.4811, 1.6008 -1.1811 0.4659, 1.5463 -1.1811 0.4811, 1.5463 -1.185 0.4811, 1.5713 -1.1811 0.4811, 1.5463 -1.185 0.526, 1.5463 -1.1811 0.526, 1.594 -1.1811 0.526, 1.594 -1.185 0.526, 1.5713 -1.1811 0.526, 1.594 -1.185 0.5413, 1.594 -1.1811 0.5413, 1.5463 -1.1811 0.5413, 1.5463 -1.185 0.5413, 1.5713 -1.1811 0.5413, 1.5463 -1.185 0.584, 1.5463 -1.1811 0.584, 1.5978 -1.1811 0.584, 1.5978 -1.185 0.584, 1.5713 -1.1811 0.584, 1.5978 -1.185 0.5994, 1.5978 -1.1811 0.5994, 1.5291 -1.1811 0.5994, 1.5291 -1.185 0.5994, 1.5713 -1.1811 0.5994, 1.5291 -1.185 0.4659, 1.5291 -1.1811 0.4659, 1.5713 -1.1811 0.4659, 1.7146 -1.185 0.4846, 1.7008 -1.185 0.4936, 1.7006 -1.185 0.4746, 1.6922 -1.185 0.4876, 1.6854 -1.185 0.4687, 1.6812 -1.185 0.4834, 1.6627 -1.185 0.4659, 1.6626 -1.185 0.4811, 1.626 -1.185 0.4659, 1.6433 -1.185 0.4811, 1.626 -1.185 0.5994, 1.6433 -1.185 0.584, 1.6641 -1.185 0.5994, 1.6634 -1.185 0.584, 1.6653 -1.185 0.584, 1.6845 -1.185 0.5971, 1.6822 -1.185 0.5817, 1.7006 -1.185 0.5912, 1.6935 -1.185 0.5773, 1.7146 -1.185 0.5817, 1.7019 -1.185 0.5715, 1.7193 -1.185 0.5771, 1.7056 -1.185 0.5678, 1.7275 -1.185 0.5655, 1.7108 -1.185 0.5603, 1.7325 -1.185 0.5528, 1.7146 -1.185 0.5506, 1.7347 -1.185 0.5344, 1.7166 -1.185 0.5339, 1.7343 -1.185 0.5259, 1.716 -1.185 0.5243, 1.7311 -1.185 0.5102, 1.7132 -1.185 0.5123, 1.7245 -1.185 0.4964, 1.7085 -1.185 0.5026, 1.7023 -1.185 0.4951, 1.6627 -1.1811 0.4659, 1.626 -1.1811 0.4659, 1.6854 -1.1811 0.4687, 1.7006 -1.1811 0.4746, 1.7146 -1.1811 0.4846, 1.7245 -1.1811 0.4964, 1.7311 -1.1811 0.5102, 1.7343 -1.1811 0.5259, 1.7347 -1.1811 0.5344, 1.7325 -1.1811 0.5528, 1.7275 -1.1811 0.5655, 1.7193 -1.1811 0.5771, 1.7146 -1.1811 0.5817, 1.7006 -1.1811 0.5912, 1.6845 -1.1811 0.5971, 1.6641 -1.1811 0.5994, 1.626 -1.1811 0.5994, 1.6634 -1.1811 0.584, 1.6433 -1.1811 0.584, 1.6433 -1.1811 0.4811, 1.6626 -1.1811 0.4811, 1.7023 -1.1811 0.4951, 1.7008 -1.1811 0.4936, 1.6922 -1.1811 0.4876, 1.6812 -1.1811 0.4834, 1.7166 -1.1811 0.5339, 1.716 -1.1811 0.5243, 1.7132 -1.1811 0.5123, 1.7085 -1.1811 0.5026, 1.7019 -1.1811 0.5715, 1.7056 -1.1811 0.5678, 1.7108 -1.1811 0.5603, 1.7146 -1.1811 0.5506, 1.6653 -1.1811 0.584, 1.6822 -1.1811 0.5817, 1.6935 -1.1811 0.5773, 1.6935 -1.1811 0.5773
            ]
        }
        coordIndex [
            0,1,2,-1,3,4,5,-1,3,5,6,-1,6,5,7,-1,6,7,2,-1,2,7,8,-1,2,8,0,-1,9,1,10,-1,10,1,0,-1,10,11,9,-1,9,11,12,-1,13,14,15,-1,15,14,12,-1,15,12,16,-1,16,12,11,-1,14,13,17,-1,17,13,18,-1,18,19,17,-1,17,19,20,-1,17,20,21,-1,21,20,22,-1,21,22,23,-1,23,22,24,-1,23,24,25,-1,25,24,26,-1,25,26,27,-1,27,26,28,-1,27,28,29,-1,29,28,30,-1,29,30,31,-1,31,30,32,-1,31,32,33,-1,33,32,34,-1,33,34,35,-1,35,34,36,-1,35,36,37,-1,37,36,38,-1,37,38,39,-1,39,38,40,-1,39,40,41,-1,41,40,42,-1,41,42,43,-1,43,42,44,-1,43,44,45,-1,45,44,46,-1,45,46,47,-1,47,46,48,-1,47,48,49,-1,49,48,50,-1,49,50,51,-1,51,50,52,-1,51,52,53,-1,53,52,54,-1,53,54,55,-1,55,54,56,-1,55,56,57,-1,57,56,58,-1,57,58,59,-1,59,58,60,-1,59,60,61,-1,61,60,62,-1,61,62,63,-1,63,62,64,-1,63,64,65,-1,65,64,66,-1,65,66,67,-1,67,66,68,-1,67,68,69,-1,69,68,70,-1,69,70,71,-1,71,70,72,-1,71,72,73,-1,73,72,74,-1,73,74,75,-1,76,75,77,-1,77,75,74,-1,76,77,78,-1,76,78,79,-1,79,78,80,-1,79,80,81,-1,81,80,82,-1,81,82,83,-1,83,82,84,-1,83,84,85,-1,85,84,86,-1,85,86,87,-1,87,86,88,-1,88,86,89,-1,89,90,88,-1,88,90,91,-1,88,91,92,-1,92,91,93,-1,92,93,94,-1,94,93,95,-1,94,95,96,-1,96,95,97,-1,96,97,98,-1,98,97,99,-1,98,99,100,-1,100,99,101,-1,100,101,102,-1,103,104,105,-1,102,101,106,-1,102,106,107,-1,107,106,108,-1,107,108,105,-1,105,108,109,-1,105,109,103,-1,104,103,110,-1,104,110,111,-1,111,110,112,-1,111,112,113,-1,113,112,114,-1,113,114,115,-1,115,114,116,-1,115,116,117,-1,117,116,118,-1,117,118,119,-1,119,118,120,-1,119,120,121,-1,121,120,122,-1,121,122,123,-1,123,122,124,-1,123,124,125,-1,125,124,126,-1,125,126,127,-1,127,126,128,-1,127,128,129,-1,129,128,130,-1,129,130,131,-1,131,130,132,-1,131,132,133,-1,133,132,134,-1,133,134,135,-1,135,134,4,-1,135,4,3,-1,111,43,104,-1,104,43,45,-1,21,23,127,-1,127,23,25,-1,127,25,125,-1,125,25,27,-1,125,27,123,-1,123,27,29,-1,123,29,121,-1,121,29,31,-1,121,31,119,-1,119,31,33,-1,119,33,117,-1,117,33,35,-1,117,35,115,-1,115,35,37,-1,115,37,113,-1,113,37,39,-1,113,39,111,-1,111,39,41,-1,111,41,43,-1,14,3,12,-1,12,3,6,-1,12,6,9,-1,9,6,2,-1,9,2,1,-1,61,63,85,-1,85,63,65,-1,85,65,83,-1,83,65,67,-1,83,67,81,-1,81,67,69,-1,81,69,79,-1,79,69,71,-1,79,71,76,-1,76,71,73,-1,76,73,75,-1,127,129,21,-1,21,129,131,-1,21,131,17,-1,17,131,133,-1,17,133,14,-1,14,133,135,-1,14,135,3,-1,85,87,61,-1,61,87,88,-1,61,88,59,-1,59,88,92,-1,59,92,57,-1,57,92,94,-1,57,94,55,-1,55,94,96,-1,55,96,53,-1,53,96,98,-1,53,98,51,-1,51,98,100,-1,51,100,49,-1,49,100,102,-1,49,102,47,-1,47,102,107,-1,47,107,45,-1,45,107,105,-1,45,105,104,-1,136,137,138,-1,138,137,139,-1,140,136,141,-1,141,136,138,-1,140,141,142,-1,140,142,143,-1,143,142,144,-1,143,144,145,-1,146,145,147,-1,147,145,144,-1,148,146,149,-1,149,146,147,-1,150,151,152,-1,152,151,148,-1,152,148,149,-1,153,151,154,-1,154,151,150,-1,155,156,157,-1,157,156,153,-1,157,153,154,-1,158,159,160,-1,160,159,156,-1,160,156,155,-1,158,161,159,-1,159,161,162,-1,161,163,162,-1,162,163,164,-1,162,164,165,-1,165,164,166,-1,165,166,167,-1,167,166,168,-1,167,168,169,-1,169,168,170,-1,169,170,171,-1,171,170,172,-1,171,172,173,-1,173,172,174,-1,173,174,175,-1,176,175,177,-1,177,175,174,-1,176,177,178,-1,176,178,179,-1,179,178,180,-1,179,180,181,-1,181,180,182,-1,181,182,183,-1,183,182,184,-1,183,184,185,-1,184,186,185,-1,185,186,187,-1,185,187,188,-1,188,187,189,-1,188,189,190,-1,190,189,191,-1,190,191,192,-1,192,191,193,-1,192,193,194,-1,139,137,195,-1,195,137,194,-1,195,194,193,-1,143,145,194,-1,137,136,194,-1,194,136,140,-1,194,140,143,-1,151,153,148,-1,148,153,156,-1,148,156,146,-1,175,176,173,-1,173,176,179,-1,173,179,171,-1,171,179,181,-1,171,181,169,-1,169,181,183,-1,169,183,167,-1,167,183,185,-1,167,185,165,-1,145,146,194,-1,194,146,156,-1,194,156,192,-1,156,159,192,-1,192,159,162,-1,192,162,190,-1,190,162,165,-1,190,165,188,-1,188,165,185,-1,196,197,198,-1,198,197,199,-1,200,201,202,-1,202,201,196,-1,202,196,198,-1,203,201,204,-1,204,201,200,-1,205,206,207,-1,207,206,203,-1,207,203,204,-1,208,206,209,-1,209,206,205,-1,210,211,212,-1,212,211,208,-1,212,208,209,-1,213,211,214,-1,214,211,210,-1,215,216,217,-1,217,216,213,-1,217,213,214,-1,218,216,219,-1,219,216,215,-1,220,221,222,-1,222,221,218,-1,222,218,219,-1,223,221,224,-1,224,221,220,-1,199,197,225,-1,225,197,223,-1,225,223,224,-1,223,197,196,-1,196,201,223,-1,223,201,203,-1,223,203,221,-1,216,218,213,-1,213,218,221,-1,213,221,211,-1,211,221,203,-1,211,203,208,-1,208,203,206,-1,226,227,228,-1,228,227,229,-1,228,229,230,-1,230,229,231,-1,230,231,232,-1,232,231,233,-1,232,233,234,-1,234,233,235,-1,234,235,236,-1,236,235,237,-1,236,237,238,-1,237,239,238,-1,238,239,240,-1,238,240,241,-1,241,240,242,-1,241,242,243,-1,243,242,244,-1,243,244,245,-1,245,244,246,-1,245,246,247,-1,247,246,248,-1,247,248,249,-1,249,248,250,-1,249,250,251,-1,251,250,252,-1,251,252,253,-1,253,252,254,-1,253,254,255,-1,255,254,256,-1,255,256,257,-1,257,256,258,-1,257,258,259,-1,259,258,260,-1,259,260,226,-1,226,260,261,-1,226,261,227,-1,232,234,262,-1,262,234,263,-1,232,262,264,-1,232,264,230,-1,230,264,265,-1,230,265,228,-1,228,265,266,-1,228,266,226,-1,226,266,267,-1,226,267,259,-1,259,267,268,-1,259,268,257,-1,257,268,269,-1,257,269,255,-1,255,269,270,-1,255,270,253,-1,253,270,271,-1,253,271,251,-1,251,271,272,-1,251,272,249,-1,249,272,273,-1,249,273,247,-1,247,273,274,-1,247,274,245,-1,245,274,275,-1,245,275,243,-1,243,275,276,-1,243,276,241,-1,241,276,277,-1,241,277,238,-1,236,238,278,-1,278,238,277,-1,234,236,263,-1,263,236,278,-1,239,237,279,-1,279,237,280,-1,237,235,280,-1,280,235,281,-1,235,233,281,-1,281,233,282,-1,261,283,284,-1,261,284,227,-1,227,284,285,-1,227,285,229,-1,229,285,286,-1,229,286,231,-1,231,286,282,-1,231,282,233,-1,254,287,288,-1,254,288,256,-1,256,288,289,-1,256,289,258,-1,258,289,290,-1,258,290,260,-1,260,290,283,-1,260,283,261,-1,246,291,292,-1,246,292,248,-1,248,292,293,-1,248,293,250,-1,250,293,294,-1,250,294,252,-1,252,294,287,-1,252,287,254,-1,239,279,295,-1,239,295,240,-1,240,295,296,-1,240,296,242,-1,242,296,297,-1,242,297,244,-1,244,297,291,-1,244,291,246,-1,
        ]
    }
}
Shape{
    appearance Appearance {
        material  Material 	{
            diffuseColor 0.2235294117647059 0.2235294117647059 0.2235294117647059
            specularColor 0.11372549019607843 0.11372549019607843 0.11372549019607843
            ambientIntensity 0.2
            transparency 0
            shininess 0.5
        }
    }
    geometry IndexedFaceSet {
        ccw TRUE
        solid FALSE
        coord DEF co Coordinate {
            point [
                1.6433 -1.1811 0.584, 1.6433 -1.1811 0.4811, 1.6634 -1.1811 0.584, 1.6626 -1.1811 0.4811, 1.6653 -1.1811 0.584, 1.6812 -1.1811 0.4834, 1.6922 -1.1811 0.4876, 1.7008 -1.1811 0.4936, 1.7023 -1.1811 0.4951, 1.7085 -1.1811 0.5026, 1.7166 -1.1811 0.5339, 1.7019 -1.1811 0.5715, 1.716 -1.1811 0.5243, 1.6935 -1.1811 0.5773, 1.7132 -1.1811 0.5123, 1.6822 -1.1811 0.5817, 1.7146 -1.1811 0.5506, 1.7108 -1.1811 0.5603, 1.7056 -1.1811 0.5678, 1.7056 -1.1811 0.5678
            ]
        }
        coordIndex [
            0,1,2,-1,2,1,3,-1,2,3,4,-1,4,3,5,-1,4,5,6,-1,6,7,4,-1,4,7,8,-1,4,8,9,-1,10,11,12,-1,12,11,13,-1,9,14,4,-1,4,14,12,-1,4,12,15,-1,15,12,13,-1,16,17,10,-1,10,17,18,-1,10,18,11,-1,
        ]
    }
}
Shape{
    appearance Appearance {
        material  Material 	{
            diffuseColor 1.0 1.0 1.0
            specularColor 0.5019607843137255 0.5019607843137255 0.5019607843137255
            ambientIntensity 0.2
            transparency 0
            shininess 0.5
        }
    }
    geometry IndexedFaceSet {
        ccw TRUE
        solid FALSE
        coord DEF co Coordinate {
            point [
                1.7794 -1.185 0.5175, 1.774 -1.185 0.5024, 1.8242 -1.185 0.5175, 1.8295 -1.185 0.5024, 1.7994 -1.185 0.573, 1.7929 -1.185 0.5994, 1.7421 -1.185 0.4659, 1.7611 -1.185 0.4659, 1.8005 -1.185 0.577, 1.8016 -1.185 0.5823, 1.8113 -1.185 0.5994, 1.802 -1.185 0.5823, 1.803 -1.185 0.5767, 1.804 -1.185 0.573, 1.8622 -1.185 0.4659, 1.8431 -1.185 0.4659, 1.8113 -1.1811 0.5994, 1.8622 -1.1811 0.4659, 1.7929 -1.1811 0.5994, 1.7421 -1.1811 0.4659, 1.7611 -1.1811 0.4659, 1.774 -1.1811 0.5024, 1.8295 -1.1811 0.5024, 1.8431 -1.1811 0.4659, 1.7794 -1.1811 0.5175, 1.8242 -1.1811 0.5175, 1.804 -1.1811 0.573, 1.802 -1.1811 0.5823, 1.803 -1.1811 0.5767, 1.8016 -1.1811 0.5823, 1.7994 -1.1811 0.573, 1.8005 -1.1811 0.577, 1.8005 -1.1811 0.577
            ]
        }
        coordIndex [
            0,1,2,-1,2,1,3,-1,4,5,0,-1,0,5,6,-1,0,6,1,-1,1,6,7,-1,4,8,5,-1,5,8,9,-1,5,9,10,-1,10,9,11,-1,10,11,12,-1,12,13,10,-1,10,13,2,-1,10,2,14,-1,14,2,3,-1,14,3,15,-1,10,14,16,-1,16,14,17,-1,5,10,18,-1,18,10,16,-1,6,5,19,-1,19,5,18,-1,7,6,20,-1,20,6,19,-1,1,7,21,-1,21,7,20,-1,3,1,22,-1,22,1,21,-1,15,3,23,-1,23,3,22,-1,14,15,17,-1,17,15,23,-1,0,2,24,-1,24,2,25,-1,2,13,25,-1,25,13,26,-1,11,27,28,-1,11,28,12,-1,12,28,26,-1,12,26,13,-1,11,9,27,-1,27,9,29,-1,4,30,31,-1,4,31,8,-1,8,31,29,-1,8,29,9,-1,4,0,30,-1,30,0,24,-1,
        ]
    }
}
Shape{
    appearance Appearance {
        material  Material 	{
            diffuseColor 0.2235294117647059 0.2235294117647059 0.2235294117647059
            specularColor 0.11372549019607843 0.11372549019607843 0.11372549019607843
            ambientIntensity 0.2
            transparency 0
            shininess 0.5
        }
    }
    geometry IndexedFaceSet {
        ccw TRUE
        solid FALSE
        coord DEF co Coordinate {
            point [
                1.802 -1.1811 0.5823, 1.8016 -1.1811 0.5823, 1.803 -1.1811 0.5767, 1.8005 -1.1811 0.577, 1.804 -1.1811 0.573, 1.7994 -1.1811 0.573, 1.8242 -1.1811 0.5175, 1.7794 -1.1811 0.5175, 1.7794 -1.1811 0.5175
            ]
        }
        coordIndex [
            0,1,2,-1,2,1,3,-1,2,3,4,-1,4,3,5,-1,4,5,6,-1,6,5,7,-1,
        ]
    }
}
Shape{
    appearance Appearance {
        material  Material 	{
            diffuseColor 1.0 1.0 1.0
            specularColor 0.5019607843137255 0.5019607843137255 0.5019607843137255
            ambientIntensity 0.2
            transparency 0
            shininess 0.5
        }
    }
    geometry IndexedFaceSet {
        ccw TRUE
        solid FALSE
        coord DEF co Coordinate {
            point [
                0.5701 -1.185 0.447, 0.5842 -1.185 0.4296, 0.5616 -1.185 0.5309, 0.5451 -1.185 0.6958, 0.5663 -1.185 0.7071, 0.5616 -1.185 0.7655, 0.7284 -1.185 0.4433, 0.7396 -1.185 0.4645, 0.7451 -1.185 0.4879, 0.6204 -1.185 0.7681, 0.6498 -1.185 0.6989, 0.6643 -1.185 0.7289, 0.5409 -1.185 0.5437, 0.5477 -1.185 0.4713, 0.5606 -1.185 0.4674, 0.5986 -1.185 0.77, 0.8785 -1.185 0.5774, 0.849 -1.185 0.6277, 0.7456 -1.185 0.5072, 0.7219 -1.185 0.5613, 0.7456 -1.185 0.4977, 0.6949 -1.185 0.4138, 0.7138 -1.185 0.4269, 0.6255 -1.185 0.4689, 0.6331 -1.185 0.4638, 0.6028 -1.185 0.4156, 0.6419 -1.185 0.4606, 0.6839 -1.185 0.5111, 0.6864 -1.185 0.5025, 0.6866 -1.185 0.4933, 0.6845 -1.185 0.4841, 0.6803 -1.185 0.4758, 0.9098 -1.185 0.6714, 0.9174 -1.185 0.6714, 0.9563 -1.185 0.7226, 0.9354 -1.185 0.6691, 0.961 -1.185 0.721, 0.9519 -1.185 0.6628, 0.9892 -1.185 0.707, 1.0149 -1.185 0.6852, 0.6398 -1.185 0.7908, 0.6856 -1.185 0.7543, 0.6621 -1.185 0.8099, 0.711 -1.185 0.7729, 0.6904 -1.185 0.8269, 0.5897 -1.185 0.7126, 0.5995 -1.185 0.7131, 0.6095 -1.185 0.7694, 0.6217 -1.185 0.7104, 0.643 -1.185 0.7026, 0.6131 -1.185 0.4922, 0.6152 -1.185 0.4835, 0.6194 -1.185 0.4757, 0.6247 -1.185 0.4064, 0.6471 -1.185 0.4029, 0.6498 -1.185 0.4598, 0.6507 -1.185 0.4028, 0.6586 -1.185 0.4608, 0.6737 -1.185 0.4057, 0.6669 -1.185 0.4639, 0.6742 -1.185 0.469, 1.0151 -1.185 0.5082, 0.9708 -1.185 0.5458, 0.9893 -1.185 0.4863, 0.9568 -1.185 0.5343, 0.9603 -1.185 0.4721, 0.94 -1.185 0.5266, 0.9287 -1.185 0.4655, 0.923 -1.185 0.5233, 0.8728 -1.185 0.4655, 0.8804 -1.185 0.5233, 0.8674 -1.185 0.4663, 0.9667 -1.185 0.6525, 0.9776 -1.185 0.6402, 1.0343 -1.185 0.6582, 0.9865 -1.185 0.6239, 1.0459 -1.185 0.6292, 0.9909 -1.185 0.6056, 1.0502 -1.185 0.5983, 0.9914 -1.185 0.5974, 1.0458 -1.185 0.5644, 0.9891 -1.185 0.5789, 1.0339 -1.185 0.5344, 0.9825 -1.185 0.562, 0.9721 -1.185 0.5472, 0.905 -1.185 0.7976, 0.868 -1.185 0.7539, 0.9386 -1.185 0.7579, 0.8893 -1.185 0.7283, 0.904 -1.185 0.6977, 0.5074 -1.185 0.6412, 0.4451 -1.185 0.6257, 0.5046 -1.185 0.6182, 0.4448 -1.185 0.6163, 0.5057 -1.185 0.6037, 0.4493 -1.185 0.5796, 0.5125 -1.185 0.5804, 0.4628 -1.185 0.5442, 0.5239 -1.185 0.5611, 0.4847 -1.185 0.5129, 0.5135 -1.185 0.4882, 0.6131 -1.185 0.5015, 0.6154 -1.185 0.5106, 0.572 -1.185 0.5514, 0.62 -1.185 0.5187, 0.5877 -1.185 0.5693, 0.6252 -1.185 0.5244, 0.6071 -1.185 0.5828, 0.6327 -1.185 0.5296, 0.6281 -1.185 0.5908, 0.6411 -1.185 0.5327, 0.6507 -1.185 0.5936, 0.6498 -1.185 0.5338, 0.6623 -1.185 0.5929, 0.6565 -1.185 0.5332, 0.6852 -1.185 0.5872, 0.6654 -1.185 0.5303, 0.7053 -1.185 0.5764, 0.6732 -1.185 0.5254, 0.6795 -1.185 0.5188, 0.7345 -1.185 0.8424, 0.742 -1.185 0.7855, 0.776 -1.185 0.8469, 0.7769 -1.185 0.79, 0.8224 -1.185 0.8411, 0.8091 -1.185 0.786, 0.8693 -1.185 0.8225, 0.8388 -1.185 0.7746, 0.8655 -1.185 0.7561, 0.5265 -1.185 0.752, 0.4962 -1.185 0.7309, 0.5287 -1.185 0.6812, 0.4894 -1.185 0.7245, 0.5156 -1.185 0.6623, 0.4668 -1.185 0.6955, 0.4516 -1.185 0.6613, 0.8756 -1.185 0.5242, 0.8528 -1.185 0.4754, 0.855 -1.185 0.4732, 0.8784 -1.185 0.5236, 0.8611 -1.185 0.4688, 0.8452 -1.185 0.4949, 0.8461 -1.185 0.4878, 0.8486 -1.185 0.4814, 0.8673 -1.185 0.5234, 0.8608 -1.185 0.5208, 0.8455 -1.185 0.4986, 0.855 -1.185 0.5166, 0.851 -1.185 0.5123, 0.8474 -1.185 0.5058, 0.8747 -1.185 0.5243, 1.0212 -1.1811 0.6765, 1.0343 -1.1811 0.6582, 1.0426 -1.1811 0.6374, 1.0459 -1.1811 0.6292, 1.0502 -1.1811 0.5983, 1.0149 -1.1811 0.6852, 0.9892 -1.1811 0.707, 0.961 -1.1811 0.721, 0.9563 -1.1811 0.7226, 0.9386 -1.1811 0.7579, 0.905 -1.1811 0.7976, 0.8841 -1.1811 0.8122, 0.8693 -1.1811 0.8225, 0.8224 -1.1811 0.8411, 0.776 -1.1811 0.8469, 0.7345 -1.1811 0.8424, 0.6904 -1.1811 0.8269, 0.666 -1.1811 0.8122, 0.6621 -1.1811 0.8099, 0.6398 -1.1811 0.7908, 0.6204 -1.1811 0.7681, 0.6095 -1.1811 0.7694, 0.5986 -1.1811 0.77, 0.5616 -1.1811 0.7655, 0.5265 -1.1811 0.752, 0.4962 -1.1811 0.7309, 0.4894 -1.1811 0.7245, 0.4472 -1.1811 0.6374, 0.4516 -1.1811 0.6613, 0.4583 -1.1811 0.6765, 0.4668 -1.1811 0.6955, 0.4451 -1.1811 0.6257, 0.4448 -1.1811 0.6163, 0.4493 -1.1811 0.5796, 0.4628 -1.1811 0.5442, 0.4847 -1.1811 0.5129, 0.5135 -1.1811 0.4882, 0.5477 -1.1811 0.4713, 0.5606 -1.1811 0.4674, 0.5618 -1.1811 0.4648, 0.5701 -1.1811 0.447, 0.5842 -1.1811 0.4296, 0.6028 -1.1811 0.4156, 0.6115 -1.1811 0.4119, 0.6247 -1.1811 0.4064, 0.6471 -1.1811 0.4029, 0.6507 -1.1811 0.4028, 0.7456 -1.1811 0.4977, 0.6737 -1.1811 0.4057, 0.69 -1.1811 0.4119, 0.6949 -1.1811 0.4138, 0.7138 -1.1811 0.4269, 0.7284 -1.1811 0.4433, 0.7396 -1.1811 0.4645, 0.7397 -1.1811 0.4648, 0.7451 -1.1811 0.4879, 0.7456 -1.1811 0.5072, 0.8785 -1.1811 0.5774, 0.849 -1.1811 0.6277, 0.7219 -1.1811 0.5613, 0.7053 -1.1811 0.5764, 0.6852 -1.1811 0.5872, 0.6623 -1.1811 0.5929, 0.6507 -1.1811 0.5936, 0.6281 -1.1811 0.5908, 0.6071 -1.1811 0.5828, 0.5877 -1.1811 0.5693, 0.572 -1.1811 0.5514, 0.5616 -1.1811 0.5309, 0.5409 -1.1811 0.5437, 0.5239 -1.1811 0.5611, 0.5125 -1.1811 0.5804, 0.5057 -1.1811 0.6037, 0.5046 -1.1811 0.6182, 0.507 -1.1811 0.6374, 0.5074 -1.1811 0.6412, 0.5156 -1.1811 0.6623, 0.5254 -1.1811 0.6765, 0.5287 -1.1811 0.6812, 0.5451 -1.1811 0.6958, 0.5663 -1.1811 0.7071, 0.5897 -1.1811 0.7126, 0.5995 -1.1811 0.7131, 0.6217 -1.1811 0.7104, 0.643 -1.1811 0.7026, 0.6498 -1.1811 0.6989, 0.6643 -1.1811 0.7289, 0.6856 -1.1811 0.7543, 0.711 -1.1811 0.7729, 0.742 -1.1811 0.7855, 0.7769 -1.1811 0.79, 0.8091 -1.1811 0.786, 0.8388 -1.1811 0.7746, 0.8655 -1.1811 0.7561, 0.868 -1.1811 0.7539, 0.8893 -1.1811 0.7283, 0.904 -1.1811 0.6977, 0.9086 -1.1811 0.6765, 0.9098 -1.1811 0.6714, 0.9174 -1.1811 0.6714, 0.9354 -1.1811 0.6691, 0.9519 -1.1811 0.6628, 0.9667 -1.1811 0.6525, 0.9776 -1.1811 0.6402, 0.9792 -1.1811 0.6374, 0.9865 -1.1811 0.6239, 0.9909 -1.1811 0.6056, 0.9914 -1.1811 0.5974, 0.9891 -1.1811 0.5789, 0.9825 -1.1811 0.562, 0.9721 -1.1811 0.5472, 0.9708 -1.1811 0.5458, 0.9568 -1.1811 0.5343, 0.94 -1.1811 0.5266, 0.923 -1.1811 0.5233, 0.8804 -1.1811 0.5233, 0.8784 -1.1811 0.5236, 0.8756 -1.1811 0.5242, 0.8747 -1.1811 0.5243, 0.8673 -1.1811 0.5234, 0.8608 -1.1811 0.5208, 0.855 -1.1811 0.5166, 0.851 -1.1811 0.5123, 0.8474 -1.1811 0.5058, 0.8455 -1.1811 0.4986, 0.8452 -1.1811 0.4949, 0.8461 -1.1811 0.4878, 0.8486 -1.1811 0.4814, 0.8528 -1.1811 0.4754, 0.855 -1.1811 0.4732, 0.8611 -1.1811 0.4688, 0.8674 -1.1811 0.4663, 0.8728 -1.1811 0.4655, 0.9287 -1.1811 0.4655, 0.9603 -1.1811 0.4721, 0.9893 -1.1811 0.4863, 1.0151 -1.1811 0.5082, 1.0339 -1.1811 0.5344, 1.0458 -1.1811 0.5644, 0.6498 -1.1811 0.5338, 0.6565 -1.1811 0.5332, 0.6654 -1.1811 0.5303, 0.6732 -1.1811 0.5254, 0.6795 -1.1811 0.5188, 0.6839 -1.1811 0.5111, 0.6864 -1.1811 0.5025, 0.6866 -1.1811 0.4933, 0.6845 -1.1811 0.4841, 0.6803 -1.1811 0.4758, 0.6742 -1.1811 0.469, 0.6669 -1.1811 0.4639, 0.6586 -1.1811 0.4608, 0.6498 -1.1811 0.4598, 0.6419 -1.1811 0.4606, 0.6331 -1.1811 0.4638, 0.6255 -1.1811 0.4689, 0.6194 -1.1811 0.4757, 0.6152 -1.1811 0.4835, 0.6131 -1.1811 0.4922, 0.6131 -1.1811 0.5015, 0.6154 -1.1811 0.5106, 0.62 -1.1811 0.5187, 0.6252 -1.1811 0.5244, 0.6327 -1.1811 0.5296, 0.6411 -1.1811 0.5327, 0.6411 -1.1811 0.5327
            ]
        }
        coordIndex [
            0,1,2,-1,3,4,5,-1,6,7,8,-1,9,10,11,-1,12,13,2,-1,2,13,14,-1,2,14,0,-1,5,4,15,-1,16,17,18,-1,18,17,19,-1,18,19,20,-1,20,19,21,-1,20,21,8,-1,8,21,22,-1,8,22,6,-1,23,1,24,-1,24,1,25,-1,24,25,26,-1,27,28,19,-1,19,28,29,-1,19,29,21,-1,21,29,30,-1,21,30,31,-1,32,33,34,-1,34,33,35,-1,34,35,36,-1,36,35,37,-1,36,37,38,-1,38,37,39,-1,9,11,40,-1,40,11,41,-1,40,41,42,-1,42,41,43,-1,42,43,44,-1,4,45,15,-1,15,45,46,-1,15,46,47,-1,47,46,48,-1,47,48,9,-1,9,48,49,-1,9,49,10,-1,50,2,51,-1,51,2,1,-1,51,1,52,-1,52,1,23,-1,25,53,26,-1,26,53,54,-1,26,54,55,-1,55,54,56,-1,55,56,57,-1,57,56,58,-1,57,58,59,-1,59,58,21,-1,59,21,60,-1,60,21,31,-1,61,62,63,-1,63,62,64,-1,63,64,65,-1,65,64,66,-1,65,66,67,-1,67,66,68,-1,67,68,69,-1,69,68,70,-1,69,70,71,-1,37,72,39,-1,39,72,73,-1,39,73,74,-1,74,73,75,-1,74,75,76,-1,76,75,77,-1,76,77,78,-1,78,77,79,-1,78,79,80,-1,80,79,81,-1,80,81,82,-1,82,81,83,-1,82,83,61,-1,61,83,84,-1,61,84,62,-1,85,86,87,-1,87,86,88,-1,87,88,34,-1,34,88,89,-1,34,89,32,-1,90,91,92,-1,92,91,93,-1,92,93,94,-1,94,93,95,-1,94,95,96,-1,96,95,97,-1,96,97,98,-1,98,97,99,-1,98,99,12,-1,12,99,100,-1,12,100,13,-1,50,101,2,-1,2,101,102,-1,2,102,103,-1,103,102,104,-1,103,104,105,-1,105,104,106,-1,105,106,107,-1,107,106,108,-1,107,108,109,-1,109,108,110,-1,109,110,111,-1,111,110,112,-1,111,112,113,-1,113,112,114,-1,113,114,115,-1,115,114,116,-1,115,116,117,-1,117,116,118,-1,117,118,19,-1,19,118,119,-1,19,119,27,-1,44,43,120,-1,120,43,121,-1,120,121,122,-1,122,121,123,-1,122,123,124,-1,124,123,125,-1,124,125,126,-1,126,125,127,-1,126,127,85,-1,85,127,128,-1,85,128,86,-1,5,129,3,-1,3,129,130,-1,3,130,131,-1,131,130,132,-1,131,132,133,-1,133,132,134,-1,133,134,90,-1,90,134,135,-1,90,135,91,-1,136,137,138,-1,70,139,71,-1,71,139,136,-1,71,136,140,-1,140,136,138,-1,141,142,136,-1,136,142,143,-1,136,143,137,-1,144,145,146,-1,145,147,146,-1,146,147,148,-1,146,148,149,-1,141,136,146,-1,146,136,150,-1,146,150,144,-1,151,39,152,-1,152,39,74,-1,152,74,153,-1,153,74,76,-1,153,76,154,-1,154,76,78,-1,154,78,155,-1,151,156,39,-1,39,156,157,-1,39,157,38,-1,38,157,158,-1,38,158,36,-1,36,158,159,-1,36,159,34,-1,34,159,160,-1,34,160,87,-1,87,160,161,-1,87,161,85,-1,126,85,162,-1,162,85,161,-1,162,163,126,-1,126,163,164,-1,126,164,124,-1,124,164,165,-1,124,165,122,-1,122,165,166,-1,122,166,120,-1,120,166,167,-1,120,167,44,-1,44,167,42,-1,42,167,168,-1,42,168,169,-1,42,169,170,-1,42,170,40,-1,40,170,171,-1,40,171,9,-1,9,171,172,-1,9,172,47,-1,47,172,173,-1,47,173,15,-1,15,173,174,-1,15,174,5,-1,5,174,175,-1,5,175,129,-1,129,175,176,-1,129,176,130,-1,130,176,177,-1,130,177,132,-1,178,91,179,-1,179,91,135,-1,179,135,180,-1,180,135,134,-1,180,134,181,-1,181,134,132,-1,181,132,177,-1,178,182,91,-1,91,182,183,-1,91,183,93,-1,93,183,184,-1,93,184,95,-1,95,184,185,-1,95,185,97,-1,97,185,186,-1,97,186,99,-1,99,186,187,-1,99,187,100,-1,100,187,188,-1,100,188,13,-1,13,188,189,-1,13,189,14,-1,14,189,190,-1,14,190,0,-1,190,191,0,-1,0,191,192,-1,0,192,1,-1,1,192,193,-1,1,193,25,-1,25,193,194,-1,25,194,53,-1,194,195,53,-1,53,195,196,-1,53,196,54,-1,54,196,197,-1,54,197,56,-1,198,20,8,-1,56,197,199,-1,200,21,199,-1,199,21,58,-1,199,58,56,-1,200,201,21,-1,21,201,202,-1,21,202,22,-1,22,202,203,-1,22,203,6,-1,6,203,204,-1,6,204,7,-1,7,204,205,-1,7,205,8,-1,8,205,206,-1,8,206,198,-1,18,20,207,-1,207,20,198,-1,16,18,208,-1,208,18,207,-1,17,16,209,-1,209,16,208,-1,19,17,210,-1,210,17,209,-1,19,210,211,-1,19,211,117,-1,117,211,212,-1,117,212,115,-1,115,212,213,-1,115,213,113,-1,113,213,214,-1,113,214,111,-1,111,214,215,-1,111,215,109,-1,109,215,216,-1,109,216,107,-1,107,216,217,-1,107,217,105,-1,105,217,218,-1,105,218,103,-1,103,218,219,-1,103,219,2,-1,2,219,220,-1,2,220,12,-1,12,220,221,-1,12,221,98,-1,98,221,222,-1,98,222,96,-1,96,222,223,-1,96,223,94,-1,94,223,224,-1,94,224,92,-1,90,92,224,-1,224,225,90,-1,90,225,226,-1,90,226,227,-1,228,131,227,-1,227,131,133,-1,227,133,90,-1,228,229,131,-1,131,229,230,-1,131,230,3,-1,3,230,231,-1,3,231,4,-1,4,231,232,-1,4,232,45,-1,45,232,233,-1,45,233,46,-1,46,233,234,-1,46,234,48,-1,48,234,235,-1,48,235,49,-1,49,235,236,-1,49,236,10,-1,10,236,237,-1,10,237,11,-1,11,237,238,-1,11,238,41,-1,41,238,239,-1,41,239,43,-1,43,239,240,-1,43,240,121,-1,121,240,241,-1,121,241,123,-1,123,241,242,-1,123,242,125,-1,125,242,243,-1,125,243,127,-1,127,243,244,-1,127,244,128,-1,128,244,245,-1,128,245,86,-1,86,245,246,-1,86,246,88,-1,88,246,247,-1,88,247,89,-1,89,247,32,-1,32,247,248,-1,32,248,249,-1,33,32,250,-1,250,32,249,-1,33,250,251,-1,33,251,35,-1,35,251,252,-1,35,252,37,-1,37,252,253,-1,37,253,72,-1,72,253,254,-1,72,254,73,-1,73,254,255,-1,73,255,75,-1,255,256,75,-1,75,256,257,-1,75,257,77,-1,77,257,258,-1,77,258,79,-1,79,258,259,-1,79,259,81,-1,81,259,260,-1,81,260,83,-1,83,260,261,-1,83,261,84,-1,84,261,262,-1,84,262,62,-1,62,262,263,-1,62,263,64,-1,64,263,264,-1,64,264,66,-1,66,264,265,-1,66,265,68,-1,70,68,266,-1,266,68,265,-1,70,266,267,-1,70,267,139,-1,139,267,268,-1,139,268,136,-1,136,268,269,-1,136,269,150,-1,150,269,270,-1,150,270,144,-1,144,270,271,-1,144,271,145,-1,145,271,272,-1,145,272,147,-1,147,272,273,-1,147,273,148,-1,148,273,274,-1,148,274,149,-1,149,274,275,-1,149,275,146,-1,146,275,276,-1,146,276,141,-1,141,276,277,-1,141,277,142,-1,142,277,278,-1,142,278,143,-1,143,278,279,-1,143,279,137,-1,137,279,280,-1,137,280,138,-1,138,280,281,-1,138,281,140,-1,140,281,282,-1,140,282,71,-1,71,282,283,-1,71,283,69,-1,67,69,284,-1,284,69,283,-1,67,284,285,-1,67,285,65,-1,65,285,286,-1,65,286,63,-1,63,286,287,-1,63,287,61,-1,61,287,288,-1,61,288,82,-1,82,288,289,-1,82,289,80,-1,80,289,155,-1,80,155,78,-1,112,290,291,-1,112,291,114,-1,114,291,292,-1,114,292,116,-1,116,292,293,-1,116,293,118,-1,118,293,294,-1,118,294,119,-1,119,294,295,-1,119,295,27,-1,27,295,296,-1,27,296,28,-1,28,296,297,-1,28,297,29,-1,29,297,298,-1,29,298,30,-1,30,298,299,-1,30,299,31,-1,31,299,300,-1,31,300,60,-1,60,300,301,-1,60,301,59,-1,59,301,302,-1,59,302,57,-1,57,302,303,-1,57,303,55,-1,55,303,304,-1,55,304,26,-1,26,304,305,-1,26,305,24,-1,24,305,306,-1,24,306,23,-1,23,306,307,-1,23,307,52,-1,52,307,308,-1,52,308,51,-1,51,308,309,-1,51,309,50,-1,50,309,310,-1,50,310,101,-1,101,310,311,-1,101,311,102,-1,102,311,312,-1,102,312,104,-1,104,312,313,-1,104,313,106,-1,106,313,314,-1,106,314,108,-1,108,314,315,-1,108,315,110,-1,110,315,290,-1,110,290,112,-1,
        ]
    }
}
Shape{
    appearance Appearance {
        material  Material 	{
            diffuseColor 0.2235294117647059 0.2235294117647059 0.2235294117647059
            specularColor 0.11372549019607843 0.11372549019607843 0.11372549019607843
            ambientIntensity 0.2
            transparency 0
            shininess 0.5
        }
    }
    geometry IndexedFaceSet {
        ccw TRUE
        solid FALSE
        coord DEF co Coordinate {
            point [
                0.6586 -1.1811 0.4608, 0.6565 -1.1811 0.5332, 0.6498 -1.1811 0.4598, 0.6498 -1.1811 0.5338, 0.6411 -1.1811 0.5327, 0.6327 -1.1811 0.5296, 0.6252 -1.1811 0.5244, 0.62 -1.1811 0.5187, 0.6152 -1.1811 0.4835, 0.6194 -1.1811 0.4757, 0.6255 -1.1811 0.4689, 0.6742 -1.1811 0.469, 0.6795 -1.1811 0.5188, 0.6732 -1.1811 0.5254, 0.6331 -1.1811 0.4638, 0.6419 -1.1811 0.4606, 0.6669 -1.1811 0.4639, 0.6654 -1.1811 0.5303, 0.6154 -1.1811 0.5106, 0.6131 -1.1811 0.5015, 0.6131 -1.1811 0.4922, 0.6845 -1.1811 0.4841, 0.6866 -1.1811 0.4933, 0.6803 -1.1811 0.4758, 0.6864 -1.1811 0.5025, 0.6839 -1.1811 0.5111, 0.6839 -1.1811 0.5111
            ]
        }
        coordIndex [
            0,1,2,-1,2,1,3,-1,2,3,4,-1,4,5,2,-1,2,5,6,-1,2,6,7,-1,8,9,7,-1,7,9,10,-1,11,12,13,-1,10,14,7,-1,7,14,15,-1,7,15,2,-1,0,16,1,-1,1,16,11,-1,1,11,17,-1,17,11,13,-1,18,19,7,-1,7,19,20,-1,7,20,8,-1,21,22,23,-1,23,22,24,-1,23,24,11,-1,11,24,25,-1,11,25,12,-1,
        ]
    }
}