#VRML V2.0 utf8
# 3D model generated by easyeda2kicad.py (https://github.com/uPesy/easyeda2kicad.py)

Shape{
    appearance Appearance {
        material  Material 	{
            diffuseColor 0.20784313725490197 0.20784313725490197 0.20784313725490197
            specularColor 0.01568627450980392 0.01568627450980392 0.01568627450980392
            ambientIntensity 0.2
            transparency 0
            shininess 0.5
        }
    }
    geometry IndexedFaceSet {
        ccw TRUE
        solid FALSE
        coord DEF co Coordinate {
            point [
                0.1586 -0.4959 -0.2756, 0.4172 -0.4959 -0.2756, 0.4172 -0.5594 -0.2756, -0.1432 -0.4959 -0.2756, -0.0323 -0.4959 -0.2756, -0.0323 -0.5594 -0.2756, 0.4172 -0.4331 -0.2756, 0.6102 -0.4331 -0.2756, 0.4921 -0.1378 -0.2756, 0.4921 0.1378 -0.2756, 0.6102 -0.1378 -0.2756, 0.6102 0.1378 -0.2756, 0.1586 -0.4331 -0.2756, 0.0541 -0.4331 -0.2756, 0.0541 -0.4959 -0.2756, -0.0323 -0.4331 -0.2756, -0.1432 -0.4331 -0.2756, -0.6102 -0.4331 -0.2756, -0.6102 0.1378 -0.2756, -0.4921 0.1378 -0.2756, -0.4921 -0.1378 -0.2756, 0.9179 -0.4959 -0.2756, 0.9179 0.721 -0.2756, 0.6102 0.4331 -0.2756, 0.4172 0.721 -0.2756, 0.4172 0.4331 -0.2756, 0.1586 0.721 -0.2756, 0.1586 0.4331 -0.2756, 0.0541 0.721 -0.2756, 0.0541 0.4331 -0.2756, -0.0323 0.721 -0.2756, -0.0323 0.4331 -0.2756, -0.1432 0.721 -0.2756, -0.1432 0.4331 -0.2756, -0.9179 0.721 -0.2756, -0.6102 0.4331 -0.2756, -0.9179 -0.4959 -0.2756, -0.6102 -0.1378 -0.2756, 0.0541 -0.5594 -0.2756, 0.0657 -0.6591 -0.2756, 0.0541 -0.6789 -0.2756, 0.0657 -0.6721 -0.2756, 0.0783 -0.6772 -0.2756, 0.083 -0.5594 -0.2756, 0.0793 -0.5596 -0.2756, 0.0657 -0.5633 -0.2756, 0.0657 -0.5792 -0.2756, 0.079 -0.5735 -0.2756, 0.0678 -0.6603 -0.2756, 0.0933 -0.5716 -0.2756, 0.105 -0.5729 -0.2756, 0.1138 -0.5761 -0.2756, 0.122 -0.5816 -0.2756, 0.1291 -0.5894 -0.2756, 0.1377 -0.6204 -0.2756, 0.1365 -0.6332 -0.2756, 0.1333 -0.6433 -0.2756, 0.107 -0.6654 -0.2756, 0.096 -0.6667 -0.2756, 0.1156 -0.6623 -0.2756, 0.1229 -0.6574 -0.2756, 0.1284 -0.6515 -0.2756, 0.0803 -0.6649 -0.2756, 0.134 -0.5986 -0.2756, 0.1371 -0.6112 -0.2756, 0.1242 -0.6742 -0.2756, 0.1337 -0.6681 -0.2756, 0.1586 -0.6789 -0.2756, 0.1425 -0.6588 -0.2756, 0.1488 -0.6475 -0.2756, 0.1473 -0.5912 -0.2756, 0.1404 -0.5802 -0.2756, 0.1586 -0.5594 -0.2756, 0.1297 -0.5699 -0.2756, 0.1185 -0.5634 -0.2756, 0.1053 -0.5596 -0.2756, 0.1023 -0.5594 -0.2756, 0.1524 -0.635 -0.2756, 0.1535 -0.6214 -0.2756, 0.1518 -0.6046 -0.2756, 0.0902 -0.6789 -0.2756, 0.0949 -0.6796 -0.2756, 0.0541 -0.721 -0.2756, 0.0982 -0.6796 -0.2756, 0.1586 -0.721 -0.2756, 0.1051 -0.6789 -0.2756, 0.1127 -0.6781 -0.2756, 0.0935 -0.5586 -0.2756, -0.2368 -0.6782 -0.2756, -0.1432 -0.6789 -0.2756, -0.2541 -0.6782 -0.2756, -0.9179 -0.6789 -0.2756, -0.208 -0.5601 -0.2756, -0.9179 -0.5594 -0.2756, -0.1432 -0.5594 -0.2756, -0.2249 -0.6451 -0.2756, -0.1761 -0.6451 -0.2756, -0.1648 -0.6782 -0.2756, -0.1475 -0.6782 -0.2756, -0.1922 -0.5601 -0.2756, -0.0438 -0.6782 -0.2756, -0.0438 -0.5601 -0.2756, -0.133 -0.6458 -0.2756, -0.1262 -0.6564 -0.2756, -0.1165 -0.6657 -0.2756, -0.1041 -0.6729 -0.2756, -0.0771 -0.5601 -0.2756, -0.0942 -0.5619 -0.2756, -0.108 -0.5668 -0.2756, -0.1209 -0.5754 -0.2756, -0.121 -0.5755 -0.2756, -0.1293 -0.5847 -0.2756, -0.1348 -0.5949 -0.2756, -0.0905 -0.6769 -0.2756, -0.0759 -0.6782 -0.2756, -0.0323 -0.6789 -0.2756, -0.138 -0.6065 -0.2756, -0.1389 -0.6177 -0.2756, -0.1372 -0.6335 -0.2756, -0.0208 -0.6652 -0.2756, -0.0208 -0.6782 -0.2756, 0.0426 -0.6782 -0.2756, 0.0426 -0.5601 -0.2756, -0.0179 -0.5601 -0.2756, -0.0179 -0.573 -0.2756, -0.015 -0.6249 -0.2756, 0.0268 -0.6249 -0.2756, 0.0268 -0.6652 -0.2756, -0.015 -0.6119 -0.2756, 0.0268 -0.6119 -0.2756, 0.0268 -0.573 -0.2756, 0.2083 -0.5601 -0.2756, 0.2083 -0.6652 -0.2756, 0.1636 -0.6652 -0.2756, 0.1636 -0.6782 -0.2756, 0.2241 -0.6782 -0.2756, -0.0323 -0.721 -0.2756, -0.1432 -0.721 -0.2756, -0.9179 -0.721 -0.2756, 0.2241 -0.5601 -0.2756, 0.4172 -0.6789 -0.2756, 0.4172 -0.721 -0.2756, 0.9179 -0.5594 -0.2756, 0.9179 -0.6789 -0.2756, 0.9179 -0.721 -0.2756, 0.9179 0.7406 0.258, 0.945 0.7677 0.0, 0.8287 0.7677 -0.0, 0.8287 0.7594 0.0787, 0.6713 0.7594 0.0787, -0.9179 0.7406 0.258, 0.1713 0.7594 0.0787, 0.1713 0.7677 -0.0, -0.1713 0.7677 0.0, -0.1713 0.7594 0.0787, -0.3287 0.7594 0.0787, 0.3287 0.7594 0.0787, 0.3287 0.7677 0.0, 0.6713 0.7677 -0.0, -0.8287 0.7677 -0.0, -0.945 0.7677 -0.0, -0.8287 0.7594 0.0787, -0.6713 0.7594 0.0787, -0.6713 0.7677 0.0, -0.3287 0.7677 -0.0, -0.945 -0.7677 0.0, -0.8287 -0.7677 0.0, -0.9274 -0.7501 0.1673, -0.8287 -0.7594 0.0787, -0.6713 -0.7594 0.0787, -0.1713 -0.7677 0.0, 0.1713 -0.7677 0.0, -0.1713 -0.7594 0.0787, 0.1713 -0.7594 0.0787, -0.6713 -0.7677 0.0, -0.3287 -0.7677 0.0, -0.3287 -0.7594 0.0787, 0.9274 -0.7501 0.1673, 0.3287 -0.7594 0.0787, 0.8287 -0.7677 0.0, 0.945 -0.7677 -0.0, 0.8287 -0.7594 0.0787, 0.6713 -0.7594 0.0787, 0.6713 -0.7677 0.0, 0.3287 -0.7677 0.0, 0.9646 0.7481 -0.0, 0.9375 0.721 0.258, 0.9646 -0.7481 -0.0, 0.9375 -0.5759 0.258, 0.947 -0.7306 0.1673, -0.9375 0.721 0.258, -0.9646 0.7481 0.0, -0.9375 -0.5759 0.258, -0.9646 -0.7481 0.0, -0.947 -0.7306 0.1673, -0.6993 -0.4621 0.2756, 0.9179 -0.5759 0.2756, -0.6884 -0.4478 0.2756, -0.6815 -0.4312 0.2756, -0.7659 -0.3468 0.2756, -0.9179 0.721 0.2756, -0.7825 -0.3537 0.2756, -0.7967 -0.3647 0.2756, -0.6993 -0.3647 0.2756, -0.6884 -0.3789 0.2756, 0.9179 0.721 0.2756, -0.6815 -0.3956 0.2756, -0.6791 -0.4134 0.2756, -0.7136 -0.4731 0.2756, -0.7302 -0.4799 0.2756, -0.9179 -0.5759 0.2756, -0.748 -0.4823 0.2756, -0.7659 -0.4799 0.2756, -0.7825 -0.4731 0.2756, -0.8146 -0.4312 0.2756, -0.8169 -0.4134 0.2756, -0.8146 -0.3956 0.2756, -0.8077 -0.3789 0.2756, -0.7967 -0.4621 0.2756, -0.8077 -0.4478 0.2756, -0.748 -0.3445 0.2756, -0.7302 -0.3468 0.2756, -0.7136 -0.3537 0.2756, 0.9179 -0.7406 -0.258, -0.9179 -0.7406 -0.258, -0.9375 0.721 -0.258, -0.9375 -0.721 -0.258, -0.9179 0.7406 -0.258, 0.9179 0.7406 -0.258, 0.9375 0.721 -0.258, 0.9375 -0.721 -0.258, 0.9375 -0.721 -0.258
            ]
        }
        coordIndex [
            0,1,2,-1,3,4,5,-1,1,6,7,-1,8,9,10,-1,10,9,11,-1,6,1,12,-1,12,1,0,-1,12,0,13,-1,13,0,14,-1,13,14,15,-1,15,4,16,-1,16,4,3,-1,16,3,17,-1,18,19,20,-1,7,10,21,-1,21,10,11,-1,21,11,22,-1,22,11,23,-1,22,23,24,-1,24,23,25,-1,24,25,26,-1,26,25,27,-1,26,27,28,-1,28,27,29,-1,28,29,30,-1,30,29,31,-1,30,31,32,-1,32,31,33,-1,32,33,34,-1,34,33,35,-1,34,35,36,-1,36,35,18,-1,36,18,37,-1,37,18,20,-1,38,39,40,-1,40,39,41,-1,40,41,42,-1,14,43,38,-1,38,43,44,-1,44,45,38,-1,38,45,46,-1,38,46,39,-1,39,46,47,-1,39,47,48,-1,48,47,49,-1,48,49,50,-1,50,51,48,-1,48,51,52,-1,48,52,53,-1,54,55,48,-1,48,55,56,-1,57,58,59,-1,59,58,60,-1,56,61,48,-1,48,61,60,-1,48,60,62,-1,62,60,58,-1,53,63,48,-1,48,63,64,-1,48,64,54,-1,65,66,67,-1,67,66,68,-1,67,68,69,-1,70,71,72,-1,72,71,73,-1,73,74,72,-1,72,74,75,-1,72,75,76,-1,69,77,67,-1,67,77,78,-1,67,78,72,-1,72,78,79,-1,72,79,70,-1,80,81,82,-1,82,81,83,-1,82,83,84,-1,84,83,85,-1,84,85,67,-1,67,85,86,-1,67,86,65,-1,2,72,0,-1,0,72,76,-1,0,76,14,-1,14,76,87,-1,14,87,43,-1,88,89,90,-1,90,89,91,-1,90,91,92,-1,92,91,93,-1,92,93,94,-1,94,93,36,-1,95,96,88,-1,88,96,97,-1,88,97,89,-1,89,97,98,-1,89,98,94,-1,94,98,99,-1,94,99,92,-1,100,101,5,-1,102,103,89,-1,89,103,104,-1,89,104,105,-1,106,107,94,-1,94,107,108,-1,94,108,109,-1,37,17,36,-1,36,17,3,-1,36,3,94,-1,94,3,5,-1,94,5,106,-1,106,5,101,-1,109,110,94,-1,94,110,111,-1,94,111,112,-1,105,113,89,-1,89,113,114,-1,89,114,115,-1,112,116,94,-1,94,116,117,-1,94,117,89,-1,89,117,118,-1,89,118,102,-1,119,120,115,-1,115,120,121,-1,115,121,40,-1,40,121,38,-1,38,121,122,-1,38,122,123,-1,114,100,115,-1,115,100,5,-1,115,5,124,-1,15,14,4,-1,4,14,38,-1,4,38,5,-1,5,38,123,-1,5,123,124,-1,125,126,127,-1,127,119,125,-1,125,119,115,-1,125,115,128,-1,128,115,124,-1,128,124,129,-1,129,124,130,-1,131,132,72,-1,72,132,133,-1,72,133,67,-1,67,133,134,-1,67,134,135,-1,42,80,40,-1,40,80,82,-1,40,82,115,-1,115,82,136,-1,115,136,89,-1,89,136,137,-1,89,137,91,-1,91,137,138,-1,131,72,139,-1,139,72,2,-1,139,2,135,-1,135,2,140,-1,135,140,67,-1,67,140,141,-1,67,141,84,-1,7,21,1,-1,1,21,142,-1,1,142,2,-1,2,142,143,-1,2,143,140,-1,140,143,144,-1,140,144,141,-1,145,146,147,-1,147,148,145,-1,145,148,149,-1,145,149,150,-1,151,152,153,-1,154,155,150,-1,153,154,151,-1,151,154,150,-1,151,150,156,-1,156,150,149,-1,156,149,157,-1,157,149,158,-1,159,160,161,-1,161,160,150,-1,161,150,162,-1,162,150,155,-1,162,155,163,-1,163,155,164,-1,165,166,167,-1,167,166,168,-1,167,168,169,-1,170,171,172,-1,172,171,173,-1,174,175,169,-1,169,175,176,-1,169,176,167,-1,167,176,172,-1,167,172,177,-1,177,172,173,-1,177,173,178,-1,179,180,181,-1,181,180,177,-1,181,177,182,-1,182,177,178,-1,182,178,183,-1,183,178,184,-1,185,186,187,-1,187,186,188,-1,187,188,189,-1,190,191,192,-1,192,191,193,-1,192,193,194,-1,195,196,197,-1,197,196,198,-1,199,200,201,-1,201,200,202,-1,203,204,205,-1,205,204,206,-1,205,206,196,-1,196,206,207,-1,196,207,198,-1,195,208,196,-1,196,208,209,-1,196,209,210,-1,209,211,210,-1,210,211,212,-1,210,212,213,-1,214,215,210,-1,210,215,216,-1,210,216,200,-1,200,216,217,-1,200,217,202,-1,213,218,210,-1,210,218,219,-1,210,219,214,-1,199,220,200,-1,200,220,221,-1,200,221,205,-1,205,221,222,-1,205,222,203,-1,180,179,223,-1,223,179,183,-1,183,184,223,-1,223,184,171,-1,223,171,224,-1,224,171,170,-1,224,170,175,-1,175,174,224,-1,224,174,166,-1,224,166,165,-1,225,226,191,-1,191,226,193,-1,163,227,159,-1,159,227,160,-1,163,164,227,-1,227,164,153,-1,227,153,228,-1,228,153,152,-1,228,152,157,-1,157,158,228,-1,228,158,147,-1,228,147,146,-1,185,187,229,-1,229,187,230,-1,
        ]
    }
}
Shape{
    appearance Appearance {
        material  Material 	{
            diffuseColor 0.8313725490196079 0.8313725490196079 0.8196078431372549
            specularColor 0.6666666666666666 0.6666666666666666 0.6549019607843137
            ambientIntensity 0.2
            transparency 0
            shininess 0.5
        }
    }
    geometry IndexedFaceSet {
        ccw TRUE
        solid FALSE
        coord DEF co Coordinate {
            point [
                0.8287 -0.8579 0.0787, 0.8287 -0.7594 0.0787, 0.6713 -0.8579 0.0787, 0.6713 -0.7594 0.0787, 0.6713 -0.8671 0.0776, 0.8287 -0.8671 0.0776, 0.6713 -0.8758 0.0744, 0.8287 -0.8758 0.0744, 0.6713 -0.8835 0.0692, 0.8287 -0.8835 0.0692, 0.6713 -0.8898 0.0624, 0.8287 -0.8898 0.0624, 0.6713 -0.8943 0.0542, 0.8287 -0.8943 0.0542, 0.6713 -0.8968 0.0453, 0.8287 -0.8968 0.0453, 0.8287 -0.9368 -0.2195, 0.6713 -0.9368 -0.2195, 0.8287 -0.9381 -0.224, 0.6713 -0.9381 -0.224, 0.8287 -0.9403 -0.228, 0.6713 -0.9403 -0.228, 0.8287 -0.9435 -0.2315, 0.6713 -0.9435 -0.2315, 0.8287 -0.9473 -0.2341, 0.6713 -0.9473 -0.2341, 0.8287 -0.9517 -0.2357, 0.6713 -0.9517 -0.2357, 0.8287 -0.9563 -0.2362, 0.6713 -0.9563 -0.2362, 0.8287 -1.1811 -0.2362, 0.6713 -1.1811 -0.2362, 0.8287 -1.1811 -0.315, 0.6713 -1.1811 -0.315, 0.8287 -0.9055 -0.315, 0.6713 -0.9055 -0.315, 0.6713 -0.8963 -0.3139, 0.8287 -0.8963 -0.3139, 0.6713 -0.8876 -0.3106, 0.8287 -0.8876 -0.3106, 0.6713 -0.8798 -0.3054, 0.8287 -0.8798 -0.3054, 0.6713 -0.8736 -0.2986, 0.8287 -0.8736 -0.2986, 0.6713 -0.8691 -0.2904, 0.8287 -0.8691 -0.2904, 0.6713 -0.8666 -0.2815, 0.8287 -0.8666 -0.2815, 0.8287 -0.8265 -0.0167, 0.6713 -0.8265 -0.0167, 0.8287 -0.8253 -0.0123, 0.6713 -0.8253 -0.0123, 0.8287 -0.8231 -0.0082, 0.6713 -0.8231 -0.0082, 0.8287 -0.8199 -0.0048, 0.6713 -0.8199 -0.0048, 0.8287 -0.816 -0.0022, 0.6713 -0.816 -0.0022, 0.8287 -0.8117 -0.0005, 0.6713 -0.8117 -0.0005, 0.8287 -0.8071 0.0, 0.6713 -0.8071 0.0, 0.8287 -0.7677 0.0, 0.6713 -0.7677 0.0, 0.8287 0.8968 0.0453, 0.6713 0.8968 0.0453, 0.6713 0.8943 0.0542, 0.8287 0.8943 0.0542, 0.6713 0.8898 0.0624, 0.8287 0.8898 0.0624, 0.6713 0.8835 0.0692, 0.8287 0.8835 0.0692, 0.6713 0.8758 0.0744, 0.8287 0.8758 0.0744, 0.6713 0.8671 0.0776, 0.8287 0.8671 0.0776, 0.6713 0.8579 0.0787, 0.8287 0.8579 0.0787, 0.8287 0.7594 0.0787, 0.6713 0.7594 0.0787, 0.8287 0.8071 -0.0, 0.8287 0.7677 -0.0, 0.6713 0.8071 -0.0, 0.6713 0.7677 -0.0, 0.8287 0.8117 -0.0005, 0.6713 0.8117 -0.0005, 0.8287 0.816 -0.0022, 0.6713 0.816 -0.0022, 0.8287 0.8199 -0.0048, 0.6713 0.8199 -0.0048, 0.8287 0.8231 -0.0082, 0.6713 0.8231 -0.0082, 0.8287 0.8253 -0.0123, 0.6713 0.8253 -0.0123, 0.8287 0.8265 -0.0167, 0.6713 0.8265 -0.0167, 0.8287 0.8666 -0.2815, 0.6713 0.8666 -0.2815, 0.6713 0.8691 -0.2904, 0.8287 0.8691 -0.2904, 0.6713 0.8736 -0.2986, 0.8287 0.8736 -0.2986, 0.6713 0.8798 -0.3054, 0.8287 0.8798 -0.3054, 0.6713 0.8876 -0.3106, 0.8287 0.8876 -0.3106, 0.6713 0.8963 -0.3139, 0.8287 0.8963 -0.3139, 0.6713 0.9055 -0.315, 0.8287 0.9055 -0.315, 0.8287 1.1811 -0.315, 0.6713 1.1811 -0.315, 0.8287 1.1811 -0.2362, 0.6713 1.1811 -0.2362, 0.8287 0.9563 -0.2362, 0.6713 0.9563 -0.2362, 0.8287 0.9517 -0.2357, 0.6713 0.9517 -0.2357, 0.8287 0.9473 -0.2341, 0.6713 0.9473 -0.2341, 0.8287 0.9435 -0.2315, 0.6713 0.9435 -0.2315, 0.8287 0.9403 -0.228, 0.6713 0.9403 -0.228, 0.8287 0.9381 -0.224, 0.6713 0.9381 -0.224, 0.8287 0.9368 -0.2195, 0.6713 0.9368 -0.2195, 0.3287 -0.8579 0.0787, 0.3287 -0.7594 0.0787, 0.1713 -0.8579 0.0787, 0.1713 -0.7594 0.0787, 0.1713 -0.8671 0.0776, 0.3287 -0.8671 0.0776, 0.1713 -0.8758 0.0744, 0.3287 -0.8758 0.0744, 0.1713 -0.8835 0.0692, 0.3287 -0.8835 0.0692, 0.1713 -0.8898 0.0624, 0.3287 -0.8898 0.0624, 0.1713 -0.8943 0.0542, 0.3287 -0.8943 0.0542, 0.1713 -0.8968 0.0453, 0.3287 -0.8968 0.0453, 0.3287 -0.9368 -0.2195, 0.1713 -0.9368 -0.2195, 0.3287 -0.9381 -0.224, 0.1713 -0.9381 -0.224, 0.3287 -0.9403 -0.228, 0.1713 -0.9403 -0.228, 0.3287 -0.9435 -0.2315, 0.1713 -0.9435 -0.2315, 0.3287 -0.9473 -0.2341, 0.1713 -0.9473 -0.2341, 0.3287 -0.9517 -0.2357, 0.1713 -0.9517 -0.2357, 0.3287 -0.9563 -0.2362, 0.1713 -0.9563 -0.2362, 0.3287 -1.1811 -0.2362, 0.1713 -1.1811 -0.2362, 0.3287 -1.1811 -0.315, 0.1713 -1.1811 -0.315, 0.3287 -0.9055 -0.315, 0.1713 -0.9055 -0.315, 0.1713 -0.8963 -0.3139, 0.3287 -0.8963 -0.3139, 0.1713 -0.8876 -0.3106, 0.3287 -0.8876 -0.3106, 0.1713 -0.8798 -0.3054, 0.3287 -0.8798 -0.3054, 0.1713 -0.8736 -0.2986, 0.3287 -0.8736 -0.2986, 0.1713 -0.8691 -0.2904, 0.3287 -0.8691 -0.2904, 0.1713 -0.8666 -0.2815, 0.3287 -0.8666 -0.2815, 0.3287 -0.8265 -0.0167, 0.1713 -0.8265 -0.0167, 0.3287 -0.8253 -0.0123, 0.1713 -0.8253 -0.0123, 0.3287 -0.8231 -0.0082, 0.1713 -0.8231 -0.0082, 0.3287 -0.8199 -0.0048, 0.1713 -0.8199 -0.0048, 0.3287 -0.816 -0.0022, 0.1713 -0.816 -0.0022, 0.3287 -0.8117 -0.0005, 0.1713 -0.8117 -0.0005, 0.3287 -0.8071 0.0, 0.1713 -0.8071 0.0, 0.3287 -0.7677 0.0, 0.1713 -0.7677 0.0, 0.3287 0.8968 0.0453, 0.1713 0.8968 0.0453, 0.1713 0.8943 0.0542, 0.3287 0.8943 0.0542, 0.1713 0.8898 0.0624, 0.3287 0.8898 0.0624, 0.1713 0.8835 0.0692, 0.3287 0.8835 0.0692, 0.1713 0.8758 0.0744, 0.3287 0.8758 0.0744, 0.1713 0.8671 0.0776, 0.3287 0.8671 0.0776, 0.1713 0.8579 0.0787, 0.3287 0.8579 0.0787, 0.3287 0.7594 0.0787, 0.1713 0.7594 0.0787, 0.3287 0.8071 -0.0, 0.3287 0.7677 0.0, 0.1713 0.8071 -0.0, 0.1713 0.7677 -0.0, 0.3287 0.8117 -0.0005, 0.1713 0.8117 -0.0005, 0.3287 0.816 -0.0022, 0.1713 0.816 -0.0022, 0.3287 0.8199 -0.0048, 0.1713 0.8199 -0.0048, 0.3287 0.8231 -0.0082, 0.1713 0.8231 -0.0082, 0.3287 0.8253 -0.0123, 0.1713 0.8253 -0.0123, 0.3287 0.8265 -0.0167, 0.1713 0.8265 -0.0167, 0.3287 0.8666 -0.2815, 0.1713 0.8666 -0.2815, 0.1713 0.8691 -0.2904, 0.3287 0.8691 -0.2904, 0.1713 0.8736 -0.2986, 0.3287 0.8736 -0.2986, 0.1713 0.8798 -0.3054, 0.3287 0.8798 -0.3054, 0.1713 0.8876 -0.3106, 0.3287 0.8876 -0.3106, 0.1713 0.8963 -0.3139, 0.3287 0.8963 -0.3139, 0.1713 0.9055 -0.315, 0.3287 0.9055 -0.315, 0.3287 1.1811 -0.315, 0.1713 1.1811 -0.315, 0.3287 1.1811 -0.2362, 0.1713 1.1811 -0.2362, 0.3287 0.9563 -0.2362, 0.1713 0.9563 -0.2362, 0.3287 0.9517 -0.2357, 0.1713 0.9517 -0.2357, 0.3287 0.9473 -0.2341, 0.1713 0.9473 -0.2341, 0.3287 0.9435 -0.2315, 0.1713 0.9435 -0.2315, 0.3287 0.9403 -0.228, 0.1713 0.9403 -0.228, 0.3287 0.9381 -0.224, 0.1713 0.9381 -0.224, 0.3287 0.9368 -0.2195, 0.1713 0.9368 -0.2195, -0.1713 -0.8579 0.0787, -0.1713 -0.7594 0.0787, -0.3287 -0.8579 0.0787, -0.3287 -0.7594 0.0787, -0.3287 -0.8671 0.0776, -0.1713 -0.8671 0.0776, -0.3287 -0.8758 0.0744, -0.1713 -0.8758 0.0744, -0.3287 -0.8835 0.0692, -0.1713 -0.8835 0.0692, -0.3287 -0.8898 0.0624, -0.1713 -0.8898 0.0624, -0.3287 -0.8943 0.0542, -0.1713 -0.8943 0.0542, -0.3287 -0.8968 0.0453, -0.1713 -0.8968 0.0453, -0.1713 -0.9368 -0.2195, -0.3287 -0.9368 -0.2195, -0.1713 -0.9381 -0.224, -0.3287 -0.9381 -0.224, -0.1713 -0.9403 -0.228, -0.3287 -0.9403 -0.228, -0.1713 -0.9435 -0.2315, -0.3287 -0.9435 -0.2315, -0.1713 -0.9473 -0.2341, -0.3287 -0.9473 -0.2341, -0.1713 -0.9517 -0.2357, -0.3287 -0.9517 -0.2357, -0.1713 -0.9563 -0.2362, -0.3287 -0.9563 -0.2362, -0.1713 -1.1811 -0.2362, -0.3287 -1.1811 -0.2362, -0.1713 -1.1811 -0.315, -0.3287 -1.1811 -0.315, -0.1713 -0.9055 -0.315, -0.3287 -0.9055 -0.315, -0.3287 -0.8963 -0.3139, -0.1713 -0.8963 -0.3139, -0.3287 -0.8876 -0.3106, -0.1713 -0.8876 -0.3106, -0.3287 -0.8798 -0.3054, -0.1713 -0.8798 -0.3054, -0.3287 -0.8736 -0.2986, -0.1713 -0.8736 -0.2986, -0.3287 -0.8691 -0.2904, -0.1713 -0.8691 -0.2904, -0.3287 -0.8666 -0.2815, -0.1713 -0.8666 -0.2815, -0.1713 -0.8265 -0.0167, -0.3287 -0.8265 -0.0167, -0.1713 -0.8253 -0.0123, -0.3287 -0.8253 -0.0123, -0.1713 -0.8231 -0.0082, -0.3287 -0.8231 -0.0082, -0.1713 -0.8199 -0.0048, -0.3287 -0.8199 -0.0048, -0.1713 -0.816 -0.0022, -0.3287 -0.816 -0.0022, -0.1713 -0.8117 -0.0005, -0.3287 -0.8117 -0.0005, -0.1713 -0.8071 0.0, -0.3287 -0.8071 0.0, -0.1713 -0.7677 0.0, -0.3287 -0.7677 0.0, -0.1713 0.8968 0.0453, -0.3287 0.8968 0.0453, -0.3287 0.8943 0.0542, -0.1713 0.8943 0.0542, -0.3287 0.8898 0.0624, -0.1713 0.8898 0.0624, -0.3287 0.8835 0.0692, -0.1713 0.8835 0.0692, -0.3287 0.8758 0.0744, -0.1713 0.8758 0.0744, -0.3287 0.8671 0.0776, -0.1713 0.8671 0.0776, -0.3287 0.8579 0.0787, -0.1713 0.8579 0.0787, -0.1713 0.7594 0.0787, -0.3287 0.7594 0.0787, -0.1713 0.8071 -0.0, -0.1713 0.7677 0.0, -0.3287 0.8071 -0.0, -0.3287 0.7677 -0.0, -0.1713 0.8117 -0.0005, -0.3287 0.8117 -0.0005, -0.1713 0.816 -0.0022, -0.3287 0.816 -0.0022, -0.1713 0.8199 -0.0048, -0.3287 0.8199 -0.0048, -0.1713 0.8231 -0.0082, -0.3287 0.8231 -0.0082, -0.1713 0.8253 -0.0123, -0.3287 0.8253 -0.0123, -0.1713 0.8265 -0.0167, -0.3287 0.8265 -0.0167, -0.1713 0.8666 -0.2815, -0.3287 0.8666 -0.2815, -0.3287 0.8691 -0.2904, -0.1713 0.8691 -0.2904, -0.3287 0.8736 -0.2986, -0.1713 0.8736 -0.2986, -0.3287 0.8798 -0.3054, -0.1713 0.8798 -0.3054, -0.3287 0.8876 -0.3106, -0.1713 0.8876 -0.3106, -0.3287 0.8963 -0.3139, -0.1713 0.8963 -0.3139, -0.3287 0.9055 -0.315, -0.1713 0.9055 -0.315, -0.1713 1.1811 -0.315, -0.3287 1.1811 -0.315, -0.1713 1.1811 -0.2362, -0.3287 1.1811 -0.2362, -0.1713 0.9563 -0.2362, -0.3287 0.9563 -0.2362, -0.1713 0.9517 -0.2357, -0.3287 0.9517 -0.2357, -0.1713 0.9473 -0.2341, -0.3287 0.9473 -0.2341, -0.1713 0.9435 -0.2315, -0.3287 0.9435 -0.2315, -0.1713 0.9403 -0.228, -0.3287 0.9403 -0.228, -0.1713 0.9381 -0.224, -0.3287 0.9381 -0.224, -0.1713 0.9368 -0.2195, -0.3287 0.9368 -0.2195, -0.6713 -0.8579 0.0787, -0.6713 -0.7594 0.0787, -0.8287 -0.8579 0.0787, -0.8287 -0.7594 0.0787, -0.8287 -0.8671 0.0776, -0.6713 -0.8671 0.0776, -0.8287 -0.8758 0.0744, -0.6713 -0.8758 0.0744, -0.8287 -0.8835 0.0692, -0.6713 -0.8835 0.0692, -0.8287 -0.8898 0.0624, -0.6713 -0.8898 0.0624, -0.8287 -0.8943 0.0542, -0.6713 -0.8943 0.0542, -0.8287 -0.8968 0.0453, -0.6713 -0.8968 0.0453, -0.6713 -0.9368 -0.2195, -0.8287 -0.9368 -0.2195, -0.6713 -0.9381 -0.224, -0.8287 -0.9381 -0.224, -0.6713 -0.9403 -0.228, -0.8287 -0.9403 -0.228, -0.6713 -0.9435 -0.2315, -0.8287 -0.9435 -0.2315, -0.6713 -0.9473 -0.2341, -0.8287 -0.9473 -0.2341, -0.6713 -0.9517 -0.2357, -0.8287 -0.9517 -0.2357, -0.6713 -0.9563 -0.2362, -0.8287 -0.9563 -0.2362, -0.6713 -1.1811 -0.2362, -0.8287 -1.1811 -0.2362, -0.6713 -1.1811 -0.315, -0.8287 -1.1811 -0.315, -0.6713 -0.9055 -0.315, -0.8287 -0.9055 -0.315, -0.8287 -0.8963 -0.3139, -0.6713 -0.8963 -0.3139, -0.8287 -0.8876 -0.3106, -0.6713 -0.8876 -0.3106, -0.8287 -0.8798 -0.3054, -0.6713 -0.8798 -0.3054, -0.8287 -0.8736 -0.2986, -0.6713 -0.8736 -0.2986, -0.8287 -0.8691 -0.2904, -0.6713 -0.8691 -0.2904, -0.8287 -0.8666 -0.2815, -0.6713 -0.8666 -0.2815, -0.6713 -0.8265 -0.0167, -0.8287 -0.8265 -0.0167, -0.6713 -0.8253 -0.0123, -0.8287 -0.8253 -0.0123, -0.6713 -0.8231 -0.0082, -0.8287 -0.8231 -0.0082, -0.6713 -0.8199 -0.0048, -0.8287 -0.8199 -0.0048, -0.6713 -0.816 -0.0022, -0.8287 -0.816 -0.0022, -0.6713 -0.8117 -0.0005, -0.8287 -0.8117 -0.0005, -0.6713 -0.8071 0.0, -0.8287 -0.8071 0.0, -0.6713 -0.7677 0.0, -0.8287 -0.7677 0.0, -0.6713 0.8968 0.0453, -0.8287 0.8968 0.0453, -0.8287 0.8943 0.0542, -0.6713 0.8943 0.0542, -0.8287 0.8898 0.0624, -0.6713 0.8898 0.0624, -0.8287 0.8835 0.0692, -0.6713 0.8835 0.0692, -0.8287 0.8758 0.0744, -0.6713 0.8758 0.0744, -0.8287 0.8671 0.0776, -0.6713 0.8671 0.0776, -0.8287 0.8579 0.0787, -0.6713 0.8579 0.0787, -0.6713 0.7594 0.0787, -0.8287 0.7594 0.0787, -0.6713 0.8071 -0.0, -0.6713 0.7677 0.0, -0.8287 0.8071 -0.0, -0.8287 0.7677 -0.0, -0.6713 0.8117 -0.0005, -0.8287 0.8117 -0.0005, -0.6713 0.816 -0.0022, -0.8287 0.816 -0.0022, -0.6713 0.8199 -0.0048, -0.8287 0.8199 -0.0048, -0.6713 0.8231 -0.0082, -0.8287 0.8231 -0.0082, -0.6713 0.8253 -0.0123, -0.8287 0.8253 -0.0123, -0.6713 0.8265 -0.0167, -0.8287 0.8265 -0.0167, -0.6713 0.8666 -0.2815, -0.8287 0.8666 -0.2815, -0.8287 0.8691 -0.2904, -0.6713 0.8691 -0.2904, -0.8287 0.8736 -0.2986, -0.6713 0.8736 -0.2986, -0.8287 0.8798 -0.3054, -0.6713 0.8798 -0.3054, -0.8287 0.8876 -0.3106, -0.6713 0.8876 -0.3106, -0.8287 0.8963 -0.3139, -0.6713 0.8963 -0.3139, -0.8287 0.9055 -0.315, -0.6713 0.9055 -0.315, -0.6713 1.1811 -0.315, -0.8287 1.1811 -0.315, -0.6713 1.1811 -0.2362, -0.8287 1.1811 -0.2362, -0.6713 0.9563 -0.2362, -0.8287 0.9563 -0.2362, -0.6713 0.9517 -0.2357, -0.8287 0.9517 -0.2357, -0.6713 0.9473 -0.2341, -0.8287 0.9473 -0.2341, -0.6713 0.9435 -0.2315, -0.8287 0.9435 -0.2315, -0.6713 0.9403 -0.228, -0.8287 0.9403 -0.228, -0.6713 0.9381 -0.224, -0.8287 0.9381 -0.224, -0.6713 0.9368 -0.2195, -0.8287 0.9368 -0.2195, -0.8287 0.9368 -0.2195
            ]
        }
        coordIndex [
            0,1,2,-1,2,1,3,-1,0,2,4,-1,0,4,5,-1,5,4,6,-1,5,6,7,-1,7,6,8,-1,7,8,9,-1,9,8,10,-1,9,10,11,-1,11,10,12,-1,11,12,13,-1,13,12,14,-1,13,14,15,-1,16,15,17,-1,17,15,14,-1,16,17,18,-1,18,17,19,-1,18,19,20,-1,20,19,21,-1,20,21,22,-1,22,21,23,-1,22,23,24,-1,24,23,25,-1,24,25,26,-1,26,25,27,-1,26,27,28,-1,28,27,29,-1,30,28,31,-1,31,28,29,-1,32,30,33,-1,33,30,31,-1,34,32,35,-1,35,32,33,-1,34,35,36,-1,34,36,37,-1,37,36,38,-1,37,38,39,-1,39,38,40,-1,39,40,41,-1,41,40,42,-1,41,42,43,-1,43,42,44,-1,43,44,45,-1,45,44,46,-1,45,46,47,-1,48,47,49,-1,49,47,46,-1,48,49,50,-1,50,49,51,-1,50,51,52,-1,52,51,53,-1,52,53,54,-1,54,53,55,-1,54,55,56,-1,56,55,57,-1,56,57,58,-1,58,57,59,-1,58,59,60,-1,60,59,61,-1,62,60,63,-1,63,60,61,-1,7,9,54,-1,62,1,60,-1,60,1,0,-1,60,0,58,-1,58,0,56,-1,48,15,47,-1,47,15,16,-1,22,24,34,-1,34,37,22,-1,22,37,39,-1,22,39,41,-1,30,32,28,-1,28,32,34,-1,28,34,26,-1,26,34,24,-1,56,0,54,-1,54,0,5,-1,54,5,7,-1,48,50,15,-1,15,50,52,-1,15,52,13,-1,13,52,54,-1,13,54,11,-1,11,54,9,-1,16,18,47,-1,47,18,20,-1,47,20,45,-1,45,20,22,-1,45,22,43,-1,43,22,41,-1,59,57,2,-1,2,57,4,-1,4,57,55,-1,4,55,6,-1,53,14,55,-1,55,14,12,-1,12,10,55,-1,55,10,8,-1,55,8,6,-1,42,40,23,-1,53,51,14,-1,14,51,49,-1,14,49,17,-1,17,49,46,-1,3,63,2,-1,2,63,61,-1,2,61,59,-1,33,31,35,-1,35,31,29,-1,29,27,35,-1,35,27,25,-1,35,25,36,-1,36,25,23,-1,36,23,38,-1,38,23,40,-1,42,23,44,-1,44,23,21,-1,44,21,46,-1,46,21,19,-1,46,19,17,-1,64,65,66,-1,64,66,67,-1,67,66,68,-1,67,68,69,-1,69,68,70,-1,69,70,71,-1,71,70,72,-1,71,72,73,-1,73,72,74,-1,73,74,75,-1,75,74,76,-1,75,76,77,-1,78,77,79,-1,79,77,76,-1,80,81,82,-1,82,81,83,-1,80,82,84,-1,84,82,85,-1,84,85,86,-1,86,85,87,-1,86,87,88,-1,88,87,89,-1,88,89,90,-1,90,89,91,-1,90,91,92,-1,92,91,93,-1,92,93,94,-1,94,93,95,-1,96,94,97,-1,97,94,95,-1,96,97,98,-1,96,98,99,-1,99,98,100,-1,99,100,101,-1,101,100,102,-1,101,102,103,-1,103,102,104,-1,103,104,105,-1,105,104,106,-1,105,106,107,-1,107,106,108,-1,107,108,109,-1,110,109,111,-1,111,109,108,-1,112,110,113,-1,113,110,111,-1,114,112,115,-1,115,112,113,-1,114,115,116,-1,116,115,117,-1,116,117,118,-1,118,117,119,-1,118,119,120,-1,120,119,121,-1,120,121,122,-1,122,121,123,-1,122,123,124,-1,124,123,125,-1,124,125,126,-1,126,125,127,-1,64,126,65,-1,65,126,127,-1,101,103,120,-1,69,71,88,-1,110,112,109,-1,109,112,114,-1,114,116,109,-1,109,116,118,-1,109,118,107,-1,107,118,120,-1,107,120,105,-1,105,120,103,-1,64,94,126,-1,126,94,96,-1,101,120,99,-1,99,120,122,-1,99,122,96,-1,96,122,124,-1,96,124,126,-1,78,81,77,-1,77,81,80,-1,69,88,67,-1,67,88,90,-1,67,90,64,-1,64,90,92,-1,64,92,94,-1,80,84,77,-1,77,84,86,-1,77,86,75,-1,75,86,88,-1,75,88,73,-1,73,88,71,-1,121,119,108,-1,95,65,97,-1,97,65,127,-1,72,70,89,-1,108,106,121,-1,121,106,104,-1,121,104,102,-1,113,111,115,-1,115,111,108,-1,115,108,117,-1,117,108,119,-1,83,79,82,-1,82,79,76,-1,82,76,85,-1,85,76,87,-1,95,93,65,-1,65,93,91,-1,65,91,66,-1,66,91,89,-1,66,89,68,-1,68,89,70,-1,87,76,89,-1,89,76,74,-1,89,74,72,-1,127,125,97,-1,97,125,123,-1,97,123,98,-1,98,123,121,-1,98,121,100,-1,100,121,102,-1,128,129,130,-1,130,129,131,-1,128,130,132,-1,128,132,133,-1,133,132,134,-1,133,134,135,-1,135,134,136,-1,135,136,137,-1,137,136,138,-1,137,138,139,-1,139,138,140,-1,139,140,141,-1,141,140,142,-1,141,142,143,-1,144,143,145,-1,145,143,142,-1,144,145,146,-1,146,145,147,-1,146,147,148,-1,148,147,149,-1,148,149,150,-1,150,149,151,-1,150,151,152,-1,152,151,153,-1,152,153,154,-1,154,153,155,-1,154,155,156,-1,156,155,157,-1,158,156,159,-1,159,156,157,-1,160,158,161,-1,161,158,159,-1,162,160,163,-1,163,160,161,-1,162,163,164,-1,162,164,165,-1,165,164,166,-1,165,166,167,-1,167,166,168,-1,167,168,169,-1,169,168,170,-1,169,170,171,-1,171,170,172,-1,171,172,173,-1,173,172,174,-1,173,174,175,-1,176,175,177,-1,177,175,174,-1,176,177,178,-1,178,177,179,-1,178,179,180,-1,180,179,181,-1,180,181,182,-1,182,181,183,-1,182,183,184,-1,184,183,185,-1,184,185,186,-1,186,185,187,-1,186,187,188,-1,188,187,189,-1,190,188,191,-1,191,188,189,-1,135,137,182,-1,190,129,188,-1,188,129,128,-1,188,128,186,-1,186,128,184,-1,176,143,175,-1,175,143,144,-1,150,152,162,-1,162,165,150,-1,150,165,167,-1,150,167,169,-1,158,160,156,-1,156,160,162,-1,156,162,154,-1,154,162,152,-1,184,128,182,-1,182,128,133,-1,182,133,135,-1,176,178,143,-1,143,178,180,-1,143,180,141,-1,141,180,182,-1,141,182,139,-1,139,182,137,-1,144,146,175,-1,175,146,148,-1,175,148,173,-1,173,148,150,-1,173,150,171,-1,171,150,169,-1,187,185,130,-1,130,185,132,-1,132,185,183,-1,132,183,134,-1,181,142,183,-1,183,142,140,-1,140,138,183,-1,183,138,136,-1,183,136,134,-1,170,168,151,-1,181,179,142,-1,142,179,177,-1,142,177,145,-1,145,177,174,-1,131,191,130,-1,130,191,189,-1,130,189,187,-1,161,159,163,-1,163,159,157,-1,157,155,163,-1,163,155,153,-1,163,153,164,-1,164,153,151,-1,164,151,166,-1,166,151,168,-1,170,151,172,-1,172,151,149,-1,172,149,174,-1,174,149,147,-1,174,147,145,-1,192,193,194,-1,192,194,195,-1,195,194,196,-1,195,196,197,-1,197,196,198,-1,197,198,199,-1,199,198,200,-1,199,200,201,-1,201,200,202,-1,201,202,203,-1,203,202,204,-1,203,204,205,-1,206,205,207,-1,207,205,204,-1,208,209,210,-1,210,209,211,-1,208,210,212,-1,212,210,213,-1,212,213,214,-1,214,213,215,-1,214,215,216,-1,216,215,217,-1,216,217,218,-1,218,217,219,-1,218,219,220,-1,220,219,221,-1,220,221,222,-1,222,221,223,-1,224,222,225,-1,225,222,223,-1,224,225,226,-1,224,226,227,-1,227,226,228,-1,227,228,229,-1,229,228,230,-1,229,230,231,-1,231,230,232,-1,231,232,233,-1,233,232,234,-1,233,234,235,-1,235,234,236,-1,235,236,237,-1,238,237,239,-1,239,237,236,-1,240,238,241,-1,241,238,239,-1,242,240,243,-1,243,240,241,-1,242,243,244,-1,244,243,245,-1,244,245,246,-1,246,245,247,-1,246,247,248,-1,248,247,249,-1,248,249,250,-1,250,249,251,-1,250,251,252,-1,252,251,253,-1,252,253,254,-1,254,253,255,-1,192,254,193,-1,193,254,255,-1,229,231,248,-1,197,199,216,-1,238,240,237,-1,237,240,242,-1,242,244,237,-1,237,244,246,-1,237,246,235,-1,235,246,248,-1,235,248,233,-1,233,248,231,-1,192,222,254,-1,254,222,224,-1,229,248,227,-1,227,248,250,-1,227,250,224,-1,224,250,252,-1,224,252,254,-1,206,209,205,-1,205,209,208,-1,197,216,195,-1,195,216,218,-1,195,218,192,-1,192,218,220,-1,192,220,222,-1,208,212,205,-1,205,212,214,-1,205,214,203,-1,203,214,216,-1,203,216,201,-1,201,216,199,-1,249,247,236,-1,223,193,225,-1,225,193,255,-1,200,198,217,-1,236,234,249,-1,249,234,232,-1,249,232,230,-1,241,239,243,-1,243,239,236,-1,243,236,245,-1,245,236,247,-1,211,207,210,-1,210,207,204,-1,210,204,213,-1,213,204,215,-1,223,221,193,-1,193,221,219,-1,193,219,194,-1,194,219,217,-1,194,217,196,-1,196,217,198,-1,215,204,217,-1,217,204,202,-1,217,202,200,-1,255,253,225,-1,225,253,251,-1,225,251,226,-1,226,251,249,-1,226,249,228,-1,228,249,230,-1,256,257,258,-1,258,257,259,-1,256,258,260,-1,256,260,261,-1,261,260,262,-1,261,262,263,-1,263,262,264,-1,263,264,265,-1,265,264,266,-1,265,266,267,-1,267,266,268,-1,267,268,269,-1,269,268,270,-1,269,270,271,-1,272,271,273,-1,273,271,270,-1,272,273,274,-1,274,273,275,-1,274,275,276,-1,276,275,277,-1,276,277,278,-1,278,277,279,-1,278,279,280,-1,280,279,281,-1,280,281,282,-1,282,281,283,-1,282,283,284,-1,284,283,285,-1,286,284,287,-1,287,284,285,-1,288,286,289,-1,289,286,287,-1,290,288,291,-1,291,288,289,-1,290,291,292,-1,290,292,293,-1,293,292,294,-1,293,294,295,-1,295,294,296,-1,295,296,297,-1,297,296,298,-1,297,298,299,-1,299,298,300,-1,299,300,301,-1,301,300,302,-1,301,302,303,-1,304,303,305,-1,305,303,302,-1,304,305,306,-1,306,305,307,-1,306,307,308,-1,308,307,309,-1,308,309,310,-1,310,309,311,-1,310,311,312,-1,312,311,313,-1,312,313,314,-1,314,313,315,-1,314,315,316,-1,316,315,317,-1,318,316,319,-1,319,316,317,-1,263,265,310,-1,318,257,316,-1,316,257,256,-1,316,256,314,-1,314,256,312,-1,304,271,303,-1,303,271,272,-1,278,280,290,-1,290,293,278,-1,278,293,295,-1,278,295,297,-1,286,288,284,-1,284,288,290,-1,284,290,282,-1,282,290,280,-1,312,256,310,-1,310,256,261,-1,310,261,263,-1,304,306,271,-1,271,306,308,-1,271,308,269,-1,269,308,310,-1,269,310,267,-1,267,310,265,-1,272,274,303,-1,303,274,276,-1,303,276,301,-1,301,276,278,-1,301,278,299,-1,299,278,297,-1,315,313,258,-1,258,313,260,-1,260,313,311,-1,260,311,262,-1,309,270,311,-1,311,270,268,-1,268,266,311,-1,311,266,264,-1,311,264,262,-1,298,296,279,-1,309,307,270,-1,270,307,305,-1,270,305,273,-1,273,305,302,-1,259,319,258,-1,258,319,317,-1,258,317,315,-1,289,287,291,-1,291,287,285,-1,285,283,291,-1,291,283,281,-1,291,281,292,-1,292,281,279,-1,292,279,294,-1,294,279,296,-1,298,279,300,-1,300,279,277,-1,300,277,302,-1,302,277,275,-1,302,275,273,-1,320,321,322,-1,320,322,323,-1,323,322,324,-1,323,324,325,-1,325,324,326,-1,325,326,327,-1,327,326,328,-1,327,328,329,-1,329,328,330,-1,329,330,331,-1,331,330,332,-1,331,332,333,-1,334,333,335,-1,335,333,332,-1,336,337,338,-1,338,337,339,-1,336,338,340,-1,340,338,341,-1,340,341,342,-1,342,341,343,-1,342,343,344,-1,344,343,345,-1,344,345,346,-1,346,345,347,-1,346,347,348,-1,348,347,349,-1,348,349,350,-1,350,349,351,-1,352,350,353,-1,353,350,351,-1,352,353,354,-1,352,354,355,-1,355,354,356,-1,355,356,357,-1,357,356,358,-1,357,358,359,-1,359,358,360,-1,359,360,361,-1,361,360,362,-1,361,362,363,-1,363,362,364,-1,363,364,365,-1,366,365,367,-1,367,365,364,-1,368,366,369,-1,369,366,367,-1,370,368,371,-1,371,368,369,-1,370,371,372,-1,372,371,373,-1,372,373,374,-1,374,373,375,-1,374,375,376,-1,376,375,377,-1,376,377,378,-1,378,377,379,-1,378,379,380,-1,380,379,381,-1,380,381,382,-1,382,381,383,-1,320,382,321,-1,321,382,383,-1,357,359,376,-1,325,327,344,-1,366,368,365,-1,365,368,370,-1,370,372,365,-1,365,372,374,-1,365,374,363,-1,363,374,376,-1,363,376,361,-1,361,376,359,-1,320,350,382,-1,382,350,352,-1,357,376,355,-1,355,376,378,-1,355,378,352,-1,352,378,380,-1,352,380,382,-1,334,337,333,-1,333,337,336,-1,325,344,323,-1,323,344,346,-1,323,346,320,-1,320,346,348,-1,320,348,350,-1,336,340,333,-1,333,340,342,-1,333,342,331,-1,331,342,344,-1,331,344,329,-1,329,344,327,-1,377,375,364,-1,351,321,353,-1,353,321,383,-1,328,326,345,-1,364,362,377,-1,377,362,360,-1,377,360,358,-1,369,367,371,-1,371,367,364,-1,371,364,373,-1,373,364,375,-1,339,335,338,-1,338,335,332,-1,338,332,341,-1,341,332,343,-1,351,349,321,-1,321,349,347,-1,321,347,322,-1,322,347,345,-1,322,345,324,-1,324,345,326,-1,343,332,345,-1,345,332,330,-1,345,330,328,-1,383,381,353,-1,353,381,379,-1,353,379,354,-1,354,379,377,-1,354,377,356,-1,356,377,358,-1,384,385,386,-1,386,385,387,-1,384,386,388,-1,384,388,389,-1,389,388,390,-1,389,390,391,-1,391,390,392,-1,391,392,393,-1,393,392,394,-1,393,394,395,-1,395,394,396,-1,395,396,397,-1,397,396,398,-1,397,398,399,-1,400,399,401,-1,401,399,398,-1,400,401,402,-1,402,401,403,-1,402,403,404,-1,404,403,405,-1,404,405,406,-1,406,405,407,-1,406,407,408,-1,408,407,409,-1,408,409,410,-1,410,409,411,-1,410,411,412,-1,412,411,413,-1,414,412,415,-1,415,412,413,-1,416,414,417,-1,417,414,415,-1,418,416,419,-1,419,416,417,-1,418,419,420,-1,418,420,421,-1,421,420,422,-1,421,422,423,-1,423,422,424,-1,423,424,425,-1,425,424,426,-1,425,426,427,-1,427,426,428,-1,427,428,429,-1,429,428,430,-1,429,430,431,-1,432,431,433,-1,433,431,430,-1,432,433,434,-1,434,433,435,-1,434,435,436,-1,436,435,437,-1,436,437,438,-1,438,437,439,-1,438,439,440,-1,440,439,441,-1,440,441,442,-1,442,441,443,-1,442,443,444,-1,444,443,445,-1,446,444,447,-1,447,444,445,-1,391,393,438,-1,446,385,444,-1,444,385,384,-1,444,384,442,-1,442,384,440,-1,432,399,431,-1,431,399,400,-1,406,408,418,-1,418,421,406,-1,406,421,423,-1,406,423,425,-1,414,416,412,-1,412,416,418,-1,412,418,410,-1,410,418,408,-1,440,384,438,-1,438,384,389,-1,438,389,391,-1,432,434,399,-1,399,434,436,-1,399,436,397,-1,397,436,438,-1,397,438,395,-1,395,438,393,-1,400,402,431,-1,431,402,404,-1,431,404,429,-1,429,404,406,-1,429,406,427,-1,427,406,425,-1,443,441,386,-1,386,441,388,-1,388,441,439,-1,388,439,390,-1,437,398,439,-1,439,398,396,-1,396,394,439,-1,439,394,392,-1,439,392,390,-1,426,424,407,-1,437,435,398,-1,398,435,433,-1,398,433,401,-1,401,433,430,-1,387,447,386,-1,386,447,445,-1,386,445,443,-1,417,415,419,-1,419,415,413,-1,413,411,419,-1,419,411,409,-1,419,409,420,-1,420,409,407,-1,420,407,422,-1,422,407,424,-1,426,407,428,-1,428,407,405,-1,428,405,430,-1,430,405,403,-1,430,403,401,-1,448,449,450,-1,448,450,451,-1,451,450,452,-1,451,452,453,-1,453,452,454,-1,453,454,455,-1,455,454,456,-1,455,456,457,-1,457,456,458,-1,457,458,459,-1,459,458,460,-1,459,460,461,-1,462,461,463,-1,463,461,460,-1,464,465,466,-1,466,465,467,-1,464,466,468,-1,468,466,469,-1,468,469,470,-1,470,469,471,-1,470,471,472,-1,472,471,473,-1,472,473,474,-1,474,473,475,-1,474,475,476,-1,476,475,477,-1,476,477,478,-1,478,477,479,-1,480,478,481,-1,481,478,479,-1,480,481,482,-1,480,482,483,-1,483,482,484,-1,483,484,485,-1,485,484,486,-1,485,486,487,-1,487,486,488,-1,487,488,489,-1,489,488,490,-1,489,490,491,-1,491,490,492,-1,491,492,493,-1,494,493,495,-1,495,493,492,-1,496,494,497,-1,497,494,495,-1,498,496,499,-1,499,496,497,-1,498,499,500,-1,500,499,501,-1,500,501,502,-1,502,501,503,-1,502,503,504,-1,504,503,505,-1,504,505,506,-1,506,505,507,-1,506,507,508,-1,508,507,509,-1,508,509,510,-1,510,509,511,-1,448,510,449,-1,449,510,511,-1,485,487,504,-1,453,455,472,-1,494,496,493,-1,493,496,498,-1,498,500,493,-1,493,500,502,-1,493,502,491,-1,491,502,504,-1,491,504,489,-1,489,504,487,-1,448,478,510,-1,510,478,480,-1,485,504,483,-1,483,504,506,-1,483,506,480,-1,480,506,508,-1,480,508,510,-1,462,465,461,-1,461,465,464,-1,453,472,451,-1,451,472,474,-1,451,474,448,-1,448,474,476,-1,448,476,478,-1,464,468,461,-1,461,468,470,-1,461,470,459,-1,459,470,472,-1,459,472,457,-1,457,472,455,-1,505,503,492,-1,479,449,481,-1,481,449,511,-1,456,454,473,-1,492,490,505,-1,505,490,488,-1,505,488,486,-1,497,495,499,-1,499,495,492,-1,499,492,501,-1,501,492,503,-1,467,463,466,-1,466,463,460,-1,466,460,469,-1,469,460,471,-1,479,477,449,-1,449,477,475,-1,449,475,450,-1,450,475,473,-1,450,473,452,-1,452,473,454,-1,471,460,473,-1,473,460,458,-1,473,458,456,-1,511,509,481,-1,481,509,507,-1,481,507,482,-1,482,507,505,-1,482,505,484,-1,484,505,486,-1,
        ]
    }
}
Shape{
    appearance Appearance {
        material  Material 	{
            diffuseColor 0.20784313725490197 0.20784313725490197 0.20784313725490197
            specularColor 0.01568627450980392 0.01568627450980392 0.01568627450980392
            ambientIntensity 0.2
            transparency 0
            shininess 0.5
        }
    }
    geometry IndexedFaceSet {
        ccw TRUE
        solid FALSE
        coord DEF co Coordinate {
            point [
                0.9274 -0.7405 0.1822, 0.9179 -0.5859 0.2729, -0.9274 -0.7405 0.1822, -0.9179 -0.5859 0.2729, -0.945 0.7677 -0.0, -0.9179 0.7406 -0.258, -0.9222 0.74 -0.2584, -0.9501 0.7671 0.0, -0.9229 0.7399 -0.2584, -0.9525 0.7662 0.0, -0.9263 0.7385 -0.2586, -0.9548 0.7651 0.0, -0.9276 0.7379 -0.2587, -0.9569 0.7637 0.0, -0.9299 0.7361 -0.2588, -0.9588 0.762 0.0, -0.9316 0.7348 -0.2588, -0.9605 0.7601 0.0, -0.933 0.7331 -0.2588, -0.962 0.7579 0.0, -0.9348 0.7308 -0.2587, -0.9631 0.7556 0.0, -0.9353 0.7294 -0.2586, -0.9639 0.7532 0.0, -0.9367 0.7261 -0.2584, -0.9646 0.7481 0.0, -0.9368 0.7254 -0.2584, -0.9375 0.721 -0.258, 0.9646 0.7481 -0.0, 0.9375 0.721 -0.258, 0.9368 0.7254 -0.2584, 0.9639 0.7532 0.0, 0.9367 0.7261 -0.2584, 0.9631 0.7556 0.0, 0.9353 0.7294 -0.2586, 0.962 0.7579 0.0, 0.9348 0.7308 -0.2587, 0.9605 0.7601 0.0, 0.933 0.7331 -0.2588, 0.9588 0.762 0.0, 0.9316 0.7348 -0.2588, 0.9569 0.7637 0.0, 0.9299 0.7361 -0.2588, 0.9548 0.7651 0.0, 0.9276 0.7379 -0.2587, 0.9525 0.7662 0.0, 0.9263 0.7385 -0.2586, 0.9501 0.7671 0.0, 0.9229 0.7399 -0.2584, 0.945 0.7677 0.0, 0.9222 0.74 -0.2584, 0.9179 0.7406 -0.258, 0.9179 0.721 -0.2756, -0.9179 0.721 -0.2756, -0.9179 0.7258 -0.275, -0.9179 0.7396 -0.2625, 0.9179 0.7396 -0.2625, -0.9179 0.7395 -0.2626, 0.9179 0.7395 -0.2626, -0.9179 0.7374 -0.2668, 0.9179 0.7374 -0.2668, -0.9179 0.7373 -0.2669, 0.9179 0.7373 -0.2669, -0.9179 0.7343 -0.2705, 0.9179 0.7343 -0.2705, -0.9179 0.7342 -0.2705, 0.9179 0.7342 -0.2705, -0.9179 0.7303 -0.2733, 0.9179 0.7303 -0.2733, -0.9179 0.7303 -0.2733, 0.9179 0.7303 -0.2733, -0.9179 0.7258 -0.275, 0.9179 0.7258 -0.275, 0.9179 0.7258 -0.275, -0.9189 0.7257 -0.275, -0.9216 0.724 -0.275, -0.9209 0.7248 -0.275, -0.9271 0.721 -0.2733, -0.9272 0.721 -0.2733, -0.9269 0.7231 -0.2733, -0.931 0.721 -0.2705, -0.9311 0.721 -0.2705, -0.9308 0.724 -0.2705, -0.9338 0.7247 -0.2668, -0.936 0.7252 -0.2625, -0.9346 0.7291 -0.2625, -0.9259 0.7377 -0.2625, -0.922 0.7391 -0.2625, -0.9324 0.7326 -0.2625, -0.9364 0.721 -0.2625, -0.9364 0.721 -0.2626, -0.9343 0.721 -0.2668, -0.9342 0.721 -0.2669, -0.9215 0.737 -0.2668, -0.9326 0.7281 -0.2668, -0.9208 0.7339 -0.2705, -0.9298 0.7268 -0.2705, -0.9307 0.7312 -0.2668, -0.9294 0.7355 -0.2625, -0.9199 0.7301 -0.2733, -0.9281 0.7338 -0.2668, -0.9282 0.7293 -0.2705, -0.9262 0.7251 -0.2733, -0.9225 0.7221 -0.275, -0.9237 0.7283 -0.2733, -0.925 0.7358 -0.2668, -0.9236 0.733 -0.2705, -0.9219 0.7294 -0.2733, -0.92 0.7253 -0.275, -0.9226 0.721 -0.275, -0.9227 0.721 -0.275, -0.9261 0.7314 -0.2705, -0.9251 0.7268 -0.2733, -0.9222 0.7231 -0.275, -0.9375 0.721 0.258, -0.9368 0.7254 0.2584, -0.9367 0.7261 0.2584, -0.9353 0.7294 0.2586, -0.9348 0.7308 0.2587, -0.933 0.7331 0.2588, -0.9316 0.7348 0.2588, -0.9299 0.7361 0.2588, -0.9276 0.7379 0.2587, -0.9263 0.7385 0.2586, -0.9229 0.7399 0.2584, -0.9222 0.74 0.2584, -0.9179 0.7406 0.258, 0.9179 0.7406 0.258, 0.9179 0.7396 0.2625, -0.9179 0.7396 0.2625, 0.9179 0.7395 0.2626, -0.9179 0.7395 0.2626, 0.9179 0.7374 0.2668, -0.9179 0.7374 0.2668, 0.9179 0.7373 0.2669, -0.9179 0.7373 0.2669, 0.9179 0.7343 0.2705, -0.9179 0.7343 0.2705, 0.9179 0.7342 0.2705, -0.9179 0.7342 0.2705, 0.9179 0.7303 0.2733, -0.9179 0.7303 0.2733, 0.9179 0.7303 0.2733, -0.9179 0.7303 0.2733, 0.9179 0.7258 0.275, -0.9179 0.7258 0.275, 0.9179 0.7258 0.275, -0.9179 0.7258 0.275, -0.9179 0.721 0.2756, 0.9179 0.721 0.2756, 0.9229 0.7399 0.2584, 0.9229 0.7399 0.2584, 0.9276 0.7379 0.2587, 0.9276 0.7379 0.2587, 0.9316 0.7348 0.2588, 0.9347 0.7308 0.2587, 0.9348 0.7308 0.2587, 0.9367 0.7261 0.2584, 0.9367 0.7261 0.2584, 0.9375 0.721 0.258, 0.9226 0.721 -0.275, 0.9225 0.7221 -0.275, 0.9209 0.7248 -0.275, 0.9216 0.724 -0.275, 0.9199 0.7301 -0.2733, 0.9208 0.7339 -0.2705, 0.9215 0.737 -0.2668, 0.922 0.7391 -0.2625, 0.9259 0.7377 -0.2625, 0.9346 0.7291 -0.2625, 0.936 0.7252 -0.2625, 0.9294 0.7355 -0.2625, 0.9364 0.721 -0.2625, 0.9364 0.721 -0.2626, 0.9338 0.7247 -0.2668, 0.925 0.7358 -0.2668, 0.9343 0.721 -0.2668, 0.9342 0.721 -0.2669, 0.9308 0.724 -0.2705, 0.9236 0.733 -0.2705, 0.9281 0.7338 -0.2668, 0.9324 0.7326 -0.2625, 0.9311 0.721 -0.2705, 0.931 0.721 -0.2705, 0.9269 0.7231 -0.2733, 0.9307 0.7312 -0.2668, 0.9261 0.7314 -0.2705, 0.9219 0.7294 -0.2733, 0.9189 0.7257 -0.275, 0.9251 0.7268 -0.2733, 0.9326 0.7281 -0.2668, 0.9298 0.7268 -0.2705, 0.9262 0.7251 -0.2733, 0.9222 0.7231 -0.275, 0.9282 0.7293 -0.2705, 0.9237 0.7283 -0.2733, 0.92 0.7253 -0.275, 0.9272 0.721 -0.2733, 0.9271 0.721 -0.2733, 0.9227 0.721 -0.275, -0.9375 -0.721 -0.258, -0.9364 -0.721 -0.2625, -0.9364 -0.721 -0.2626, -0.9343 -0.721 -0.2668, -0.9342 -0.721 -0.2669, -0.9311 -0.721 -0.2705, -0.931 -0.721 -0.2705, -0.9272 -0.721 -0.2733, -0.9271 -0.721 -0.2733, -0.9227 -0.721 -0.275, -0.9226 -0.721 -0.275, -0.9179 -0.721 -0.2756, -0.9364 0.721 0.2626, -0.9343 0.721 0.2668, -0.9338 0.7247 0.2668, -0.9342 0.721 0.2669, -0.9311 0.721 0.2705, -0.9308 0.724 0.2705, -0.9269 0.7231 0.2733, -0.9225 0.7221 0.275, -0.9222 0.7231 0.275, -0.92 0.7253 0.275, -0.9209 0.7248 0.275, -0.9189 0.7257 0.275, -0.9226 0.721 0.275, -0.936 0.7252 0.2625, -0.9346 0.7291 0.2625, -0.9324 0.7326 0.2625, -0.9294 0.7355 0.2625, -0.9259 0.7377 0.2625, -0.922 0.7391 0.2625, -0.931 0.721 0.2705, -0.9272 0.721 0.2733, -0.9271 0.721 0.2733, -0.9227 0.721 0.275, -0.9251 0.7268 0.2733, -0.9237 0.7283 0.2733, -0.9219 0.7294 0.2733, -0.9199 0.7301 0.2733, -0.9262 0.7251 0.2733, -0.9216 0.724 0.275, -0.9298 0.7268 0.2705, -0.9282 0.7293 0.2705, -0.9261 0.7314 0.2705, -0.9236 0.733 0.2705, -0.9208 0.7339 0.2705, -0.9326 0.7281 0.2668, -0.9307 0.7312 0.2668, -0.9281 0.7338 0.2668, -0.925 0.7358 0.2668, -0.9215 0.737 0.2668, -0.9364 0.721 0.2625, 0.9213 0.7338 0.2705, 0.9203 0.73 0.2733, 0.9191 0.7257 0.275, 0.9203 0.7252 0.275, 0.922 0.7234 0.275, 0.9213 0.7244 0.275, 0.9225 0.7223 0.275, 0.9227 0.7389 0.2625, 0.9271 0.7371 0.2625, 0.931 0.7341 0.2625, 0.9339 0.7303 0.2625, 0.9358 0.7258 0.2625, 0.9364 0.721 0.2625, 0.9226 0.721 0.275, 0.9225 0.7291 0.2733, 0.9244 0.7276 0.2733, 0.9259 0.7257 0.2733, 0.9269 0.7234 0.2733, 0.9227 0.721 0.275, 0.9271 0.721 0.2733, 0.9272 0.721 0.2733, 0.931 0.721 0.2705, 0.9245 0.7325 0.2705, 0.9272 0.7304 0.2705, 0.9293 0.7276 0.2705, 0.9307 0.7245 0.2705, 0.9221 0.7369 0.2668, 0.9261 0.7352 0.2668, 0.9295 0.7326 0.2668, 0.9321 0.7292 0.2668, 0.9337 0.7253 0.2668, 0.9311 0.721 0.2705, 0.9342 0.721 0.2669, 0.9343 0.721 0.2668, 0.9364 0.721 0.2626, 0.9179 -0.721 -0.2756, 0.9375 -0.721 -0.258, 0.9364 -0.721 -0.2625, 0.9364 -0.721 -0.2626, 0.9343 -0.721 -0.2668, 0.9342 -0.721 -0.2669, 0.9311 -0.721 -0.2705, 0.931 -0.721 -0.2705, 0.9272 -0.721 -0.2733, 0.9271 -0.721 -0.2733, 0.9227 -0.721 -0.275, 0.9226 -0.721 -0.275, 0.9179 -0.7406 -0.258, -0.9179 -0.7406 -0.258, 0.9179 -0.7396 -0.2625, -0.9179 -0.7396 -0.2625, 0.9179 -0.7395 -0.2626, -0.9179 -0.7395 -0.2626, 0.9179 -0.7374 -0.2668, -0.9179 -0.7374 -0.2668, 0.9179 -0.7373 -0.2669, -0.9179 -0.7373 -0.2669, 0.9179 -0.7343 -0.2705, -0.9179 -0.7343 -0.2705, 0.9179 -0.7342 -0.2705, -0.9179 -0.7342 -0.2705, 0.9179 -0.7303 -0.2733, -0.9179 -0.7303 -0.2733, 0.9179 -0.7303 -0.2733, -0.9179 -0.7303 -0.2733, 0.9179 -0.7258 -0.275, -0.9179 -0.7258 -0.275, 0.9179 -0.7258 -0.275, -0.9179 -0.7258 -0.275, -0.9225 -0.7221 -0.275, -0.9209 -0.7248 -0.275, -0.9216 -0.724 -0.275, -0.9199 -0.7301 -0.2733, -0.9208 -0.7339 -0.2705, -0.9215 -0.737 -0.2668, -0.922 -0.7391 -0.2625, -0.9259 -0.7377 -0.2625, -0.9348 -0.7308 -0.2587, -0.9353 -0.7294 -0.2586, -0.9346 -0.7291 -0.2625, -0.9367 -0.7261 -0.2584, -0.9368 -0.7254 -0.2584, -0.936 -0.7252 -0.2625, -0.9294 -0.7355 -0.2625, -0.9299 -0.7361 -0.2588, -0.9316 -0.7348 -0.2588, -0.9263 -0.7385 -0.2586, -0.9276 -0.7379 -0.2587, -0.9229 -0.7399 -0.2584, -0.9222 -0.74 -0.2584, -0.9338 -0.7247 -0.2668, -0.925 -0.7358 -0.2668, -0.9308 -0.724 -0.2705, -0.9236 -0.733 -0.2705, -0.9281 -0.7338 -0.2668, -0.9324 -0.7326 -0.2625, -0.933 -0.7331 -0.2588, -0.9269 -0.7231 -0.2733, -0.9307 -0.7312 -0.2668, -0.9261 -0.7314 -0.2705, -0.9219 -0.7294 -0.2733, -0.9189 -0.7257 -0.275, -0.9251 -0.7268 -0.2733, -0.9326 -0.7281 -0.2668, -0.9298 -0.7268 -0.2705, -0.9262 -0.7251 -0.2733, -0.9222 -0.7231 -0.275, -0.9282 -0.7293 -0.2705, -0.9237 -0.7283 -0.2733, -0.92 -0.7253 -0.275, -0.9179 -0.5759 0.2756, -0.9375 -0.5759 0.258, -0.9364 -0.5759 0.2625, -0.9364 -0.5759 0.2626, -0.9343 -0.5759 0.2668, -0.9342 -0.5759 0.2669, -0.9311 -0.5759 0.2705, -0.931 -0.5759 0.2705, -0.9272 -0.5759 0.2733, -0.9271 -0.5759 0.2733, -0.9227 -0.5759 0.275, -0.9226 -0.5759 0.275, -0.9179 -0.5852 0.2733, 0.9179 -0.5852 0.2733, -0.9179 -0.5827 0.2742, 0.9179 -0.5827 0.2742, -0.9179 -0.5807 0.275, 0.9179 -0.5807 0.275, -0.9179 -0.5794 0.2752, 0.9179 -0.5794 0.2752, 0.9179 -0.5759 0.2756, 0.9375 -0.5759 0.258, 0.9364 -0.5759 0.2625, 0.9364 -0.5759 0.2626, 0.9343 -0.5759 0.2668, 0.9342 -0.5759 0.2669, 0.9311 -0.5759 0.2705, 0.931 -0.5759 0.2705, 0.9272 -0.5759 0.2733, 0.9271 -0.5759 0.2733, 0.9227 -0.5759 0.275, 0.9226 -0.5759 0.275, 0.9191 -0.7257 -0.275, 0.9269 -0.7234 -0.2733, 0.9307 -0.7245 -0.2705, 0.9337 -0.7253 -0.2668, 0.9358 -0.7258 -0.2625, 0.9339 -0.7303 -0.2625, 0.9229 -0.7399 -0.2584, 0.9276 -0.7379 -0.2587, 0.9229 -0.7399 -0.2584, 0.9227 -0.7389 -0.2625, 0.9367 -0.7261 -0.2584, 0.9367 -0.7261 -0.2584, 0.9348 -0.7308 -0.2587, 0.9347 -0.7308 -0.2587, 0.9316 -0.7348 -0.2588, 0.9221 -0.7369 -0.2668, 0.9321 -0.7292 -0.2668, 0.931 -0.7341 -0.2625, 0.9213 -0.7338 -0.2705, 0.9293 -0.7276 -0.2705, 0.9295 -0.7326 -0.2668, 0.9203 -0.73 -0.2733, 0.9272 -0.7304 -0.2705, 0.9259 -0.7257 -0.2733, 0.9225 -0.7223 -0.275, 0.9276 -0.7379 -0.2587, 0.9271 -0.7371 -0.2625, 0.9261 -0.7352 -0.2668, 0.9245 -0.7325 -0.2705, 0.9225 -0.7291 -0.2733, 0.9203 -0.7252 -0.275, 0.9244 -0.7276 -0.2733, 0.922 -0.7234 -0.275, 0.9213 -0.7244 -0.275, -0.9646 -0.7481 0.0, -0.9639 -0.7532 0.0, -0.9631 -0.7556 0.0, -0.962 -0.7579 0.0, -0.9605 -0.7601 0.0, -0.9588 -0.762 0.0, -0.9569 -0.7637 0.0, -0.9548 -0.7651 0.0, -0.9525 -0.7662 0.0, -0.9501 -0.7671 0.0, -0.945 -0.7677 0.0, -0.9293 -0.5825 0.2705, -0.9259 -0.5806 0.2733, -0.9269 -0.5783 0.2733, -0.9191 -0.5806 0.275, -0.922 -0.5783 0.275, -0.9213 -0.5793 0.275, -0.9225 -0.5772 0.275, -0.9203 -0.5801 0.275, -0.9205 -0.5856 0.2727, -0.9203 -0.5849 0.2733, -0.9225 -0.584 0.2733, -0.9227 -0.5854 0.2725, -0.9244 -0.5825 0.2733, -0.9265 -0.5844 0.2713, -0.9272 -0.5843 0.2711, -0.9283 -0.5838 0.2705, -0.9303 -0.583 0.2693, -0.9311 -0.5827 0.2688, -0.9307 -0.5793 0.2705, -0.9332 -0.5814 0.2668, -0.9337 -0.5802 0.2668, -0.9343 -0.5807 0.2657, -0.9346 -0.5804 0.2652, -0.9364 -0.5784 0.262, -0.9362 -0.5787 0.2625, 0.9199 -0.585 0.2733, 0.9209 -0.5797 0.275, 0.9216 -0.5789 0.275, 0.92 -0.5802 0.275, 0.9262 -0.58 0.2733, 0.9222 -0.578 0.275, 0.9343 -0.5807 0.2657, 0.9351 -0.5798 0.2643, 0.9338 -0.5796 0.2668, 0.9308 -0.5789 0.2705, 0.9315 -0.5824 0.2685, 0.9332 -0.5814 0.2668, 0.9311 -0.5827 0.2688, 0.9298 -0.5817 0.2705, 0.9283 -0.5838 0.2705, 0.928 -0.5839 0.2706, 0.9251 -0.5817 0.2733, 0.9272 -0.5843 0.2711, 0.9251 -0.5848 0.2718, 0.9237 -0.5832 0.2733, 0.9219 -0.5843 0.2733, 0.9227 -0.5854 0.2725, 0.9201 -0.5856 0.2727, 0.9225 -0.577 0.275, 0.9189 -0.5806 0.275, 0.9269 -0.578 0.2733, 0.9362 -0.5787 0.2625, 0.9364 -0.5784 0.262, 0.945 -0.7677 -0.0, 0.9501 -0.7671 0.0, 0.9525 -0.7662 0.0, 0.9548 -0.7651 0.0, 0.9569 -0.7637 0.0, 0.9588 -0.762 0.0, 0.9605 -0.7601 0.0, 0.962 -0.7579 0.0, 0.9631 -0.7556 0.0, 0.9639 -0.7532 0.0, 0.9646 -0.7481 -0.0, -0.9274 -0.7501 0.1673, -0.9318 -0.7495 0.1677, -0.9324 -0.7494 0.1677, -0.9359 -0.748 0.1679, -0.9371 -0.7474 0.168, -0.9395 -0.7456 0.1681, -0.9412 -0.7443 0.1681, -0.9426 -0.7425 0.1681, -0.9443 -0.7403 0.168, -0.9449 -0.7388 0.1679, -0.947 -0.7306 0.1673, -0.9464 -0.7347 0.1677, -0.9463 -0.7356 0.1677, -0.946 -0.733 0.1713, -0.9457 -0.7332 0.1717, -0.9447 -0.7343 0.1734, -0.9438 -0.7353 0.175, -0.9297 -0.7403 0.182, -0.9322 -0.74 0.1818, -0.9347 -0.7394 0.1811, -0.9367 -0.7389 0.1804, -0.9376 -0.7385 0.1799, -0.9384 -0.7382 0.1795, -0.9407 -0.7373 0.1781, -0.9411 -0.737 0.1777, -0.943 -0.7358 0.1759, 0.9297 -0.7403 0.182, 0.9322 -0.74 0.1818, 0.9347 -0.7394 0.1811, 0.9367 -0.7389 0.1804, 0.9376 -0.7385 0.1799, 0.9384 -0.7382 0.1795, 0.9407 -0.7373 0.1781, 0.9411 -0.737 0.1777, 0.943 -0.7358 0.1759, 0.9438 -0.7353 0.175, 0.9447 -0.7343 0.1734, 0.9457 -0.7332 0.1717, 0.946 -0.733 0.1713, 0.947 -0.7306 0.1673, 0.9464 -0.7347 0.1677, 0.9463 -0.7356 0.1677, 0.9449 -0.7388 0.1679, 0.9443 -0.7403 0.168, 0.9426 -0.7425 0.1681, 0.9412 -0.7443 0.1681, 0.9395 -0.7456 0.1681, 0.9371 -0.7474 0.168, 0.9359 -0.748 0.1679, 0.9324 -0.7494 0.1677, 0.9318 -0.7495 0.1677, 0.9274 -0.7501 0.1673, -0.9381 -0.739 0.1795, -0.9424 -0.7376 0.1759, -0.9456 -0.7345 0.1717, -0.9316 -0.7487 0.1717, -0.9355 -0.7473 0.1717, -0.9391 -0.745 0.1717, -0.942 -0.7421 0.1717, -0.9442 -0.7385 0.1717, -0.9404 -0.7408 0.1759, -0.9359 -0.7411 0.1795, -0.9333 -0.7428 0.1795, -0.9304 -0.7438 0.1795, -0.9274 -0.7441 0.1795, -0.9274 -0.7471 0.1759, -0.9274 -0.7471 0.1759, -0.9311 -0.7467 0.1759, -0.9274 -0.7442 0.1794, -0.9378 -0.7434 0.1759, -0.9346 -0.7454 0.1759, -0.9274 -0.7491 0.1717, -0.9274 -0.7491 0.1718, 0.9274 -0.7491 0.1718, 0.9274 -0.7491 0.1717, 0.9316 -0.7487 0.1717, 0.9304 -0.7438 0.1795, 0.9333 -0.7428 0.1795, 0.9359 -0.7411 0.1795, 0.9381 -0.739 0.1795, 0.9424 -0.7376 0.1759, 0.9404 -0.7408 0.1759, 0.9456 -0.7345 0.1717, 0.9442 -0.7385 0.1717, 0.942 -0.7421 0.1717, 0.9391 -0.745 0.1717, 0.9355 -0.7473 0.1717, 0.9378 -0.7434 0.1759, 0.9346 -0.7454 0.1759, 0.9311 -0.7467 0.1759, 0.9274 -0.7441 0.1795, 0.9274 -0.7442 0.1794, 0.9274 -0.7471 0.1759, 0.9274 -0.7471 0.1759, 0.9274 -0.7471 0.1759
            ]
        }
        coordIndex [
            0,1,2,-1,2,1,3,-1,4,5,6,-1,4,6,7,-1,7,6,8,-1,7,8,9,-1,9,8,10,-1,9,10,11,-1,11,10,12,-1,11,12,13,-1,13,12,14,-1,13,14,15,-1,15,14,16,-1,15,16,17,-1,17,16,18,-1,17,18,19,-1,19,18,20,-1,19,20,21,-1,21,20,22,-1,21,22,23,-1,23,22,24,-1,23,24,25,-1,25,24,26,-1,25,26,27,-1,28,29,30,-1,28,30,31,-1,31,30,32,-1,31,32,33,-1,33,32,34,-1,33,34,35,-1,35,34,36,-1,35,36,37,-1,37,36,38,-1,37,38,39,-1,39,38,40,-1,39,40,41,-1,41,40,42,-1,41,42,43,-1,43,42,44,-1,43,44,45,-1,45,44,46,-1,45,46,47,-1,47,46,48,-1,47,48,49,-1,49,48,50,-1,49,50,51,-1,52,53,54,-1,5,51,55,-1,55,51,56,-1,55,56,57,-1,57,56,58,-1,57,58,59,-1,59,58,60,-1,59,60,61,-1,61,60,62,-1,61,62,63,-1,63,62,64,-1,63,64,65,-1,65,64,66,-1,65,66,67,-1,67,66,68,-1,67,68,69,-1,69,68,70,-1,69,70,71,-1,71,70,72,-1,71,72,54,-1,54,72,73,-1,54,73,52,-1,54,53,74,-1,75,76,53,-1,77,78,79,-1,80,81,82,-1,83,84,85,-1,12,10,86,-1,8,6,87,-1,87,6,5,-1,88,18,16,-1,85,22,20,-1,22,85,24,-1,24,85,84,-1,24,84,26,-1,27,26,89,-1,89,26,84,-1,89,84,90,-1,90,84,83,-1,90,83,91,-1,91,83,92,-1,5,55,87,-1,87,55,57,-1,87,57,93,-1,81,92,82,-1,82,92,83,-1,82,83,94,-1,94,83,85,-1,94,85,88,-1,88,85,20,-1,88,20,18,-1,57,59,93,-1,93,59,61,-1,93,61,95,-1,78,80,79,-1,79,80,82,-1,79,82,96,-1,96,82,94,-1,96,94,97,-1,97,94,88,-1,97,88,98,-1,98,88,16,-1,98,16,14,-1,61,63,95,-1,95,63,65,-1,95,65,99,-1,98,100,97,-1,97,100,101,-1,97,101,96,-1,96,101,102,-1,96,102,79,-1,79,102,103,-1,79,103,77,-1,76,75,104,-1,10,8,86,-1,86,8,87,-1,86,87,105,-1,105,87,93,-1,105,93,106,-1,106,93,95,-1,106,95,107,-1,107,95,99,-1,107,99,108,-1,108,99,74,-1,108,74,53,-1,53,109,103,-1,103,109,110,-1,103,110,77,-1,100,111,101,-1,101,111,112,-1,101,112,102,-1,102,112,113,-1,102,113,103,-1,103,113,53,-1,111,104,112,-1,112,104,75,-1,112,75,113,-1,113,75,53,-1,65,67,99,-1,99,67,69,-1,99,69,74,-1,74,69,71,-1,74,71,54,-1,14,12,98,-1,98,12,86,-1,98,86,100,-1,100,86,105,-1,100,105,111,-1,111,105,106,-1,111,106,104,-1,104,106,107,-1,104,107,76,-1,76,107,108,-1,76,108,53,-1,25,114,115,-1,25,115,23,-1,23,115,116,-1,23,116,21,-1,21,116,117,-1,21,117,19,-1,19,117,118,-1,19,118,17,-1,17,118,119,-1,17,119,15,-1,15,119,120,-1,15,120,13,-1,13,120,121,-1,13,121,11,-1,11,121,122,-1,11,122,9,-1,9,122,123,-1,9,123,7,-1,7,123,124,-1,7,124,4,-1,4,124,125,-1,4,125,126,-1,127,126,128,-1,128,126,129,-1,128,129,130,-1,130,129,131,-1,130,131,132,-1,132,131,133,-1,132,133,134,-1,134,133,135,-1,134,135,136,-1,136,135,137,-1,136,137,138,-1,138,137,139,-1,138,139,140,-1,140,139,141,-1,140,141,142,-1,142,141,143,-1,142,143,144,-1,144,143,145,-1,144,145,146,-1,145,147,146,-1,146,147,148,-1,146,148,149,-1,127,150,49,-1,49,150,47,-1,47,150,45,-1,45,150,151,-1,45,151,43,-1,43,151,152,-1,43,152,41,-1,41,152,153,-1,41,153,39,-1,39,153,154,-1,39,154,37,-1,37,154,155,-1,37,155,35,-1,35,155,156,-1,35,156,33,-1,33,156,157,-1,33,157,31,-1,157,158,31,-1,31,158,159,-1,31,159,28,-1,160,52,161,-1,162,163,52,-1,70,68,164,-1,66,64,165,-1,166,167,168,-1,36,34,169,-1,32,30,170,-1,170,30,29,-1,171,42,40,-1,168,46,44,-1,46,168,48,-1,48,168,167,-1,48,167,50,-1,51,50,56,-1,56,50,167,-1,56,167,58,-1,58,167,166,-1,58,166,60,-1,60,166,62,-1,29,172,170,-1,170,172,173,-1,170,173,174,-1,64,62,165,-1,165,62,166,-1,165,166,175,-1,175,166,168,-1,175,168,171,-1,171,168,44,-1,171,44,42,-1,173,176,174,-1,174,176,177,-1,174,177,178,-1,68,66,164,-1,164,66,165,-1,164,165,179,-1,179,165,175,-1,179,175,180,-1,180,175,171,-1,180,171,181,-1,181,171,40,-1,181,40,38,-1,177,182,178,-1,178,182,183,-1,178,183,184,-1,181,185,180,-1,180,185,186,-1,180,186,179,-1,179,186,187,-1,179,187,164,-1,164,187,188,-1,164,188,70,-1,163,162,189,-1,34,32,169,-1,169,32,170,-1,169,170,190,-1,190,170,174,-1,190,174,191,-1,191,174,178,-1,191,178,192,-1,192,178,184,-1,192,184,193,-1,193,184,161,-1,193,161,52,-1,52,73,188,-1,188,73,72,-1,188,72,70,-1,185,194,186,-1,186,194,195,-1,186,195,187,-1,187,195,196,-1,187,196,188,-1,188,196,52,-1,194,189,195,-1,195,189,162,-1,195,162,196,-1,196,162,52,-1,183,197,184,-1,184,197,198,-1,184,198,161,-1,161,198,199,-1,161,199,160,-1,38,36,181,-1,181,36,169,-1,181,169,185,-1,185,169,190,-1,185,190,194,-1,194,190,191,-1,194,191,189,-1,189,191,192,-1,189,192,163,-1,163,192,193,-1,163,193,52,-1,200,27,201,-1,201,27,89,-1,201,89,202,-1,202,89,90,-1,202,90,203,-1,203,90,91,-1,203,91,204,-1,204,91,92,-1,204,92,205,-1,205,92,81,-1,205,81,206,-1,206,81,80,-1,206,80,207,-1,207,80,78,-1,207,78,208,-1,208,78,77,-1,208,77,209,-1,209,77,110,-1,209,110,210,-1,110,109,210,-1,210,109,53,-1,210,53,211,-1,212,213,214,-1,215,216,217,-1,218,219,220,-1,148,221,222,-1,223,221,148,-1,220,219,148,-1,224,148,219,-1,115,225,116,-1,116,225,226,-1,116,226,117,-1,117,226,118,-1,118,226,227,-1,118,227,119,-1,119,227,120,-1,120,227,228,-1,120,228,121,-1,121,228,122,-1,122,228,229,-1,122,229,123,-1,123,229,124,-1,124,229,230,-1,124,230,125,-1,125,230,129,-1,125,129,126,-1,147,223,148,-1,231,232,218,-1,218,232,233,-1,218,233,219,-1,219,233,234,-1,219,234,224,-1,235,222,236,-1,236,222,221,-1,236,221,237,-1,237,221,223,-1,237,223,238,-1,216,231,217,-1,217,231,218,-1,217,218,239,-1,239,218,220,-1,239,220,240,-1,240,220,148,-1,147,145,223,-1,223,145,143,-1,223,143,238,-1,238,143,141,-1,238,141,139,-1,241,235,242,-1,242,235,236,-1,242,236,243,-1,243,236,237,-1,243,237,244,-1,244,237,238,-1,244,238,245,-1,245,238,139,-1,214,241,246,-1,246,241,242,-1,246,242,247,-1,247,242,243,-1,247,243,248,-1,248,243,244,-1,248,244,249,-1,249,244,245,-1,249,245,250,-1,213,215,214,-1,214,215,217,-1,214,217,241,-1,241,217,239,-1,241,239,235,-1,235,239,240,-1,235,240,222,-1,222,240,148,-1,115,114,225,-1,225,114,251,-1,225,251,212,-1,139,137,245,-1,245,137,135,-1,245,135,250,-1,250,135,133,-1,250,133,131,-1,212,214,225,-1,225,214,246,-1,225,246,226,-1,226,246,247,-1,226,247,227,-1,227,247,248,-1,227,248,228,-1,228,248,249,-1,228,249,229,-1,229,249,250,-1,229,250,230,-1,230,250,131,-1,230,131,129,-1,134,136,252,-1,253,254,255,-1,149,256,257,-1,258,256,149,-1,255,254,149,-1,146,149,254,-1,259,151,150,-1,151,259,152,-1,152,259,260,-1,152,260,153,-1,153,260,261,-1,153,261,154,-1,154,261,262,-1,154,262,155,-1,155,262,156,-1,156,262,263,-1,156,263,157,-1,157,263,158,-1,158,263,264,-1,158,264,159,-1,265,258,149,-1,138,140,253,-1,253,140,142,-1,253,142,254,-1,254,142,144,-1,254,144,146,-1,266,257,267,-1,267,257,256,-1,267,256,268,-1,268,256,258,-1,268,258,269,-1,265,270,258,-1,258,270,271,-1,258,271,269,-1,269,271,272,-1,269,272,273,-1,252,266,274,-1,274,266,267,-1,274,267,275,-1,275,267,268,-1,275,268,276,-1,276,268,269,-1,276,269,277,-1,277,269,273,-1,130,132,278,-1,278,132,134,-1,134,252,278,-1,278,252,274,-1,278,274,279,-1,279,274,275,-1,279,275,280,-1,280,275,276,-1,280,276,281,-1,281,276,277,-1,281,277,282,-1,136,138,252,-1,252,138,253,-1,252,253,266,-1,266,253,255,-1,266,255,257,-1,257,255,149,-1,130,259,128,-1,128,259,150,-1,128,150,127,-1,273,283,277,-1,277,283,284,-1,277,284,282,-1,282,284,285,-1,282,285,286,-1,130,278,259,-1,259,278,279,-1,259,279,260,-1,260,279,280,-1,260,280,261,-1,261,280,281,-1,261,281,262,-1,262,281,282,-1,262,282,263,-1,263,282,286,-1,263,286,264,-1,287,52,160,-1,29,288,172,-1,172,288,289,-1,172,289,173,-1,173,289,290,-1,173,290,176,-1,176,290,291,-1,176,291,177,-1,177,291,292,-1,177,292,182,-1,182,292,293,-1,182,293,183,-1,183,293,294,-1,183,294,197,-1,197,294,295,-1,197,295,198,-1,198,295,296,-1,198,296,199,-1,199,296,297,-1,199,297,160,-1,160,297,298,-1,160,298,287,-1,299,300,301,-1,301,300,302,-1,301,302,303,-1,303,302,304,-1,303,304,305,-1,305,304,306,-1,305,306,307,-1,307,306,308,-1,307,308,309,-1,309,308,310,-1,309,310,311,-1,311,310,312,-1,311,312,313,-1,313,312,314,-1,313,314,315,-1,315,314,316,-1,315,316,317,-1,317,316,318,-1,317,318,319,-1,318,320,319,-1,319,320,211,-1,319,211,287,-1,210,211,321,-1,322,323,211,-1,316,314,324,-1,312,310,325,-1,326,327,328,-1,329,330,331,-1,332,333,334,-1,334,333,200,-1,335,336,337,-1,328,338,339,-1,338,328,340,-1,340,328,327,-1,340,327,341,-1,300,341,302,-1,302,341,327,-1,302,327,304,-1,304,327,326,-1,304,326,306,-1,306,326,308,-1,200,201,334,-1,334,201,202,-1,334,202,342,-1,310,308,325,-1,325,308,326,-1,325,326,343,-1,343,326,328,-1,343,328,335,-1,335,328,339,-1,335,339,336,-1,202,203,342,-1,342,203,204,-1,342,204,344,-1,314,312,324,-1,324,312,325,-1,324,325,345,-1,345,325,343,-1,345,343,346,-1,346,343,335,-1,346,335,347,-1,347,335,337,-1,347,337,348,-1,204,205,344,-1,344,205,206,-1,344,206,349,-1,347,350,346,-1,346,350,351,-1,346,351,345,-1,345,351,352,-1,345,352,324,-1,324,352,353,-1,324,353,316,-1,323,322,354,-1,330,332,331,-1,331,332,334,-1,331,334,355,-1,355,334,342,-1,355,342,356,-1,356,342,344,-1,356,344,357,-1,357,344,349,-1,357,349,358,-1,358,349,321,-1,358,321,211,-1,211,320,353,-1,353,320,318,-1,353,318,316,-1,350,359,351,-1,351,359,360,-1,351,360,352,-1,352,360,361,-1,352,361,353,-1,353,361,211,-1,359,354,360,-1,360,354,322,-1,360,322,361,-1,361,322,211,-1,206,207,349,-1,349,207,208,-1,349,208,321,-1,321,208,209,-1,321,209,210,-1,348,329,347,-1,347,329,331,-1,347,331,350,-1,350,331,355,-1,350,355,359,-1,359,355,356,-1,359,356,354,-1,354,356,357,-1,354,357,323,-1,323,357,358,-1,323,358,211,-1,362,148,224,-1,114,363,251,-1,251,363,364,-1,251,364,212,-1,212,364,365,-1,212,365,213,-1,213,365,366,-1,213,366,215,-1,215,366,367,-1,215,367,216,-1,216,367,368,-1,216,368,231,-1,231,368,369,-1,231,369,232,-1,232,369,370,-1,232,370,233,-1,233,370,371,-1,233,371,234,-1,234,371,372,-1,234,372,224,-1,224,372,373,-1,224,373,362,-1,3,1,374,-1,374,1,375,-1,374,375,376,-1,376,375,377,-1,376,377,378,-1,378,377,379,-1,378,379,380,-1,379,381,380,-1,380,381,382,-1,380,382,362,-1,383,159,384,-1,384,159,264,-1,384,264,385,-1,385,264,286,-1,385,286,386,-1,386,286,285,-1,386,285,387,-1,387,285,284,-1,387,284,388,-1,388,284,283,-1,388,283,389,-1,389,283,273,-1,389,273,390,-1,390,273,272,-1,390,272,391,-1,391,272,271,-1,391,271,392,-1,392,271,270,-1,392,270,393,-1,270,265,393,-1,393,265,149,-1,393,149,382,-1,319,287,394,-1,296,295,395,-1,294,293,396,-1,397,398,399,-1,400,299,301,-1,401,402,403,-1,403,402,400,-1,404,405,398,-1,398,405,406,-1,398,406,399,-1,399,406,407,-1,399,407,408,-1,288,404,289,-1,289,404,398,-1,289,398,290,-1,290,398,397,-1,290,397,291,-1,291,397,292,-1,400,301,403,-1,403,301,303,-1,403,303,409,-1,293,292,396,-1,396,292,397,-1,396,397,410,-1,410,397,399,-1,410,399,411,-1,411,399,408,-1,303,305,409,-1,409,305,307,-1,409,307,412,-1,295,294,395,-1,395,294,396,-1,395,396,413,-1,413,396,410,-1,413,410,414,-1,414,410,411,-1,307,309,412,-1,412,309,311,-1,412,311,415,-1,414,416,413,-1,413,416,417,-1,413,417,395,-1,395,417,418,-1,395,418,296,-1,419,401,420,-1,420,401,403,-1,420,403,421,-1,421,403,409,-1,421,409,422,-1,422,409,412,-1,422,412,423,-1,423,412,415,-1,423,415,424,-1,424,415,394,-1,424,394,287,-1,287,298,418,-1,418,298,297,-1,418,297,296,-1,416,425,417,-1,417,425,426,-1,417,426,418,-1,418,426,287,-1,425,427,426,-1,426,427,287,-1,311,313,415,-1,415,313,315,-1,415,315,394,-1,394,315,317,-1,394,317,319,-1,408,419,411,-1,411,419,420,-1,411,420,414,-1,414,420,421,-1,414,421,416,-1,416,421,422,-1,416,422,425,-1,425,422,423,-1,425,423,427,-1,427,423,424,-1,427,424,287,-1,428,200,333,-1,428,333,429,-1,429,333,332,-1,429,332,430,-1,430,332,330,-1,430,330,431,-1,431,330,329,-1,431,329,432,-1,432,329,348,-1,432,348,433,-1,433,348,337,-1,433,337,434,-1,434,337,336,-1,434,336,435,-1,435,336,339,-1,435,339,436,-1,436,339,338,-1,436,338,437,-1,437,338,340,-1,437,340,438,-1,438,340,341,-1,438,341,300,-1,439,440,441,-1,376,378,442,-1,362,443,444,-1,445,443,362,-1,362,446,442,-1,447,448,449,-1,447,449,450,-1,450,449,451,-1,450,451,452,-1,452,451,453,-1,453,451,440,-1,453,440,454,-1,454,440,439,-1,454,439,455,-1,456,457,458,-1,458,457,459,-1,458,459,460,-1,460,459,461,-1,378,380,442,-1,442,380,362,-1,444,446,362,-1,447,3,448,-1,448,3,374,-1,448,374,376,-1,362,373,445,-1,445,373,372,-1,445,372,371,-1,376,442,448,-1,448,442,446,-1,448,446,449,-1,449,446,444,-1,449,444,451,-1,451,444,443,-1,451,443,440,-1,440,443,445,-1,440,445,441,-1,441,445,371,-1,441,371,370,-1,370,369,441,-1,441,369,457,-1,441,457,439,-1,439,457,456,-1,439,456,455,-1,363,462,364,-1,364,462,463,-1,364,463,365,-1,365,463,461,-1,365,461,366,-1,366,461,459,-1,366,459,367,-1,367,459,457,-1,367,457,368,-1,368,457,369,-1,377,375,464,-1,382,465,466,-1,467,465,382,-1,468,469,466,-1,466,469,382,-1,470,471,472,-1,473,474,472,-1,472,474,475,-1,472,475,470,-1,476,477,478,-1,478,477,468,-1,478,468,479,-1,479,468,480,-1,479,480,481,-1,481,480,482,-1,480,483,482,-1,482,483,484,-1,482,484,485,-1,485,484,464,-1,485,464,486,-1,486,464,375,-1,486,375,1,-1,487,392,393,-1,379,488,381,-1,381,488,382,-1,467,382,488,-1,392,487,391,-1,391,487,489,-1,391,489,390,-1,468,466,480,-1,480,466,465,-1,480,465,483,-1,483,465,467,-1,483,467,484,-1,484,467,488,-1,484,488,464,-1,464,488,379,-1,464,379,377,-1,390,489,389,-1,389,489,473,-1,389,473,388,-1,476,474,477,-1,477,474,473,-1,477,473,468,-1,468,473,489,-1,468,489,469,-1,469,489,487,-1,469,487,382,-1,393,382,487,-1,388,473,387,-1,387,473,472,-1,387,472,386,-1,386,472,471,-1,386,471,385,-1,385,471,490,-1,385,490,384,-1,384,490,491,-1,384,491,383,-1,299,400,492,-1,492,400,493,-1,493,400,494,-1,494,400,402,-1,494,402,495,-1,495,402,401,-1,495,401,496,-1,496,401,419,-1,496,419,497,-1,497,419,408,-1,497,408,498,-1,498,408,407,-1,498,407,499,-1,499,407,406,-1,499,406,500,-1,500,406,405,-1,500,405,501,-1,405,404,501,-1,501,404,288,-1,501,288,502,-1,438,503,504,-1,438,504,437,-1,437,504,505,-1,437,505,436,-1,436,505,506,-1,436,506,435,-1,435,506,507,-1,435,507,434,-1,434,507,508,-1,434,508,433,-1,433,508,509,-1,433,509,432,-1,432,509,510,-1,432,510,431,-1,431,510,511,-1,431,511,430,-1,430,511,512,-1,430,512,429,-1,513,428,514,-1,514,428,429,-1,514,429,515,-1,515,429,512,-1,513,516,363,-1,363,516,462,-1,462,516,463,-1,463,516,517,-1,463,517,461,-1,461,517,518,-1,461,518,460,-1,460,518,519,-1,460,519,458,-1,2,3,520,-1,520,3,447,-1,520,447,521,-1,521,447,450,-1,521,450,522,-1,522,450,452,-1,522,452,523,-1,523,452,453,-1,523,453,524,-1,524,453,454,-1,524,454,525,-1,525,454,455,-1,525,455,526,-1,526,455,456,-1,526,456,527,-1,527,456,458,-1,527,458,528,-1,528,458,519,-1,1,0,486,-1,486,0,529,-1,486,529,485,-1,485,529,530,-1,485,530,482,-1,482,530,531,-1,482,531,481,-1,481,531,532,-1,481,532,479,-1,479,532,478,-1,532,533,478,-1,478,533,534,-1,478,534,476,-1,476,534,535,-1,476,535,474,-1,474,535,536,-1,474,536,475,-1,475,536,537,-1,475,537,470,-1,470,537,538,-1,470,538,471,-1,471,538,539,-1,471,539,490,-1,490,539,540,-1,490,540,491,-1,540,541,491,-1,491,541,542,-1,491,542,383,-1,502,542,543,-1,502,543,501,-1,501,543,544,-1,501,544,500,-1,500,544,545,-1,500,545,499,-1,499,545,546,-1,499,546,498,-1,498,546,547,-1,498,547,497,-1,497,547,548,-1,497,548,496,-1,496,548,549,-1,496,549,495,-1,495,549,550,-1,495,550,494,-1,494,550,551,-1,494,551,493,-1,493,551,552,-1,493,552,492,-1,492,552,553,-1,492,553,554,-1,525,555,524,-1,528,556,527,-1,517,557,518,-1,516,513,514,-1,504,558,505,-1,505,558,559,-1,505,559,506,-1,506,559,507,-1,507,559,560,-1,507,560,508,-1,508,560,509,-1,509,560,561,-1,509,561,510,-1,510,561,511,-1,511,561,562,-1,511,562,512,-1,512,562,515,-1,515,562,557,-1,515,557,514,-1,514,557,517,-1,514,517,516,-1,518,557,519,-1,519,557,562,-1,519,562,528,-1,527,556,526,-1,526,556,563,-1,526,563,525,-1,524,555,523,-1,523,555,564,-1,523,564,522,-1,522,564,565,-1,522,565,521,-1,521,565,566,-1,521,566,520,-1,520,566,567,-1,520,567,2,-1,568,569,570,-1,570,569,571,-1,525,563,555,-1,555,563,572,-1,555,572,564,-1,564,572,573,-1,564,573,565,-1,565,573,570,-1,565,570,566,-1,566,570,571,-1,566,571,567,-1,504,503,558,-1,558,503,574,-1,558,574,575,-1,528,562,556,-1,556,562,561,-1,556,561,563,-1,563,561,560,-1,563,560,572,-1,572,560,559,-1,572,559,573,-1,573,559,558,-1,573,558,570,-1,570,558,575,-1,570,575,568,-1,576,577,578,-1,0,579,529,-1,529,579,580,-1,529,580,530,-1,530,580,581,-1,530,581,531,-1,535,534,582,-1,582,534,533,-1,582,533,581,-1,581,533,532,-1,581,532,531,-1,538,537,583,-1,583,537,536,-1,583,536,584,-1,584,536,535,-1,541,540,585,-1,585,540,539,-1,585,539,586,-1,586,539,538,-1,542,541,543,-1,543,541,585,-1,543,585,544,-1,544,585,586,-1,544,586,545,-1,545,586,546,-1,546,586,587,-1,546,587,547,-1,547,587,548,-1,548,587,588,-1,548,588,549,-1,549,588,550,-1,550,588,589,-1,550,589,551,-1,551,589,552,-1,552,589,578,-1,552,578,553,-1,553,578,577,-1,553,577,554,-1,535,582,584,-1,584,582,581,-1,584,581,590,-1,590,581,580,-1,590,580,591,-1,591,580,579,-1,591,579,592,-1,0,593,579,-1,579,593,594,-1,579,594,592,-1,592,594,595,-1,592,595,596,-1,538,583,586,-1,586,583,584,-1,586,584,587,-1,587,584,590,-1,587,590,588,-1,588,590,591,-1,588,591,589,-1,589,591,592,-1,589,592,578,-1,578,592,596,-1,578,596,576,-1,0,2,593,-1,593,2,567,-1,593,567,594,-1,594,567,571,-1,594,571,595,-1,595,571,569,-1,595,569,596,-1,596,569,568,-1,596,568,575,-1,503,554,574,-1,574,554,577,-1,574,577,575,-1,575,577,576,-1,575,576,596,-1,
        ]
    }
}
Shape{
    appearance Appearance {
        material  Material 	{
            diffuseColor 0.8313725490196079 0.8313725490196079 0.8196078431372549
            specularColor 0.6666666666666666 0.6666666666666666 0.6549019607843137
            ambientIntensity 0.2
            transparency 0
            shininess 0.5
        }
    }
    geometry IndexedFaceSet {
        ccw TRUE
        solid FALSE
        coord DEF co Coordinate {
            point [
                -0.1801 -0.6321 -0.2717, -0.1761 -0.6451 -0.2717, -0.2195 -0.6321 -0.2717, -0.2249 -0.6451 -0.2717, -0.1977 -0.5828 -0.2717, -0.1922 -0.5601 -0.2717, -0.1475 -0.6782 -0.2717, -0.1648 -0.6782 -0.2717, -0.1988 -0.5787 -0.2717, -0.1996 -0.5745 -0.2717, -0.208 -0.5601 -0.2717, -0.1999 -0.5745 -0.2717, -0.2007 -0.5787 -0.2717, -0.2018 -0.5828 -0.2717, -0.2541 -0.6782 -0.2717, -0.2368 -0.6782 -0.2717, -0.2249 -0.6451 -0.2756, -0.2368 -0.6782 -0.2756, -0.1761 -0.6451 -0.2756, -0.1648 -0.6782 -0.2756, -0.1475 -0.6782 -0.2756, -0.1922 -0.5601 -0.2756, -0.208 -0.5601 -0.2756, -0.2541 -0.6782 -0.2756, -0.2018 -0.5828 -0.2756, -0.2007 -0.5787 -0.2756, -0.1999 -0.5745 -0.2756, -0.1996 -0.5745 -0.2756, -0.1988 -0.5787 -0.2756, -0.1977 -0.5828 -0.2756, -0.1801 -0.6321 -0.2756, -0.2195 -0.6321 -0.2756, -0.0771 -0.5601 -0.2717, -0.0771 -0.5601 -0.2756, -0.0438 -0.5601 -0.2717, -0.0438 -0.5601 -0.2756, -0.0942 -0.5619 -0.2717, -0.0942 -0.5619 -0.2756, -0.108 -0.5668 -0.2717, -0.108 -0.5668 -0.2756, -0.1209 -0.5754 -0.2717, -0.1209 -0.5754 -0.2756, -0.121 -0.5755 -0.2717, -0.121 -0.5755 -0.2756, -0.1293 -0.5847 -0.2717, -0.1293 -0.5847 -0.2756, -0.1348 -0.5949 -0.2717, -0.1348 -0.5949 -0.2756, -0.138 -0.6065 -0.2717, -0.138 -0.6065 -0.2756, -0.1389 -0.6177 -0.2717, -0.1389 -0.6177 -0.2756, -0.1372 -0.6335 -0.2717, -0.1372 -0.6335 -0.2756, -0.133 -0.6458 -0.2717, -0.133 -0.6458 -0.2756, -0.1262 -0.6564 -0.2717, -0.1262 -0.6564 -0.2756, -0.1165 -0.6657 -0.2717, -0.1165 -0.6657 -0.2756, -0.1041 -0.6729 -0.2717, -0.1041 -0.6729 -0.2756, -0.0905 -0.6769 -0.2717, -0.0905 -0.6769 -0.2756, -0.0759 -0.6782 -0.2717, -0.0759 -0.6782 -0.2756, -0.0438 -0.6782 -0.2717, -0.0438 -0.6782 -0.2756, -0.1152 -0.5896 -0.2717, -0.1094 -0.5835 -0.2717, -0.1008 -0.5779 -0.2717, -0.091 -0.5745 -0.2717, -0.0771 -0.573 -0.2717, -0.0596 -0.573 -0.2717, -0.0596 -0.6652 -0.2717, -0.0764 -0.6652 -0.2717, -0.0889 -0.6641 -0.2717, -0.0988 -0.661 -0.2717, -0.1069 -0.6562 -0.2717, -0.1135 -0.6496 -0.2717, -0.1185 -0.6415 -0.2717, -0.1219 -0.6304 -0.2717, -0.123 -0.618 -0.2717, -0.122 -0.6062 -0.2717, -0.1193 -0.5969 -0.2717, -0.0764 -0.6652 -0.2756, -0.0596 -0.6652 -0.2756, -0.0889 -0.6641 -0.2756, -0.0988 -0.661 -0.2756, -0.1069 -0.6562 -0.2756, -0.1135 -0.6496 -0.2756, -0.1185 -0.6415 -0.2756, -0.1219 -0.6304 -0.2756, -0.123 -0.618 -0.2756, -0.122 -0.6062 -0.2756, -0.1193 -0.5969 -0.2756, -0.1152 -0.5896 -0.2756, -0.1094 -0.5835 -0.2756, -0.1008 -0.5779 -0.2756, -0.091 -0.5745 -0.2756, -0.0771 -0.573 -0.2756, -0.0596 -0.573 -0.2756, 0.0426 -0.5601 -0.2717, 0.0426 -0.5601 -0.2756, 0.0426 -0.6782 -0.2717, 0.0426 -0.6782 -0.2756, -0.0179 -0.5601 -0.2717, -0.0179 -0.5601 -0.2756, -0.0179 -0.573 -0.2717, -0.0179 -0.573 -0.2756, 0.0268 -0.573 -0.2717, 0.0268 -0.573 -0.2756, 0.0268 -0.6119 -0.2717, 0.0268 -0.6119 -0.2756, -0.015 -0.6119 -0.2717, -0.015 -0.6119 -0.2756, -0.015 -0.6249 -0.2717, -0.015 -0.6249 -0.2756, 0.0268 -0.6249 -0.2717, 0.0268 -0.6249 -0.2756, 0.0268 -0.6652 -0.2717, 0.0268 -0.6652 -0.2756, -0.0208 -0.6652 -0.2717, -0.0208 -0.6652 -0.2756, -0.0208 -0.6782 -0.2717, -0.0208 -0.6782 -0.2756, 0.0982 -0.6796 -0.2756, 0.0982 -0.6796 -0.2717, 0.1127 -0.6781 -0.2717, 0.1127 -0.6781 -0.2756, 0.1242 -0.6742 -0.2717, 0.1242 -0.6742 -0.2756, 0.1337 -0.6681 -0.2717, 0.1337 -0.6681 -0.2756, 0.1425 -0.6588 -0.2717, 0.1425 -0.6588 -0.2756, 0.1488 -0.6475 -0.2717, 0.1488 -0.6475 -0.2756, 0.1524 -0.635 -0.2717, 0.1524 -0.635 -0.2756, 0.1535 -0.6214 -0.2717, 0.1535 -0.6214 -0.2756, 0.1518 -0.6046 -0.2717, 0.1518 -0.6046 -0.2756, 0.1473 -0.5912 -0.2717, 0.1473 -0.5912 -0.2756, 0.1404 -0.5802 -0.2717, 0.1404 -0.5802 -0.2756, 0.1297 -0.5699 -0.2717, 0.1297 -0.5699 -0.2756, 0.1185 -0.5634 -0.2717, 0.1185 -0.5634 -0.2756, 0.1053 -0.5596 -0.2717, 0.1053 -0.5596 -0.2756, 0.0935 -0.5586 -0.2717, 0.0935 -0.5586 -0.2756, 0.1023 -0.5594 -0.2756, 0.083 -0.5594 -0.2756, 0.0793 -0.5596 -0.2717, 0.0793 -0.5596 -0.2756, 0.0657 -0.5633 -0.2717, 0.0657 -0.5633 -0.2756, 0.0657 -0.5792 -0.2717, 0.0657 -0.5792 -0.2756, 0.079 -0.5735 -0.2717, 0.079 -0.5735 -0.2756, 0.0933 -0.5716 -0.2717, 0.0933 -0.5716 -0.2756, 0.105 -0.5729 -0.2717, 0.105 -0.5729 -0.2756, 0.1138 -0.5761 -0.2717, 0.1138 -0.5761 -0.2756, 0.122 -0.5816 -0.2717, 0.122 -0.5816 -0.2756, 0.1291 -0.5894 -0.2717, 0.1291 -0.5894 -0.2756, 0.134 -0.5986 -0.2717, 0.134 -0.5986 -0.2756, 0.1371 -0.6112 -0.2717, 0.1371 -0.6112 -0.2756, 0.1377 -0.6204 -0.2717, 0.1377 -0.6204 -0.2756, 0.1365 -0.6332 -0.2717, 0.1365 -0.6332 -0.2756, 0.1333 -0.6433 -0.2717, 0.1333 -0.6433 -0.2756, 0.1284 -0.6515 -0.2717, 0.1284 -0.6515 -0.2756, 0.1229 -0.6574 -0.2717, 0.1229 -0.6574 -0.2756, 0.1156 -0.6623 -0.2717, 0.1156 -0.6623 -0.2756, 0.107 -0.6654 -0.2717, 0.107 -0.6654 -0.2756, 0.096 -0.6667 -0.2717, 0.096 -0.6667 -0.2756, 0.0803 -0.6649 -0.2717, 0.0803 -0.6649 -0.2756, 0.0678 -0.6603 -0.2717, 0.0678 -0.6603 -0.2756, 0.0657 -0.6591 -0.2717, 0.0657 -0.6591 -0.2756, 0.0657 -0.6721 -0.2717, 0.0657 -0.6721 -0.2756, 0.0783 -0.6772 -0.2717, 0.0783 -0.6772 -0.2756, 0.0949 -0.6796 -0.2717, 0.0949 -0.6796 -0.2756, 0.2241 -0.5601 -0.2717, 0.2241 -0.5601 -0.2756, 0.2241 -0.6782 -0.2717, 0.2241 -0.6782 -0.2756, 0.2083 -0.5601 -0.2717, 0.2083 -0.5601 -0.2756, 0.2083 -0.6652 -0.2717, 0.2083 -0.6652 -0.2756, 0.1636 -0.6652 -0.2717, 0.1636 -0.6652 -0.2756, 0.1636 -0.6782 -0.2717, 0.1636 -0.6782 -0.2756, 0.1636 -0.6782 -0.2756
            ]
        }
        coordIndex [
            0,1,2,-1,2,1,3,-1,4,5,0,-1,0,5,6,-1,0,6,1,-1,1,6,7,-1,4,8,5,-1,5,8,9,-1,5,9,10,-1,10,9,11,-1,10,11,12,-1,12,13,10,-1,10,13,2,-1,10,2,14,-1,14,2,3,-1,14,3,15,-1,3,16,15,-1,15,16,17,-1,1,18,3,-1,3,18,16,-1,7,19,1,-1,1,19,18,-1,6,20,7,-1,7,20,19,-1,5,21,6,-1,6,21,20,-1,10,22,5,-1,5,22,21,-1,14,23,10,-1,10,23,22,-1,14,15,23,-1,23,15,17,-1,24,13,12,-1,24,12,25,-1,25,12,11,-1,25,11,26,-1,9,27,11,-1,11,27,26,-1,27,9,8,-1,27,8,28,-1,28,8,4,-1,28,4,29,-1,0,30,4,-1,4,30,29,-1,2,31,0,-1,0,31,30,-1,24,31,13,-1,13,31,2,-1,32,33,34,-1,34,33,35,-1,33,32,36,-1,33,36,37,-1,37,36,38,-1,37,38,39,-1,39,38,40,-1,39,40,41,-1,41,40,42,-1,41,42,43,-1,43,42,44,-1,43,44,45,-1,45,44,46,-1,45,46,47,-1,47,46,48,-1,47,48,49,-1,49,48,50,-1,49,50,51,-1,51,50,52,-1,51,52,53,-1,53,52,54,-1,53,54,55,-1,55,54,56,-1,55,56,57,-1,57,56,58,-1,57,58,59,-1,59,58,60,-1,59,60,61,-1,61,60,62,-1,61,62,63,-1,63,62,64,-1,63,64,65,-1,66,67,64,-1,64,67,65,-1,66,34,67,-1,67,34,35,-1,46,44,68,-1,68,44,42,-1,68,42,69,-1,69,42,40,-1,69,40,70,-1,70,40,38,-1,70,38,71,-1,71,38,36,-1,71,36,72,-1,72,36,32,-1,72,32,73,-1,73,32,34,-1,73,34,74,-1,74,34,66,-1,74,66,75,-1,75,66,64,-1,75,64,76,-1,76,64,62,-1,76,62,77,-1,77,62,60,-1,77,60,78,-1,78,60,58,-1,78,58,79,-1,79,58,56,-1,79,56,80,-1,80,56,54,-1,80,54,81,-1,81,54,52,-1,81,52,82,-1,82,52,50,-1,82,50,83,-1,83,50,48,-1,83,48,84,-1,84,48,46,-1,84,46,68,-1,75,85,74,-1,74,85,86,-1,85,75,76,-1,85,76,87,-1,87,76,77,-1,87,77,88,-1,88,77,78,-1,88,78,89,-1,89,78,79,-1,89,79,90,-1,90,79,80,-1,90,80,91,-1,91,80,81,-1,91,81,92,-1,92,81,82,-1,92,82,93,-1,93,82,83,-1,93,83,94,-1,94,83,84,-1,94,84,95,-1,95,84,68,-1,95,68,96,-1,96,68,69,-1,96,69,97,-1,97,69,70,-1,97,70,98,-1,98,70,71,-1,98,71,99,-1,99,71,72,-1,99,72,100,-1,73,101,72,-1,72,101,100,-1,86,101,74,-1,74,101,73,-1,102,103,104,-1,104,103,105,-1,106,107,102,-1,102,107,103,-1,108,109,106,-1,106,109,107,-1,110,111,108,-1,108,111,109,-1,112,113,110,-1,110,113,111,-1,114,115,112,-1,112,115,113,-1,116,117,114,-1,114,117,115,-1,118,119,116,-1,116,119,117,-1,120,121,118,-1,118,121,119,-1,122,123,120,-1,120,123,121,-1,124,125,122,-1,122,125,123,-1,124,104,125,-1,125,104,105,-1,104,124,122,-1,122,120,104,-1,104,120,118,-1,104,118,102,-1,108,106,110,-1,110,106,102,-1,110,102,112,-1,112,102,118,-1,112,118,114,-1,114,118,116,-1,126,127,128,-1,126,128,129,-1,129,128,130,-1,129,130,131,-1,131,130,132,-1,131,132,133,-1,133,132,134,-1,133,134,135,-1,135,134,136,-1,135,136,137,-1,137,136,138,-1,137,138,139,-1,139,138,140,-1,139,140,141,-1,141,140,142,-1,141,142,143,-1,143,142,144,-1,143,144,145,-1,145,144,146,-1,145,146,147,-1,147,146,148,-1,147,148,149,-1,149,148,150,-1,149,150,151,-1,151,150,152,-1,151,152,153,-1,154,155,152,-1,152,155,156,-1,152,156,153,-1,155,154,157,-1,157,154,158,-1,157,158,159,-1,159,158,160,-1,159,160,161,-1,162,163,160,-1,160,163,161,-1,163,162,164,-1,163,164,165,-1,165,164,166,-1,165,166,167,-1,167,166,168,-1,167,168,169,-1,169,168,170,-1,169,170,171,-1,171,170,172,-1,171,172,173,-1,173,172,174,-1,173,174,175,-1,175,174,176,-1,175,176,177,-1,177,176,178,-1,177,178,179,-1,179,178,180,-1,179,180,181,-1,181,180,182,-1,181,182,183,-1,183,182,184,-1,183,184,185,-1,185,184,186,-1,185,186,187,-1,187,186,188,-1,187,188,189,-1,189,188,190,-1,189,190,191,-1,191,190,192,-1,191,192,193,-1,193,192,194,-1,193,194,195,-1,195,194,196,-1,195,196,197,-1,197,196,198,-1,197,198,199,-1,199,198,200,-1,199,200,201,-1,202,203,200,-1,200,203,201,-1,203,202,204,-1,203,204,205,-1,205,204,206,-1,205,206,207,-1,207,206,127,-1,207,127,126,-1,192,127,194,-1,194,127,206,-1,194,206,196,-1,196,206,204,-1,196,204,198,-1,198,204,202,-1,198,202,200,-1,162,160,164,-1,164,160,158,-1,164,158,166,-1,166,158,154,-1,166,154,168,-1,168,154,152,-1,168,152,170,-1,170,152,150,-1,170,150,172,-1,172,150,148,-1,172,148,174,-1,174,148,146,-1,174,146,176,-1,176,146,144,-1,176,144,178,-1,178,144,142,-1,178,142,180,-1,180,142,140,-1,180,140,182,-1,182,140,138,-1,182,138,184,-1,184,138,136,-1,184,136,186,-1,186,136,134,-1,186,134,188,-1,188,134,132,-1,188,132,190,-1,190,132,130,-1,190,130,192,-1,192,130,128,-1,192,128,127,-1,208,209,210,-1,210,209,211,-1,212,213,208,-1,208,213,209,-1,214,215,212,-1,212,215,213,-1,216,217,214,-1,214,217,215,-1,218,219,216,-1,216,219,217,-1,218,210,219,-1,219,210,211,-1,212,208,214,-1,214,208,210,-1,214,210,216,-1,216,210,218,-1,
        ]
    }
}
Shape{
    appearance Appearance {
        material  Material 	{
            diffuseColor 0.792156862745098 0.8196078431372549 0.9333333333333333
            specularColor 0.396078431372549 0.4117647058823529 0.4666666666666667
            ambientIntensity 0.2
            transparency 0
            shininess 0.5
        }
    }
    geometry IndexedFaceSet {
        ccw TRUE
        solid FALSE
        coord DEF co Coordinate {
            point [
                -0.1801 -0.6321 -0.2756, -0.2195 -0.6321 -0.2756, -0.1977 -0.5828 -0.2756, -0.2018 -0.5828 -0.2756, -0.1988 -0.5787 -0.2756, -0.2007 -0.5787 -0.2756, -0.1996 -0.5745 -0.2756, -0.1999 -0.5745 -0.2756, -0.1999 -0.5745 -0.2756
            ]
        }
        coordIndex [
            0,1,2,-1,2,1,3,-1,2,3,4,-1,4,3,5,-1,4,5,6,-1,6,5,7,-1,
        ]
    }
}
Shape{
    appearance Appearance {
        material  Material 	{
            diffuseColor 0.20784313725490197 0.20784313725490197 0.20784313725490197
            specularColor 0.01568627450980392 0.01568627450980392 0.01568627450980392
            ambientIntensity 0.2
            transparency 0
            shininess 0.5
        }
    }
    geometry IndexedFaceSet {
        ccw TRUE
        solid FALSE
        coord DEF co Coordinate {
            point [
                -0.0596 -0.573 -0.2756, -0.0596 -0.6652 -0.2756, -0.0771 -0.573 -0.2756, -0.0764 -0.6652 -0.2756, -0.0889 -0.6641 -0.2756, -0.123 -0.618 -0.2756, -0.122 -0.6062 -0.2756, -0.1193 -0.5969 -0.2756, -0.091 -0.5745 -0.2756, -0.0988 -0.661 -0.2756, -0.1069 -0.6562 -0.2756, -0.1135 -0.6496 -0.2756, -0.1185 -0.6415 -0.2756, -0.1219 -0.6304 -0.2756, -0.1152 -0.5896 -0.2756, -0.1094 -0.5835 -0.2756, -0.1008 -0.5779 -0.2756, -0.1008 -0.5779 -0.2756
            ]
        }
        coordIndex [
            0,1,2,-1,2,1,3,-1,2,3,4,-1,5,6,2,-1,2,6,7,-1,2,7,8,-1,4,9,2,-1,2,9,10,-1,2,10,11,-1,11,12,2,-1,2,12,13,-1,2,13,5,-1,14,15,7,-1,7,15,16,-1,7,16,8,-1,
        ]
    }
}
Shape{
    appearance Appearance {
        material  Material 	{
            diffuseColor 0.8313725490196079 0.8313725490196079 0.8196078431372549
            specularColor 0.6666666666666666 0.6666666666666666 0.6549019607843137
            ambientIntensity 0.2
            transparency 0
            shininess 0.5
        }
    }
    geometry IndexedFaceSet {
        ccw TRUE
        solid FALSE
        coord DEF co Coordinate {
            point [
                -0.6791 -0.4134 0.2717, -0.6791 -0.4134 0.2756, -0.6815 -0.3956 0.2717, -0.6815 -0.3956 0.2756, -0.6884 -0.3789 0.2717, -0.6884 -0.3789 0.2756, -0.6993 -0.3647 0.2717, -0.6993 -0.3647 0.2756, -0.7136 -0.3537 0.2717, -0.7136 -0.3537 0.2756, -0.7302 -0.3468 0.2717, -0.7302 -0.3468 0.2756, -0.748 -0.3445 0.2717, -0.748 -0.3445 0.2756, -0.7659 -0.3468 0.2717, -0.7659 -0.3468 0.2756, -0.7825 -0.3537 0.2717, -0.7825 -0.3537 0.2756, -0.7967 -0.3647 0.2717, -0.7967 -0.3647 0.2756, -0.8077 -0.3789 0.2717, -0.8077 -0.3789 0.2756, -0.8146 -0.3956 0.2717, -0.8146 -0.3956 0.2756, -0.8169 -0.4134 0.2717, -0.8169 -0.4134 0.2756, -0.8146 -0.4312 0.2717, -0.8146 -0.4312 0.2756, -0.8077 -0.4478 0.2717, -0.8077 -0.4478 0.2756, -0.7967 -0.4621 0.2717, -0.7967 -0.4621 0.2756, -0.7825 -0.4731 0.2717, -0.7825 -0.4731 0.2756, -0.7659 -0.4799 0.2717, -0.7659 -0.4799 0.2756, -0.748 -0.4823 0.2717, -0.748 -0.4823 0.2756, -0.7302 -0.4799 0.2717, -0.7302 -0.4799 0.2756, -0.7136 -0.4731 0.2717, -0.7136 -0.4731 0.2756, -0.6993 -0.4621 0.2717, -0.6993 -0.4621 0.2756, -0.6884 -0.4478 0.2717, -0.6884 -0.4478 0.2756, -0.6815 -0.4312 0.2717, -0.6815 -0.4312 0.2756, -0.748 -0.4134 0.2717, 0.6102 0.1378 -0.2795, 0.6102 0.4331 -0.2795, 0.6102 0.1378 -0.2756, 0.6102 0.4331 -0.2756, 0.4921 0.1378 -0.2795, 0.4921 0.1378 -0.2756, 0.4921 -0.1378 -0.2795, 0.4921 -0.1378 -0.2756, 0.6102 -0.1378 -0.2795, 0.6102 -0.1378 -0.2756, 0.6102 -0.4331 -0.2795, 0.6102 -0.4331 -0.2756, 0.4172 -0.4331 -0.2756, -0.1432 -0.4331 -0.2756, -0.6102 -0.4331 -0.2756, -0.6102 -0.4331 -0.2795, 0.1586 -0.4331 -0.2756, 0.0541 -0.4331 -0.2756, -0.0323 -0.4331 -0.2756, -0.6102 -0.1378 -0.2795, -0.6102 -0.1378 -0.2756, -0.4921 -0.1378 -0.2795, -0.4921 -0.1378 -0.2756, -0.4921 0.1378 -0.2795, -0.4921 0.1378 -0.2756, -0.6102 0.1378 -0.2795, -0.6102 0.1378 -0.2756, -0.6102 0.4331 -0.2795, -0.6102 0.4331 -0.2756, 0.4172 0.4331 -0.2756, 0.1586 0.4331 -0.2756, -0.1432 0.4331 -0.2756, -0.0323 0.4331 -0.2756, 0.0541 0.4331 -0.2756, 0.0541 0.4331 -0.2756
            ]
        }
        coordIndex [
            0,1,2,-1,2,1,3,-1,2,3,4,-1,4,3,5,-1,4,5,6,-1,6,5,7,-1,6,7,8,-1,8,7,9,-1,8,9,10,-1,10,9,11,-1,10,11,12,-1,12,11,13,-1,12,13,14,-1,14,13,15,-1,14,15,16,-1,16,15,17,-1,16,17,18,-1,18,17,19,-1,18,19,20,-1,20,19,21,-1,20,21,22,-1,22,21,23,-1,22,23,24,-1,24,23,25,-1,24,25,26,-1,26,25,27,-1,26,27,28,-1,28,27,29,-1,28,29,30,-1,30,29,31,-1,30,31,32,-1,32,31,33,-1,32,33,34,-1,34,33,35,-1,34,35,36,-1,36,35,37,-1,36,37,38,-1,38,37,39,-1,38,39,40,-1,40,39,41,-1,40,41,42,-1,42,41,43,-1,42,43,44,-1,44,43,45,-1,44,45,46,-1,46,45,47,-1,46,47,0,-1,0,47,1,-1,44,46,48,-1,48,46,0,-1,48,0,2,-1,38,40,48,-1,48,40,42,-1,48,42,44,-1,32,34,48,-1,48,34,36,-1,48,36,38,-1,26,28,48,-1,48,28,30,-1,48,30,32,-1,20,22,48,-1,48,22,24,-1,48,24,26,-1,14,16,48,-1,48,16,18,-1,48,18,20,-1,8,10,48,-1,48,10,12,-1,48,12,14,-1,2,4,48,-1,48,4,6,-1,48,6,8,-1,49,50,51,-1,51,50,52,-1,53,49,54,-1,54,49,51,-1,55,53,56,-1,56,53,54,-1,57,55,58,-1,58,55,56,-1,59,57,60,-1,60,57,58,-1,59,60,61,-1,62,63,64,-1,61,65,59,-1,59,65,66,-1,59,66,64,-1,64,66,67,-1,64,67,62,-1,68,64,69,-1,69,64,63,-1,70,68,71,-1,71,68,69,-1,72,70,73,-1,73,70,71,-1,74,72,75,-1,75,72,73,-1,76,74,77,-1,77,74,75,-1,78,52,50,-1,78,50,79,-1,77,80,76,-1,76,80,81,-1,76,81,50,-1,50,81,82,-1,50,82,79,-1,55,57,59,-1,76,50,53,-1,53,50,49,-1,64,68,70,-1,74,76,72,-1,72,76,53,-1,72,53,70,-1,70,53,55,-1,70,55,64,-1,64,55,59,-1,
        ]
    }
}